  0
SECTION
  2
HEADER
  9
$ACADVER
  1
AC1009
  0
ENDSEC
  0
SECTION
  2
ENTITIES
  0
POLYLINE
  5
90
  8
Layer_1
  62
5
  66
1
  10
0
  20
0
  30
0
  0
VERTEX
  5
90
  8
Layer_1
  10
923.97491
  20
412.54214
  42
0.086758591
  0
VERTEX
  5
91
  8
Layer_1
  10
926.73029
  20
412.57071
  42
0.1466012
  0
VERTEX
  5
92
  8
Layer_1
  10
930.81531
  20
414.66934
  0
VERTEX
  5
93
  8
Layer_1
  10
930.81531
  20
411.336
  42
0.23636689
  0
VERTEX
  5
94
  8
Layer_1
  10
936.51563
  20
415.67447
  0
VERTEX
  5
95
  8
Layer_1
  10
937.6557
  20
412.54214
  42
0.23636642
  0
VERTEX
  5
96
  8
Layer_1
  10
941.52844
  20
418.5686
  0
VERTEX
  5
97
  8
Layer_1
  10
943.67102
  20
416.01511
  42
0.23636674
  0
VERTEX
  5
98
  8
Layer_1
  10
945.24902
  20
423.00266
  0
VERTEX
  5
99
  8
Layer_1
  10
948.1358
  20
421.336
  42
0.23636749
  0
VERTEX
  5
9a
  8
Layer_1
  10
947.22876
  20
428.44186
  0
VERTEX
  5
9b
  8
Layer_1
  10
950.51147
  20
427.86304
  42
0.23636704
  0
VERTEX
  5
9c
  8
Layer_1
  10
947.22876
  20
434.23013
  0
VERTEX
  5
9d
  8
Layer_1
  10
950.51147
  20
434.80896
  42
0.2363674
  0
VERTEX
  5
9e
  8
Layer_1
  10
945.24902
  20
439.66934
  0
VERTEX
  5
9f
  8
Layer_1
  10
948.1358
  20
441.336
  42
0.2363667
  0
VERTEX
  5
a0
  8
Layer_1
  10
941.52844
  20
444.10339
  0
VERTEX
  5
a1
  8
Layer_1
  10
943.67102
  20
446.65689
  42
0.23636713
  0
VERTEX
  5
a2
  8
Layer_1
  10
936.51563
  20
446.99756
  0
VERTEX
  5
a3
  8
Layer_1
  10
937.6557
  20
450.12985
  42
0.23636639
  0
VERTEX
  5
a4
  8
Layer_1
  10
930.81531
  20
448.00266
  0
VERTEX
  5
a5
  8
Layer_1
  10
930.81531
  20
451.336
  42
0.23636727
  0
VERTEX
  5
a6
  8
Layer_1
  10
925.11499
  20
446.99756
  0
VERTEX
  5
a7
  8
Layer_1
  10
923.97491
  20
450.12985
  42
0.22649704
  0
VERTEX
  5
a8
  8
Layer_1
  10
920.13977
  20
444.40079
  0
VERTEX
  5
a9
  8
Layer_1
  10
920.10217
  20
444.10339
  0
VERTEX
  5
aa
  8
Layer_1
  10
917.95953
  20
446.65689
  42
0.22649743
  0
VERTEX
  5
ab
  8
Layer_1
  10
916.31512
  20
439.96164
  0
VERTEX
  5
ac
  8
Layer_1
  10
916.38153
  20
439.66934
  0
VERTEX
  5
ad
  8
Layer_1
  10
913.49481
  20
441.336
  42
0.22649718
  0
VERTEX
  5
ae
  8
Layer_1
  10
914.23944
  20
434.48209
  0
VERTEX
  5
af
  8
Layer_1
  10
914.40186
  20
434.23013
  0
VERTEX
  5
b0
  8
Layer_1
  10
911.11914
  20
434.80896
  42
0.22649765
  0
VERTEX
  5
b1
  8
Layer_1
  10
914.16309
  20
428.62311
  0
VERTEX
  5
b2
  8
Layer_1
  10
914.40186
  20
428.44186
  0
VERTEX
  5
b3
  8
Layer_1
  10
911.11914
  20
427.86304
  42
0.2264973
  0
VERTEX
  5
b4
  8
Layer_1
  10
916.09521
  20
423.09131
  0
VERTEX
  5
b5
  8
Layer_1
  10
916.38153
  20
423.00266
  0
VERTEX
  5
b6
  8
Layer_1
  10
913.49481
  20
421.336
  42
0.22649728
  0
VERTEX
  5
b7
  8
Layer_1
  10
919.8028
  20
418.55396
  0
VERTEX
  5
b8
  8
Layer_1
  10
920.10217
  20
418.5686
  0
VERTEX
  5
b9
  8
Layer_1
  10
917.95953
  20
416.01511
  42
0.20664746
  0
VERTEX
  5
ba
  8
Layer_1
  10
924.26703
  20
415.35532
  42
0.028334934
  0
VERTEX
  5
bb
  8
Layer_1
  10
925.11499
  20
415.67447
  0
VERTEX
  5
bc
  8
Layer_1
  10
923.97491
  20
412.54214
  0
SEQEND
  0
POLYLINE
  5
be
  8
Layer_1
  62
5
  66
1
  10
0
  20
0
  30
0
  0
VERTEX
  5
be
  8
Layer_1
  10
949.1153
  20
462.41592
  42
0.395273
  0
VERTEX
  5
bf
  8
Layer_1
  10
945.38055
  20
461.97736
  42
0.41420734
  0
VERTEX
  5
c0
  8
Layer_1
  10
945.70813
  20
458.10208
  42
0.39479732
  0
VERTEX
  5
c1
  8
Layer_1
  10
949.46039
  20
458.29343
  42
0.41421303
  0
VERTEX
  5
c2
  8
Layer_1
  10
949.39203
  20
462.18192
  42
0.032957812
  0
VERTEX
  5
c3
  8
Layer_1
  10
949.1153
  20
462.41592
  0
SEQEND
  0
POLYLINE
  5
c5
  8
Layer_1
  62
5
  66
1
  10
0
  20
0
  30
0
  0
VERTEX
  5
c5
  8
Layer_1
  10
926.64832
  20
450.02081
  42
-0.012576189
  0
VERTEX
  5
c6
  8
Layer_1
  10
927.16644
  20
450.68689
  42
-0.31865042
  0
VERTEX
  5
c7
  8
Layer_1
  10
945.88452
  20
455.81876
  42
0.063347536
  0
VERTEX
  5
c8
  8
Layer_1
  10
947.03326
  20
455.55847
  42
0.40256545
  0
VERTEX
  5
c9
  8
Layer_1
  10
952.10541
  20
459.56973
  42
0.38893718
  0
VERTEX
  5
ca
  8
Layer_1
  10
948.51538
  20
464.75433
  42
0.346925
  0
VERTEX
  5
cb
  8
Layer_1
  10
926.94727
  20
452.67068
  0
VERTEX
  5
cc
  8
Layer_1
  10
926.64832
  20
450.02081
  0
SEQEND
  0
CIRCLE
  5
ce
  8
Layer_1
  62
5
  10
930.8092
  20
431.33496
  30
0
  40
1.4999762
  0
POLYLINE
  5
ce
  8
Layer_1
  62
5
  66
1
  10
0
  20
0
  30
0
  0
VERTEX
  5
ce
  8
Layer_1
  10
963.63538
  20
436.41797
  42
-0.27288802
  0
VERTEX
  5
cf
  8
Layer_1
  10
973.48004
  20
430.61267
  42
-0.27288825
  0
VERTEX
  5
d0
  8
Layer_1
  10
973.16449
  20
419.18814
  42
-0.40338869
  0
VERTEX
  5
d1
  8
Layer_1
  10
958.01312
  20
415.42361
  42
-0.40344079
  0
VERTEX
  5
d2
  8
Layer_1
  10
953.69012
  20
430.42673
  42
-0.27794154
  0
VERTEX
  5
d3
  8
Layer_1
  10
963.63538
  20
436.41797
  0
SEQEND
  0
CIRCLE
  5
d5
  8
Layer_1
  62
5
  10
963.62915
  20
425.16696
  30
0
  40
1.4999762
  0
POLYLINE
  5
d5
  8
Layer_1
  62
5
  66
1
  10
0
  20
0
  30
0
  0
VERTEX
  5
d5
  8
Layer_1
  10
987.63538
  20
434.41895
  42
-0.27288802
  0
VERTEX
  5
d6
  8
Layer_1
  10
997.48004
  20
428.61365
  42
-0.27288825
  0
VERTEX
  5
d7
  8
Layer_1
  10
997.16449
  20
417.18912
  42
-0.40338869
  0
VERTEX
  5
d8
  8
Layer_1
  10
982.01312
  20
413.42459
  42
-0.40344079
  0
VERTEX
  5
d9
  8
Layer_1
  10
977.69012
  20
428.4277
  42
-0.27794154
  0
VERTEX
  5
da
  8
Layer_1
  10
987.63538
  20
434.41895
  0
SEQEND
  0
CIRCLE
  5
dc
  8
Layer_1
  62
5
  10
987.62915
  20
423.16797
  30
0
  40
1.4999762
  0
CIRCLE
  5
dc
  8
Layer_1
  62
5
  10
957.71912
  20
447.09998
  30
0
  40
7.5
  0
POLYLINE
  5
dc
  8
Layer_1
  62
5
  66
1
  10
0
  20
0
  30
0
  0
VERTEX
  5
dc
  8
Layer_1
  10
968.06934
  20
442.51047
  0
VERTEX
  5
dd
  8
Layer_1
  10
968.06921
  20
439.84317
  0
SEQEND
  0
POLYLINE
  5
df
  8
Layer_1
  62
5
  66
1
  10
0
  20
0
  30
0
  0
VERTEX
  5
df
  8
Layer_1
  10
968.06921
  20
439.84317
  0
VERTEX
  5
e0
  8
Layer_1
  10
968.41214
  20
439.81162
  0
VERTEX
  5
e1
  8
Layer_1
  10
968.72429
  20
439.78483
  0
VERTEX
  5
e2
  8
Layer_1
  10
969.00696
  20
439.76243
  0
VERTEX
  5
e3
  8
Layer_1
  10
969.26146
  20
439.74406
  0
VERTEX
  5
e4
  8
Layer_1
  10
969.69115
  20
439.71796
  0
VERTEX
  5
e5
  8
Layer_1
  10
970.02379
  20
439.70364
  0
VERTEX
  5
e6
  8
Layer_1
  10
970.26979
  20
439.69818
  0
VERTEX
  5
e7
  8
Layer_1
  10
970.43957
  20
439.6987
  0
VERTEX
  5
e8
  8
Layer_1
  10
970.54355
  20
439.70229
  0
VERTEX
  5
e9
  8
Layer_1
  10
970.59216
  20
439.70605
  0
VERTEX
  5
ea
  8
Layer_1
  10
970.61656
  20
439.70894
  0
VERTEX
  5
eb
  8
Layer_1
  10
970.59216
  20
439.70605
  0
VERTEX
  5
ec
  8
Layer_1
  10
971.03096
  20
439.78395
  0
VERTEX
  5
ed
  8
Layer_1
  10
971.45978
  20
439.87399
  0
VERTEX
  5
ee
  8
Layer_1
  10
971.64132
  20
439.91487
  0
VERTEX
  5
ef
  8
Layer_1
  10
971.78542
  20
439.94837
  0
VERTEX
  5
f0
  8
Layer_1
  10
971.88042
  20
439.97102
  0
VERTEX
  5
f1
  8
Layer_1
  10
971.91467
  20
439.97934
  0
VERTEX
  5
f2
  8
Layer_1
  10
973.22083
  20
440.51532
  0
VERTEX
  5
f3
  8
Layer_1
  10
974.40833
  20
441.29144
  0
VERTEX
  5
f4
  8
Layer_1
  10
975.63562
  20
442.52789
  0
VERTEX
  5
f5
  8
Layer_1
  10
976.46619
  20
443.8465
  0
VERTEX
  5
f6
  8
Layer_1
  10
976.96008
  20
445.13959
  0
VERTEX
  5
f7
  8
Layer_1
  10
977.18896
  20
446.32458
  0
VERTEX
  5
f8
  8
Layer_1
  10
977.18445
  20
448.03009
  0
SEQEND
  0
POLYLINE
  5
fa
  8
Layer_1
  62
5
  66
1
  10
0
  20
0
  30
0
  0
VERTEX
  5
fa
  8
Layer_1
  10
977.18445
  20
448.02893
  0
VERTEX
  5
fb
  8
Layer_1
  10
976.90601
  20
449.3605
  0
VERTEX
  5
fc
  8
Layer_1
  10
976.21082
  20
450.94293
  0
VERTEX
  5
fd
  8
Layer_1
  10
975.52905
  20
451.91956
  0
VERTEX
  5
fe
  8
Layer_1
  10
974.26636
  20
453.13397
  0
VERTEX
  5
ff
  8
Layer_1
  10
973.08545
  20
453.86938
  0
VERTEX
  5
100
  8
Layer_1
  10
971.67688
  20
454.40372
  0
VERTEX
  5
101
  8
Layer_1
  10
970.34753
  20
454.63297
  0
VERTEX
  5
102
  8
Layer_1
  10
969.18445
  20
454.63773
  0
VERTEX
  5
103
  8
Layer_1
  10
968.06921
  20
454.47202
  0
VERTEX
  5
104
  8
Layer_1
  10
968.06921
  20
451.95273
  0
VERTEX
  5
105
  8
Layer_1
  10
969.27808
  20
451.88965
  0
VERTEX
  5
106
  8
Layer_1
  10
970.9386
  20
451.66867
  0
VERTEX
  5
107
  8
Layer_1
  10
972.39026
  20
450.99957
  0
VERTEX
  5
108
  8
Layer_1
  10
973.32434
  20
450.14471
  0
VERTEX
  5
109
  8
Layer_1
  10
974.08411
  20
448.85938
  0
SEQEND
  0
POLYLINE
  5
10b
  8
Layer_1
  62
5
  66
1
  10
0
  20
0
  30
0
  0
VERTEX
  5
10b
  8
Layer_1
  10
974.08374
  20
448.85992
  0
VERTEX
  5
10c
  8
Layer_1
  10
974.4032
  20
447.27969
  0
VERTEX
  5
10d
  8
Layer_1
  10
974.29565
  20
446.15796
  0
VERTEX
  5
10e
  8
Layer_1
  10
973.84436
  20
444.94055
  0
VERTEX
  5
10f
  8
Layer_1
  10
973.82497
  20
444.91343
  0
VERTEX
  5
110
  8
Layer_1
  10
973.77242
  20
444.83977
  0
VERTEX
  5
111
  8
Layer_1
  10
973.69519
  20
444.73116
  0
VERTEX
  5
112
  8
Layer_1
  10
973.60173
  20
444.59916
  0
VERTEX
  5
113
  8
Layer_1
  10
973.39998
  20
444.31133
  0
VERTEX
  5
114
  8
Layer_1
  10
973.23486
  20
444.06888
  0
VERTEX
  5
115
  8
Layer_1
  10
973.14056
  20
443.95699
  0
VERTEX
  5
116
  8
Layer_1
  10
972.99309
  20
443.81777
  0
VERTEX
  5
117
  8
Layer_1
  10
972.80926
  20
443.66249
  0
VERTEX
  5
118
  8
Layer_1
  10
972.60587
  20
443.50246
  0
VERTEX
  5
119
  8
Layer_1
  10
972.39971
  20
443.34897
  0
VERTEX
  5
11a
  8
Layer_1
  10
972.20761
  20
443.21331
  0
VERTEX
  5
11b
  8
Layer_1
  10
972.04635
  20
443.10678
  0
VERTEX
  5
11c
  8
Layer_1
  10
971.93274
  20
443.04068
  0
VERTEX
  5
11d
  8
Layer_1
  10
971.80245
  20
442.98686
  0
VERTEX
  5
11e
  8
Layer_1
  10
971.59862
  20
442.91487
  0
VERTEX
  5
11f
  8
Layer_1
  10
971.34928
  20
442.83252
  0
VERTEX
  5
120
  8
Layer_1
  10
971.08244
  20
442.74762
  0
VERTEX
  5
121
  8
Layer_1
  10
970.82613
  20
442.66799
  0
VERTEX
  5
122
  8
Layer_1
  10
970.60835
  20
442.60144
  0
VERTEX
  5
123
  8
Layer_1
  10
970.45714
  20
442.55578
  0
VERTEX
  5
124
  8
Layer_1
  10
970.40051
  20
442.53882
  0
VERTEX
  5
125
  8
Layer_1
  10
969.14185
  20
442.53058
  0
VERTEX
  5
126
  8
Layer_1
  10
968.39087
  20
442.69104
  0
VERTEX
  5
127
  8
Layer_1
  10
968.06921
  20
442.80008
  0
VERTEX
  5
128
  8
Layer_1
  10
968.06934
  20
442.51047
  0
SEQEND
  0
POLYLINE
  5
12a
  8
Layer_1
  62
5
  66
1
  10
0
  20
0
  30
0
  0
VERTEX
  5
12a
  8
Layer_1
  10
981.25433
  20
459.46402
  42
0.395273
  0
VERTEX
  5
12b
  8
Layer_1
  10
977.64984
  20
460.53546
  42
0.41420734
  0
VERTEX
  5
12c
  8
Layer_1
  10
976.42096
  20
456.84564
  42
0.39479732
  0
VERTEX
  5
12d
  8
Layer_1
  10
979.94397
  20
455.54013
  42
0.41421303
  0
VERTEX
  5
12e
  8
Layer_1
  10
981.41626
  20
459.13974
  42
0.032957813
  0
VERTEX
  5
12f
  8
Layer_1
  10
981.25433
  20
459.46402
  0
SEQEND
  0
POLYLINE
  5
131
  8
Layer_1
  62
5
  66
1
  10
0
  20
0
  30
0
  0
VERTEX
  5
131
  8
Layer_1
  10
955.71893
  20
456.94513
  42
-0.012576189
  0
VERTEX
  5
132
  8
Layer_1
  10
956.45789
  20
457.35257
  42
-0.31865042
  0
VERTEX
  5
133
  8
Layer_1
  10
975.68164
  20
454.67813
  42
0.063347536
  0
VERTEX
  5
134
  8
Layer_1
  10
976.63428
  20
453.98547
  42
0.40256545
  0
VERTEX
  5
135
  8
Layer_1
  10
982.87799
  20
455.66858
  42
0.38893718
  0
VERTEX
  5
136
  8
Layer_1
  10
981.62628
  20
461.84933
  42
0.346925
  0
VERTEX
  5
137
  8
Layer_1
  10
957.03967
  20
459.26175
  0
VERTEX
  5
138
  8
Layer_1
  10
955.71893
  20
456.94513
  0
SEQEND
  0
CIRCLE
  5
13a
  8
Layer_1
  62
5
  10
986.64917
  20
444.14896
  30
0
  40
7.5
  0
POLYLINE
  5
13a
  8
Layer_1
  62
5
  66
1
  10
0
  20
0
  30
0
  0
VERTEX
  5
13a
  8
Layer_1
  10
996.99438
  20
439.55954
  0
VERTEX
  5
13b
  8
Layer_1
  10
996.99426
  20
436.89224
  0
SEQEND
  0
POLYLINE
  5
13d
  8
Layer_1
  62
5
  66
1
  10
0
  20
0
  30
0
  0
VERTEX
  5
13d
  8
Layer_1
  10
996.99426
  20
436.89224
  0
VERTEX
  5
13e
  8
Layer_1
  10
997.33719
  20
436.86069
  0
VERTEX
  5
13f
  8
Layer_1
  10
997.64934
  20
436.8339
  0
VERTEX
  5
140
  8
Layer_1
  10
997.93201
  20
436.8115
  0
VERTEX
  5
141
  8
Layer_1
  10
998.18651
  20
436.79313
  0
VERTEX
  5
142
  8
Layer_1
  10
998.6162
  20
436.76703
  0
VERTEX
  5
143
  8
Layer_1
  10
998.94884
  20
436.75271
  0
VERTEX
  5
144
  8
Layer_1
  10
999.19483
  20
436.74725
  0
VERTEX
  5
145
  8
Layer_1
  10
999.36461
  20
436.74777
  0
VERTEX
  5
146
  8
Layer_1
  10
999.4686
  20
436.75136
  0
VERTEX
  5
147
  8
Layer_1
  10
999.51721
  20
436.75513
  0
VERTEX
  5
148
  8
Layer_1
  10
999.54161
  20
436.75801
  0
VERTEX
  5
149
  8
Layer_1
  10
999.51721
  20
436.75513
  0
VERTEX
  5
14a
  8
Layer_1
  10
999.95601
  20
436.83303
  0
VERTEX
  5
14b
  8
Layer_1
  10
1000.3848
  20
436.92306
  0
VERTEX
  5
14c
  8
Layer_1
  10
1000.5664
  20
436.96394
  0
VERTEX
  5
14d
  8
Layer_1
  10
1000.7105
  20
436.99744
  0
VERTEX
  5
14e
  8
Layer_1
  10
1000.8055
  20
437.02009
  0
VERTEX
  5
14f
  8
Layer_1
  10
1000.8397
  20
437.02841
  0
VERTEX
  5
150
  8
Layer_1
  10
1002.1459
  20
437.56439
  0
VERTEX
  5
151
  8
Layer_1
  10
1003.3334
  20
438.34052
  0
VERTEX
  5
152
  8
Layer_1
  10
1004.5607
  20
439.57697
  0
VERTEX
  5
153
  8
Layer_1
  10
1005.3912
  20
440.89557
  0
VERTEX
  5
154
  8
Layer_1
  10
1005.8851
  20
442.18866
  0
VERTEX
  5
155
  8
Layer_1
  10
1006.114
  20
443.37366
  0
VERTEX
  5
156
  8
Layer_1
  10
1006.1095
  20
445.07916
  0
SEQEND
  0
POLYLINE
  5
158
  8
Layer_1
  62
5
  66
1
  10
0
  20
0
  30
0
  0
VERTEX
  5
158
  8
Layer_1
  10
1006.1095
  20
445.078
  0
VERTEX
  5
159
  8
Layer_1
  10
1005.8311
  20
446.40958
  0
VERTEX
  5
15a
  8
Layer_1
  10
1005.1359
  20
447.992
  0
VERTEX
  5
15b
  8
Layer_1
  10
1004.4541
  20
448.96863
  0
VERTEX
  5
15c
  8
Layer_1
  10
1003.1914
  20
450.18304
  0
VERTEX
  5
15d
  8
Layer_1
  10
1002.0105
  20
450.91846
  0
VERTEX
  5
15e
  8
Layer_1
  10
1000.6019
  20
451.45279
  0
VERTEX
  5
15f
  8
Layer_1
  10
999.27258
  20
451.68204
  0
VERTEX
  5
160
  8
Layer_1
  10
998.1095
  20
451.6868
  0
VERTEX
  5
161
  8
Layer_1
  10
996.99426
  20
451.52109
  0
VERTEX
  5
162
  8
Layer_1
  10
996.99426
  20
449.0018
  0
VERTEX
  5
163
  8
Layer_1
  10
998.20313
  20
448.93872
  0
VERTEX
  5
164
  8
Layer_1
  10
999.86365
  20
448.71774
  0
VERTEX
  5
165
  8
Layer_1
  10
1001.3153
  20
448.04865
  0
VERTEX
  5
166
  8
Layer_1
  10
1002.2494
  20
447.19379
  0
VERTEX
  5
167
  8
Layer_1
  10
1003.0092
  20
445.90845
  0
SEQEND
  0
POLYLINE
  5
169
  8
Layer_1
  62
5
  66
1
  10
0
  20
0
  30
0
  0
VERTEX
  5
169
  8
Layer_1
  10
1003.0088
  20
445.909
  0
VERTEX
  5
16a
  8
Layer_1
  10
1003.3282
  20
444.32877
  0
VERTEX
  5
16b
  8
Layer_1
  10
1003.2207
  20
443.20703
  0
VERTEX
  5
16c
  8
Layer_1
  10
1002.7694
  20
441.98962
  0
VERTEX
  5
16d
  8
Layer_1
  10
1002.75
  20
441.9625
  0
VERTEX
  5
16e
  8
Layer_1
  10
1002.6975
  20
441.88884
  0
VERTEX
  5
16f
  8
Layer_1
  10
1002.6202
  20
441.78023
  0
VERTEX
  5
170
  8
Layer_1
  10
1002.5268
  20
441.64824
  0
VERTEX
  5
171
  8
Layer_1
  10
1002.325
  20
441.3604
  0
VERTEX
  5
172
  8
Layer_1
  10
1002.1599
  20
441.11795
  0
VERTEX
  5
173
  8
Layer_1
  10
1002.0656
  20
441.00607
  0
VERTEX
  5
174
  8
Layer_1
  10
1001.9181
  20
440.86684
  0
VERTEX
  5
175
  8
Layer_1
  10
1001.7343
  20
440.71156
  0
VERTEX
  5
176
  8
Layer_1
  10
1001.5309
  20
440.55153
  0
VERTEX
  5
177
  8
Layer_1
  10
1001.3248
  20
440.39804
  0
VERTEX
  5
178
  8
Layer_1
  10
1001.1327
  20
440.26238
  0
VERTEX
  5
179
  8
Layer_1
  10
1000.9714
  20
440.15585
  0
VERTEX
  5
17a
  8
Layer_1
  10
1000.8578
  20
440.08975
  0
VERTEX
  5
17b
  8
Layer_1
  10
1000.7275
  20
440.03594
  0
VERTEX
  5
17c
  8
Layer_1
  10
1000.5237
  20
439.96394
  0
VERTEX
  5
17d
  8
Layer_1
  10
1000.2743
  20
439.88159
  0
VERTEX
  5
17e
  8
Layer_1
  10
1000.0075
  20
439.7967
  0
VERTEX
  5
17f
  8
Layer_1
  10
999.75118
  20
439.71706
  0
VERTEX
  5
180
  8
Layer_1
  10
999.5334
  20
439.65051
  0
VERTEX
  5
181
  8
Layer_1
  10
999.38219
  20
439.60485
  0
VERTEX
  5
182
  8
Layer_1
  10
999.32556
  20
439.58789
  0
VERTEX
  5
183
  8
Layer_1
  10
998.06689
  20
439.57965
  0
VERTEX
  5
184
  8
Layer_1
  10
997.31592
  20
439.74011
  0
VERTEX
  5
185
  8
Layer_1
  10
996.99426
  20
439.84915
  0
VERTEX
  5
186
  8
Layer_1
  10
996.99438
  20
439.55954
  0
SEQEND
  0
CIRCLE
  5
188
  8
Layer_1
  62
5
  10
957.71912
  20
447.09998
  30
0
  40
1.4999762
  0
CIRCLE
  5
188
  8
Layer_1
  62
5
  10
986.64917
  20
444.14896
  30
0
  40
1.4999762
  0
POLYLINE
  5
188
  8
Layer_1
  62
5
  66
1
  10
0
  20
0
  30
0
  0
VERTEX
  5
188
  8
Layer_1
  10
923.98492
  20
466.54211
  42
0.086758591
  0
VERTEX
  5
189
  8
Layer_1
  10
926.7403
  20
466.57068
  42
0.1466012
  0
VERTEX
  5
18a
  8
Layer_1
  10
930.82532
  20
468.66931
  0
VERTEX
  5
18b
  8
Layer_1
  10
930.82532
  20
465.33597
  42
0.23636689
  0
VERTEX
  5
18c
  8
Layer_1
  10
936.52563
  20
469.67444
  0
VERTEX
  5
18d
  8
Layer_1
  10
937.66571
  20
466.54211
  42
0.23636642
  0
VERTEX
  5
18e
  8
Layer_1
  10
941.53845
  20
472.56857
  0
VERTEX
  5
18f
  8
Layer_1
  10
943.68103
  20
470.01508
  42
0.23636674
  0
VERTEX
  5
190
  8
Layer_1
  10
945.25903
  20
477.00262
  0
VERTEX
  5
191
  8
Layer_1
  10
948.14581
  20
475.33597
  42
0.23636749
  0
VERTEX
  5
192
  8
Layer_1
  10
947.23877
  20
482.44183
  0
VERTEX
  5
193
  8
Layer_1
  10
950.52148
  20
481.86301
  42
0.23636704
  0
VERTEX
  5
194
  8
Layer_1
  10
947.23877
  20
488.2301
  0
VERTEX
  5
195
  8
Layer_1
  10
950.52148
  20
488.80893
  42
0.2363674
  0
VERTEX
  5
196
  8
Layer_1
  10
945.25903
  20
493.66931
  0
VERTEX
  5
197
  8
Layer_1
  10
948.14581
  20
495.33597
  42
0.2363667
  0
VERTEX
  5
198
  8
Layer_1
  10
941.53845
  20
498.10336
  0
VERTEX
  5
199
  8
Layer_1
  10
943.68103
  20
500.65686
  42
0.23636713
  0
VERTEX
  5
19a
  8
Layer_1
  10
936.52563
  20
500.9975
  0
VERTEX
  5
19b
  8
Layer_1
  10
937.66571
  20
504.12982
  42
0.23636639
  0
VERTEX
  5
19c
  8
Layer_1
  10
930.82532
  20
502.00262
  0
VERTEX
  5
19d
  8
Layer_1
  10
930.82532
  20
505.33597
  42
0.23636727
  0
VERTEX
  5
19e
  8
Layer_1
  10
925.125
  20
500.9975
  0
VERTEX
  5
19f
  8
Layer_1
  10
923.98492
  20
504.12982
  42
0.22649704
  0
VERTEX
  5
1a0
  8
Layer_1
  10
920.14978
  20
498.40076
  0
VERTEX
  5
1a1
  8
Layer_1
  10
920.11218
  20
498.10336
  0
VERTEX
  5
1a2
  8
Layer_1
  10
917.96954
  20
500.65686
  42
0.22649743
  0
VERTEX
  5
1a3
  8
Layer_1
  10
916.32513
  20
493.96161
  0
VERTEX
  5
1a4
  8
Layer_1
  10
916.39154
  20
493.66931
  0
VERTEX
  5
1a5
  8
Layer_1
  10
913.50482
  20
495.33597
  42
0.22649718
  0
VERTEX
  5
1a6
  8
Layer_1
  10
914.24945
  20
488.48206
  0
VERTEX
  5
1a7
  8
Layer_1
  10
914.41187
  20
488.2301
  0
VERTEX
  5
1a8
  8
Layer_1
  10
911.12915
  20
488.80893
  42
0.22649765
  0
VERTEX
  5
1a9
  8
Layer_1
  10
914.1731
  20
482.62308
  0
VERTEX
  5
1aa
  8
Layer_1
  10
914.41187
  20
482.44183
  0
VERTEX
  5
1ab
  8
Layer_1
  10
911.12915
  20
481.86301
  42
0.2264973
  0
VERTEX
  5
1ac
  8
Layer_1
  10
916.10522
  20
477.09128
  0
VERTEX
  5
1ad
  8
Layer_1
  10
916.39154
  20
477.00262
  0
VERTEX
  5
1ae
  8
Layer_1
  10
913.50482
  20
475.33597
  42
0.22649728
  0
VERTEX
  5
1af
  8
Layer_1
  10
919.81281
  20
472.55392
  0
VERTEX
  5
1b0
  8
Layer_1
  10
920.11218
  20
472.56857
  0
VERTEX
  5
1b1
  8
Layer_1
  10
917.96954
  20
470.01508
  42
0.20664746
  0
VERTEX
  5
1b2
  8
Layer_1
  10
924.27704
  20
469.35529
  42
0.028334934
  0
VERTEX
  5
1b3
  8
Layer_1
  10
925.125
  20
469.67444
  0
VERTEX
  5
1b4
  8
Layer_1
  10
923.98492
  20
466.54211
  0
SEQEND
  0
POLYLINE
  5
1b6
  8
Layer_1
  62
5
  66
1
  10
0
  20
0
  30
0
  0
VERTEX
  5
1b6
  8
Layer_1
  10
949.12531
  20
516.41589
  42
0.395273
  0
VERTEX
  5
1b7
  8
Layer_1
  10
945.39056
  20
515.97729
  42
0.41420734
  0
VERTEX
  5
1b8
  8
Layer_1
  10
945.71814
  20
512.10205
  42
0.39479732
  0
VERTEX
  5
1b9
  8
Layer_1
  10
949.4704
  20
512.2934
  42
0.41421303
  0
VERTEX
  5
1ba
  8
Layer_1
  10
949.40204
  20
516.18188
  42
0.032957812
  0
VERTEX
  5
1bb
  8
Layer_1
  10
949.12531
  20
516.41589
  0
SEQEND
  0
POLYLINE
  5
1bd
  8
Layer_1
  62
5
  66
1
  10
0
  20
0
  30
0
  0
VERTEX
  5
1bd
  8
Layer_1
  10
926.65833
  20
504.02078
  42
-0.012576189
  0
VERTEX
  5
1be
  8
Layer_1
  10
927.17645
  20
504.68689
  42
-0.31865042
  0
VERTEX
  5
1bf
  8
Layer_1
  10
945.89453
  20
509.81873
  42
0.063347536
  0
VERTEX
  5
1c0
  8
Layer_1
  10
947.04327
  20
509.55844
  42
0.40256545
  0
VERTEX
  5
1c1
  8
Layer_1
  10
952.11542
  20
513.5697
  42
0.38893718
  0
VERTEX
  5
1c2
  8
Layer_1
  10
948.52539
  20
518.75427
  42
0.346925
  0
VERTEX
  5
1c3
  8
Layer_1
  10
926.95728
  20
506.67065
  0
VERTEX
  5
1c4
  8
Layer_1
  10
926.65833
  20
504.02078
  0
SEQEND
  0
CIRCLE
  5
1c6
  8
Layer_1
  62
5
  10
930.81909
  20
485.33496
  30
0
  40
1.4999762
  0
POLYLINE
  5
1c6
  8
Layer_1
  62
5
  66
1
  10
0
  20
0
  30
0
  0
VERTEX
  5
1c6
  8
Layer_1
  10
963.64526
  20
490.41797
  42
-0.27288802
  0
VERTEX
  5
1c7
  8
Layer_1
  10
973.48993
  20
484.61267
  42
-0.27288825
  0
VERTEX
  5
1c8
  8
Layer_1
  10
973.17438
  20
473.18814
  42
-0.40338869
  0
VERTEX
  5
1c9
  8
Layer_1
  10
958.02301
  20
469.42361
  42
-0.40344079
  0
VERTEX
  5
1ca
  8
Layer_1
  10
953.70001
  20
484.42673
  42
-0.27794154
  0
VERTEX
  5
1cb
  8
Layer_1
  10
963.64526
  20
490.41797
  0
SEQEND
  0
CIRCLE
  5
1cd
  8
Layer_1
  62
5
  10
963.63916
  20
479.16696
  30
0
  40
1.4999762
  0
POLYLINE
  5
1cd
  8
Layer_1
  62
5
  66
1
  10
0
  20
0
  30
0
  0
VERTEX
  5
1cd
  8
Layer_1
  10
987.64526
  20
488.41898
  42
-0.27288802
  0
VERTEX
  5
1ce
  8
Layer_1
  10
997.48993
  20
482.61368
  42
-0.27288825
  0
VERTEX
  5
1cf
  8
Layer_1
  10
997.17438
  20
471.18915
  42
-0.40338869
  0
VERTEX
  5
1d0
  8
Layer_1
  10
982.02301
  20
467.42462
  42
-0.40344079
  0
VERTEX
  5
1d1
  8
Layer_1
  10
977.70001
  20
482.42773
  42
-0.27794154
  0
VERTEX
  5
1d2
  8
Layer_1
  10
987.64526
  20
488.41898
  0
SEQEND
  0
CIRCLE
  5
1d4
  8
Layer_1
  62
5
  10
987.63916
  20
477.16797
  30
0
  40
1.4999762
  0
CIRCLE
  5
1d4
  8
Layer_1
  62
5
  10
957.72913
  20
501.09998
  30
0
  40
7.5
  0
POLYLINE
  5
1d4
  8
Layer_1
  62
5
  66
1
  10
0
  20
0
  30
0
  0
VERTEX
  5
1d4
  8
Layer_1
  10
968.08191
  20
496.51035
  0
VERTEX
  5
1d5
  8
Layer_1
  10
968.08179
  20
493.84305
  0
SEQEND
  0
POLYLINE
  5
1d7
  8
Layer_1
  62
5
  66
1
  10
0
  20
0
  30
0
  0
VERTEX
  5
1d7
  8
Layer_1
  10
968.08179
  20
493.84305
  0
VERTEX
  5
1d8
  8
Layer_1
  10
968.42471
  20
493.8115
  0
VERTEX
  5
1d9
  8
Layer_1
  10
968.73686
  20
493.78471
  0
VERTEX
  5
1da
  8
Layer_1
  10
969.01953
  20
493.76231
  0
VERTEX
  5
1db
  8
Layer_1
  10
969.27403
  20
493.74394
  0
VERTEX
  5
1dc
  8
Layer_1
  10
969.70373
  20
493.71784
  0
VERTEX
  5
1dd
  8
Layer_1
  10
970.03636
  20
493.70351
  0
VERTEX
  5
1de
  8
Layer_1
  10
970.28236
  20
493.69806
  0
VERTEX
  5
1df
  8
Layer_1
  10
970.45214
  20
493.69858
  0
VERTEX
  5
1e0
  8
Layer_1
  10
970.55612
  20
493.70217
  0
VERTEX
  5
1e1
  8
Layer_1
  10
970.60474
  20
493.70593
  0
VERTEX
  5
1e2
  8
Layer_1
  10
970.62914
  20
493.70882
  0
VERTEX
  5
1e3
  8
Layer_1
  10
970.60474
  20
493.70593
  0
VERTEX
  5
1e4
  8
Layer_1
  10
971.04353
  20
493.78383
  0
VERTEX
  5
1e5
  8
Layer_1
  10
971.47235
  20
493.87386
  0
VERTEX
  5
1e6
  8
Layer_1
  10
971.65389
  20
493.91475
  0
VERTEX
  5
1e7
  8
Layer_1
  10
971.79799
  20
493.94825
  0
VERTEX
  5
1e8
  8
Layer_1
  10
971.89299
  20
493.9709
  0
VERTEX
  5
1e9
  8
Layer_1
  10
971.92725
  20
493.97922
  0
VERTEX
  5
1ea
  8
Layer_1
  10
973.2334
  20
494.5152
  0
VERTEX
  5
1eb
  8
Layer_1
  10
974.4209
  20
495.29132
  0
VERTEX
  5
1ec
  8
Layer_1
  10
975.64819
  20
496.52777
  0
VERTEX
  5
1ed
  8
Layer_1
  10
976.47876
  20
497.84637
  0
VERTEX
  5
1ee
  8
Layer_1
  10
976.97266
  20
499.13947
  0
VERTEX
  5
1ef
  8
Layer_1
  10
977.20154
  20
500.32446
  0
VERTEX
  5
1f0
  8
Layer_1
  10
977.19702
  20
502.02997
  0
SEQEND
  0
POLYLINE
  5
1f2
  8
Layer_1
  62
5
  66
1
  10
0
  20
0
  30
0
  0
VERTEX
  5
1f2
  8
Layer_1
  10
977.19702
  20
502.02881
  0
VERTEX
  5
1f3
  8
Layer_1
  10
976.91858
  20
503.36038
  0
VERTEX
  5
1f4
  8
Layer_1
  10
976.22339
  20
504.94281
  0
VERTEX
  5
1f5
  8
Layer_1
  10
975.54163
  20
505.91943
  0
VERTEX
  5
1f6
  8
Layer_1
  10
974.27893
  20
507.13385
  0
VERTEX
  5
1f7
  8
Layer_1
  10
973.09802
  20
507.86926
  0
VERTEX
  5
1f8
  8
Layer_1
  10
971.68945
  20
508.40359
  0
VERTEX
  5
1f9
  8
Layer_1
  10
970.36011
  20
508.63284
  0
VERTEX
  5
1fa
  8
Layer_1
  10
969.19702
  20
508.6376
  0
VERTEX
  5
1fb
  8
Layer_1
  10
968.08179
  20
508.47189
  0
VERTEX
  5
1fc
  8
Layer_1
  10
968.08179
  20
505.95261
  0
VERTEX
  5
1fd
  8
Layer_1
  10
969.29065
  20
505.88953
  0
VERTEX
  5
1fe
  8
Layer_1
  10
970.95117
  20
505.66855
  0
VERTEX
  5
1ff
  8
Layer_1
  10
972.40283
  20
504.99945
  0
VERTEX
  5
200
  8
Layer_1
  10
973.33691
  20
504.14459
  0
VERTEX
  5
201
  8
Layer_1
  10
974.09668
  20
502.85925
  0
SEQEND
  0
POLYLINE
  5
203
  8
Layer_1
  62
5
  66
1
  10
0
  20
0
  30
0
  0
VERTEX
  5
203
  8
Layer_1
  10
974.09631
  20
502.8598
  0
VERTEX
  5
204
  8
Layer_1
  10
974.41577
  20
501.27957
  0
VERTEX
  5
205
  8
Layer_1
  10
974.30823
  20
500.15784
  0
VERTEX
  5
206
  8
Layer_1
  10
973.85693
  20
498.94043
  0
VERTEX
  5
207
  8
Layer_1
  10
973.83754
  20
498.91331
  0
VERTEX
  5
208
  8
Layer_1
  10
973.78499
  20
498.83965
  0
VERTEX
  5
209
  8
Layer_1
  10
973.70776
  20
498.73104
  0
VERTEX
  5
20a
  8
Layer_1
  10
973.6143
  20
498.59904
  0
VERTEX
  5
20b
  8
Layer_1
  10
973.41255
  20
498.31121
  0
VERTEX
  5
20c
  8
Layer_1
  10
973.24744
  20
498.06876
  0
VERTEX
  5
20d
  8
Layer_1
  10
973.15313
  20
497.95687
  0
VERTEX
  5
20e
  8
Layer_1
  10
973.00566
  20
497.81764
  0
VERTEX
  5
20f
  8
Layer_1
  10
972.82183
  20
497.66237
  0
VERTEX
  5
210
  8
Layer_1
  10
972.61844
  20
497.50233
  0
VERTEX
  5
211
  8
Layer_1
  10
972.41229
  20
497.34884
  0
VERTEX
  5
212
  8
Layer_1
  10
972.22018
  20
497.21319
  0
VERTEX
  5
213
  8
Layer_1
  10
972.05892
  20
497.10666
  0
VERTEX
  5
214
  8
Layer_1
  10
971.94531
  20
497.04056
  0
VERTEX
  5
215
  8
Layer_1
  10
971.81502
  20
496.98674
  0
VERTEX
  5
216
  8
Layer_1
  10
971.6112
  20
496.91475
  0
VERTEX
  5
217
  8
Layer_1
  10
971.36185
  20
496.8324
  0
VERTEX
  5
218
  8
Layer_1
  10
971.09502
  20
496.7475
  0
VERTEX
  5
219
  8
Layer_1
  10
970.8387
  20
496.66787
  0
VERTEX
  5
21a
  8
Layer_1
  10
970.62093
  20
496.60132
  0
VERTEX
  5
21b
  8
Layer_1
  10
970.46972
  20
496.55565
  0
VERTEX
  5
21c
  8
Layer_1
  10
970.41309
  20
496.5387
  0
VERTEX
  5
21d
  8
Layer_1
  10
969.15442
  20
496.53046
  0
VERTEX
  5
21e
  8
Layer_1
  10
968.40344
  20
496.69092
  0
VERTEX
  5
21f
  8
Layer_1
  10
968.08179
  20
496.79996
  0
VERTEX
  5
220
  8
Layer_1
  10
968.08191
  20
496.51035
  0
SEQEND
  0
POLYLINE
  5
222
  8
Layer_1
  62
5
  66
1
  10
0
  20
0
  30
0
  0
VERTEX
  5
222
  8
Layer_1
  10
981.26434
  20
513.46399
  42
0.395273
  0
VERTEX
  5
223
  8
Layer_1
  10
977.65985
  20
514.53546
  42
0.41420734
  0
VERTEX
  5
224
  8
Layer_1
  10
976.43097
  20
510.84564
  42
0.39479732
  0
VERTEX
  5
225
  8
Layer_1
  10
979.95398
  20
509.54013
  42
0.41421303
  0
VERTEX
  5
226
  8
Layer_1
  10
981.42627
  20
513.13977
  42
0.032957812
  0
VERTEX
  5
227
  8
Layer_1
  10
981.26434
  20
513.46399
  0
SEQEND
  0
POLYLINE
  5
229
  8
Layer_1
  62
5
  66
1
  10
0
  20
0
  30
0
  0
VERTEX
  5
229
  8
Layer_1
  10
955.72894
  20
510.94513
  42
-0.012576189
  0
VERTEX
  5
22a
  8
Layer_1
  10
956.4679
  20
511.35257
  42
-0.31865042
  0
VERTEX
  5
22b
  8
Layer_1
  10
975.69165
  20
508.67813
  42
0.063347536
  0
VERTEX
  5
22c
  8
Layer_1
  10
976.64429
  20
507.98547
  42
0.40256545
  0
VERTEX
  5
22d
  8
Layer_1
  10
982.888
  20
509.66858
  42
0.38893718
  0
VERTEX
  5
22e
  8
Layer_1
  10
981.63629
  20
515.8493
  42
0.346925
  0
VERTEX
  5
22f
  8
Layer_1
  10
957.04968
  20
513.26172
  0
VERTEX
  5
230
  8
Layer_1
  10
955.72894
  20
510.94513
  0
SEQEND
  0
CIRCLE
  5
232
  8
Layer_1
  62
5
  10
986.65918
  20
498.14896
  30
0
  40
7.5
  0
POLYLINE
  5
232
  8
Layer_1
  62
5
  66
1
  10
0
  20
0
  30
0
  0
VERTEX
  5
232
  8
Layer_1
  10
997.00696
  20
493.55948
  0
VERTEX
  5
233
  8
Layer_1
  10
997.00684
  20
490.89218
  0
SEQEND
  0
POLYLINE
  5
235
  8
Layer_1
  62
5
  66
1
  10
0
  20
0
  30
0
  0
VERTEX
  5
235
  8
Layer_1
  10
997.00684
  20
490.89218
  0
VERTEX
  5
236
  8
Layer_1
  10
997.34976
  20
490.86063
  0
VERTEX
  5
237
  8
Layer_1
  10
997.66191
  20
490.83384
  0
VERTEX
  5
238
  8
Layer_1
  10
997.94458
  20
490.81144
  0
VERTEX
  5
239
  8
Layer_1
  10
998.19908
  20
490.79307
  0
VERTEX
  5
23a
  8
Layer_1
  10
998.62878
  20
490.76697
  0
VERTEX
  5
23b
  8
Layer_1
  10
998.96141
  20
490.75265
  0
VERTEX
  5
23c
  8
Layer_1
  10
999.20741
  20
490.74719
  0
VERTEX
  5
23d
  8
Layer_1
  10
999.37719
  20
490.74771
  0
VERTEX
  5
23e
  8
Layer_1
  10
999.48117
  20
490.7513
  0
VERTEX
  5
23f
  8
Layer_1
  10
999.52979
  20
490.75507
  0
VERTEX
  5
240
  8
Layer_1
  10
999.55418
  20
490.75795
  0
VERTEX
  5
241
  8
Layer_1
  10
999.52979
  20
490.75507
  0
VERTEX
  5
242
  8
Layer_1
  10
999.96858
  20
490.83297
  0
VERTEX
  5
243
  8
Layer_1
  10
1000.3974
  20
490.923
  0
VERTEX
  5
244
  8
Layer_1
  10
1000.5789
  20
490.96388
  0
VERTEX
  5
245
  8
Layer_1
  10
1000.723
  20
490.99738
  0
VERTEX
  5
246
  8
Layer_1
  10
1000.818
  20
491.02003
  0
VERTEX
  5
247
  8
Layer_1
  10
1000.8523
  20
491.02835
  0
VERTEX
  5
248
  8
Layer_1
  10
1002.1584
  20
491.56433
  0
VERTEX
  5
249
  8
Layer_1
  10
1003.3459
  20
492.34045
  0
VERTEX
  5
24a
  8
Layer_1
  10
1004.5732
  20
493.5769
  0
VERTEX
  5
24b
  8
Layer_1
  10
1005.4038
  20
494.89551
  0
VERTEX
  5
24c
  8
Layer_1
  10
1005.8977
  20
496.1886
  0
VERTEX
  5
24d
  8
Layer_1
  10
1006.1266
  20
497.3736
  0
VERTEX
  5
24e
  8
Layer_1
  10
1006.1221
  20
499.0791
  0
SEQEND
  0
POLYLINE
  5
250
  8
Layer_1
  62
5
  66
1
  10
0
  20
0
  30
0
  0
VERTEX
  5
250
  8
Layer_1
  10
1006.1221
  20
499.07794
  0
VERTEX
  5
251
  8
Layer_1
  10
1005.8436
  20
500.40952
  0
VERTEX
  5
252
  8
Layer_1
  10
1005.1484
  20
501.99194
  0
VERTEX
  5
253
  8
Layer_1
  10
1004.4667
  20
502.96857
  0
VERTEX
  5
254
  8
Layer_1
  10
1003.204
  20
504.18298
  0
VERTEX
  5
255
  8
Layer_1
  10
1002.0231
  20
504.9184
  0
VERTEX
  5
256
  8
Layer_1
  10
1000.6145
  20
505.45273
  0
VERTEX
  5
257
  8
Layer_1
  10
999.28516
  20
505.68198
  0
VERTEX
  5
258
  8
Layer_1
  10
998.12207
  20
505.68674
  0
VERTEX
  5
259
  8
Layer_1
  10
997.00684
  20
505.52103
  0
VERTEX
  5
25a
  8
Layer_1
  10
997.00684
  20
503.00174
  0
VERTEX
  5
25b
  8
Layer_1
  10
998.2157
  20
502.93866
  0
VERTEX
  5
25c
  8
Layer_1
  10
999.87622
  20
502.71768
  0
VERTEX
  5
25d
  8
Layer_1
  10
1001.3279
  20
502.04858
  0
VERTEX
  5
25e
  8
Layer_1
  10
1002.262
  20
501.19373
  0
VERTEX
  5
25f
  8
Layer_1
  10
1003.0217
  20
499.90839
  0
SEQEND
  0
POLYLINE
  5
261
  8
Layer_1
  62
5
  66
1
  10
0
  20
0
  30
0
  0
VERTEX
  5
261
  8
Layer_1
  10
1003.0214
  20
499.90894
  0
VERTEX
  5
262
  8
Layer_1
  10
1003.3408
  20
498.3287
  0
VERTEX
  5
263
  8
Layer_1
  10
1003.2333
  20
497.20697
  0
VERTEX
  5
264
  8
Layer_1
  10
1002.782
  20
495.98956
  0
VERTEX
  5
265
  8
Layer_1
  10
1002.7626
  20
495.96244
  0
VERTEX
  5
266
  8
Layer_1
  10
1002.71
  20
495.88878
  0
VERTEX
  5
267
  8
Layer_1
  10
1002.6328
  20
495.78017
  0
VERTEX
  5
268
  8
Layer_1
  10
1002.5394
  20
495.64817
  0
VERTEX
  5
269
  8
Layer_1
  10
1002.3376
  20
495.36034
  0
VERTEX
  5
26a
  8
Layer_1
  10
1002.1725
  20
495.11789
  0
VERTEX
  5
26b
  8
Layer_1
  10
1002.0782
  20
495.006
  0
VERTEX
  5
26c
  8
Layer_1
  10
1001.9307
  20
494.86678
  0
VERTEX
  5
26d
  8
Layer_1
  10
1001.7469
  20
494.7115
  0
VERTEX
  5
26e
  8
Layer_1
  10
1001.5435
  20
494.55147
  0
VERTEX
  5
26f
  8
Layer_1
  10
1001.3373
  20
494.39798
  0
VERTEX
  5
270
  8
Layer_1
  10
1001.1452
  20
494.26232
  0
VERTEX
  5
271
  8
Layer_1
  10
1000.984
  20
494.15579
  0
VERTEX
  5
272
  8
Layer_1
  10
1000.8704
  20
494.08969
  0
VERTEX
  5
273
  8
Layer_1
  10
1000.7401
  20
494.03587
  0
VERTEX
  5
274
  8
Layer_1
  10
1000.5362
  20
493.96388
  0
VERTEX
  5
275
  8
Layer_1
  10
1000.2869
  20
493.88153
  0
VERTEX
  5
276
  8
Layer_1
  10
1000.0201
  20
493.79663
  0
VERTEX
  5
277
  8
Layer_1
  10
999.76375
  20
493.717
  0
VERTEX
  5
278
  8
Layer_1
  10
999.54598
  20
493.65045
  0
VERTEX
  5
279
  8
Layer_1
  10
999.39477
  20
493.60479
  0
VERTEX
  5
27a
  8
Layer_1
  10
999.33813
  20
493.58783
  0
VERTEX
  5
27b
  8
Layer_1
  10
998.07947
  20
493.57959
  0
VERTEX
  5
27c
  8
Layer_1
  10
997.32849
  20
493.74005
  0
VERTEX
  5
27d
  8
Layer_1
  10
997.00684
  20
493.84909
  0
VERTEX
  5
27e
  8
Layer_1
  10
997.00696
  20
493.55948
  0
SEQEND
  0
CIRCLE
  5
280
  8
Layer_1
  62
5
  10
957.72913
  20
501.09998
  30
0
  40
1.4999762
  0
CIRCLE
  5
280
  8
Layer_1
  62
5
  10
986.65918
  20
498.14896
  30
0
  40
1.4999762
  0
POLYLINE
  5
280
  8
Layer_1
  62
5
  66
1
  10
0
  20
0
  30
0
  0
VERTEX
  5
280
  8
Layer_1
  10
1016.6049
  20
454.37411
  42
0.086758591
  0
VERTEX
  5
281
  8
Layer_1
  10
1019.3603
  20
454.40268
  42
0.1466012
  0
VERTEX
  5
282
  8
Layer_1
  10
1023.4453
  20
456.50131
  0
VERTEX
  5
283
  8
Layer_1
  10
1023.4453
  20
453.16797
  42
0.23636689
  0
VERTEX
  5
284
  8
Layer_1
  10
1029.1456
  20
457.50644
  0
VERTEX
  5
285
  8
Layer_1
  10
1030.2856
  20
454.37411
  42
0.23636642
  0
VERTEX
  5
286
  8
Layer_1
  10
1034.1584
  20
460.40057
  0
VERTEX
  5
287
  8
Layer_1
  10
1036.301
  20
457.84708
  42
0.23636674
  0
VERTEX
  5
288
  8
Layer_1
  10
1037.879
  20
464.83463
  0
VERTEX
  5
289
  8
Layer_1
  10
1040.7659
  20
463.16797
  42
0.23636749
  0
VERTEX
  5
28a
  8
Layer_1
  10
1039.8588
  20
470.27383
  0
VERTEX
  5
28b
  8
Layer_1
  10
1043.1415
  20
469.69501
  42
0.23636704
  0
VERTEX
  5
28c
  8
Layer_1
  10
1039.8588
  20
476.0621
  0
VERTEX
  5
28d
  8
Layer_1
  10
1043.1415
  20
476.64093
  42
0.2363674
  0
VERTEX
  5
28e
  8
Layer_1
  10
1037.879
  20
481.50131
  0
VERTEX
  5
28f
  8
Layer_1
  10
1040.7659
  20
483.16797
  42
0.2363667
  0
VERTEX
  5
290
  8
Layer_1
  10
1034.1584
  20
485.93536
  0
VERTEX
  5
291
  8
Layer_1
  10
1036.301
  20
488.48886
  42
0.23636713
  0
VERTEX
  5
292
  8
Layer_1
  10
1029.1456
  20
488.82953
  0
VERTEX
  5
293
  8
Layer_1
  10
1030.2856
  20
491.96182
  42
0.23636639
  0
VERTEX
  5
294
  8
Layer_1
  10
1023.4453
  20
489.83463
  0
VERTEX
  5
295
  8
Layer_1
  10
1023.4453
  20
493.16797
  42
0.23636727
  0
VERTEX
  5
296
  8
Layer_1
  10
1017.745
  20
488.82953
  0
VERTEX
  5
297
  8
Layer_1
  10
1016.6049
  20
491.96182
  42
0.22649704
  0
VERTEX
  5
298
  8
Layer_1
  10
1012.7698
  20
486.23276
  0
VERTEX
  5
299
  8
Layer_1
  10
1012.7322
  20
485.93536
  0
VERTEX
  5
29a
  8
Layer_1
  10
1010.5895
  20
488.48886
  42
0.22649743
  0
VERTEX
  5
29b
  8
Layer_1
  10
1008.9451
  20
481.79361
  0
VERTEX
  5
29c
  8
Layer_1
  10
1009.0115
  20
481.50131
  0
VERTEX
  5
29d
  8
Layer_1
  10
1006.1248
  20
483.16797
  42
0.22649718
  0
VERTEX
  5
29e
  8
Layer_1
  10
1006.8694
  20
476.31406
  0
VERTEX
  5
29f
  8
Layer_1
  10
1007.0319
  20
476.0621
  0
VERTEX
  5
2a0
  8
Layer_1
  10
1003.7491
  20
476.64093
  42
0.22649765
  0
VERTEX
  5
2a1
  8
Layer_1
  10
1006.7931
  20
470.45508
  0
VERTEX
  5
2a2
  8
Layer_1
  10
1007.0319
  20
470.27383
  0
VERTEX
  5
2a3
  8
Layer_1
  10
1003.7491
  20
469.69501
  42
0.2264973
  0
VERTEX
  5
2a4
  8
Layer_1
  10
1008.7252
  20
464.92328
  0
VERTEX
  5
2a5
  8
Layer_1
  10
1009.0115
  20
464.83463
  0
VERTEX
  5
2a6
  8
Layer_1
  10
1006.1248
  20
463.16797
  42
0.22649728
  0
VERTEX
  5
2a7
  8
Layer_1
  10
1012.4328
  20
460.38593
  0
VERTEX
  5
2a8
  8
Layer_1
  10
1012.7322
  20
460.40057
  0
VERTEX
  5
2a9
  8
Layer_1
  10
1010.5895
  20
457.84708
  42
0.20664746
  0
VERTEX
  5
2aa
  8
Layer_1
  10
1016.897
  20
457.18729
  42
0.028334934
  0
VERTEX
  5
2ab
  8
Layer_1
  10
1017.745
  20
457.50644
  0
VERTEX
  5
2ac
  8
Layer_1
  10
1016.6049
  20
454.37411
  0
SEQEND
  0
CIRCLE
  5
2ae
  8
Layer_1
  62
5
  10
1023.4382
  20
473.16696
  30
0
  40
1.4999762
  0
POLYLINE
  5
2ae
  8
Layer_1
  62
5
  66
1
  10
0
  20
0
  30
0
  0
VERTEX
  5
2ae
  8
Layer_1
  10
1056.2643
  20
478.24997
  42
-0.27288802
  0
VERTEX
  5
2af
  8
Layer_1
  10
1066.109
  20
472.44467
  42
-0.27288825
  0
VERTEX
  5
2b0
  8
Layer_1
  10
1065.7935
  20
461.02014
  42
-0.40338869
  0
VERTEX
  5
2b1
  8
Layer_1
  10
1050.642
  20
457.25562
  42
-0.40344079
  0
VERTEX
  5
2b2
  8
Layer_1
  10
1046.319
  20
472.25873
  42
-0.27794154
  0
VERTEX
  5
2b3
  8
Layer_1
  10
1056.2643
  20
478.24997
  0
SEQEND
  0
CIRCLE
  5
2b5
  8
Layer_1
  62
5
  10
1056.2582
  20
466.99896
  30
0
  40
1.4999762
  0
POLYLINE
  5
2b5
  8
Layer_1
  62
5
  66
1
  10
0
  20
0
  30
0
  0
VERTEX
  5
2b5
  8
Layer_1
  10
1080.2643
  20
476.25098
  42
-0.27288802
  0
VERTEX
  5
2b6
  8
Layer_1
  10
1090.109
  20
470.44568
  42
-0.27288825
  0
VERTEX
  5
2b7
  8
Layer_1
  10
1089.7935
  20
459.02115
  42
-0.40338869
  0
VERTEX
  5
2b8
  8
Layer_1
  10
1074.642
  20
455.25662
  42
-0.40344079
  0
VERTEX
  5
2b9
  8
Layer_1
  10
1070.319
  20
470.25974
  42
-0.27794154
  0
VERTEX
  5
2ba
  8
Layer_1
  10
1080.2643
  20
476.25098
  0
SEQEND
  0
CIRCLE
  5
2bc
  8
Layer_1
  62
5
  10
1080.2582
  20
464.99997
  30
0
  40
1.4999762
  0
POLYLINE
  5
2bc
  8
Layer_1
  62
5
  66
1
  10
0
  20
0
  30
0
  0
VERTEX
  5
2bc
  8
Layer_1
  10
1020.6049
  20
412.37411
  42
0.086758591
  0
VERTEX
  5
2bd
  8
Layer_1
  10
1023.3603
  20
412.40268
  42
0.1466012
  0
VERTEX
  5
2be
  8
Layer_1
  10
1027.4453
  20
414.50131
  0
VERTEX
  5
2bf
  8
Layer_1
  10
1027.4453
  20
411.16797
  42
0.23636689
  0
VERTEX
  5
2c0
  8
Layer_1
  10
1033.1456
  20
415.50644
  0
VERTEX
  5
2c1
  8
Layer_1
  10
1034.2856
  20
412.37411
  42
0.23636642
  0
VERTEX
  5
2c2
  8
Layer_1
  10
1038.1584
  20
418.40057
  0
VERTEX
  5
2c3
  8
Layer_1
  10
1040.301
  20
415.84708
  42
0.23636674
  0
VERTEX
  5
2c4
  8
Layer_1
  10
1041.879
  20
422.83463
  0
VERTEX
  5
2c5
  8
Layer_1
  10
1044.7659
  20
421.16797
  42
0.23636749
  0
VERTEX
  5
2c6
  8
Layer_1
  10
1043.8588
  20
428.27383
  0
VERTEX
  5
2c7
  8
Layer_1
  10
1047.1415
  20
427.69501
  42
0.23636704
  0
VERTEX
  5
2c8
  8
Layer_1
  10
1043.8588
  20
434.0621
  0
VERTEX
  5
2c9
  8
Layer_1
  10
1047.1415
  20
434.64093
  42
0.2363674
  0
VERTEX
  5
2ca
  8
Layer_1
  10
1041.879
  20
439.50131
  0
VERTEX
  5
2cb
  8
Layer_1
  10
1044.7659
  20
441.16797
  42
0.2363667
  0
VERTEX
  5
2cc
  8
Layer_1
  10
1038.1584
  20
443.93536
  0
VERTEX
  5
2cd
  8
Layer_1
  10
1040.301
  20
446.48886
  42
0.23636713
  0
VERTEX
  5
2ce
  8
Layer_1
  10
1033.1456
  20
446.82953
  0
VERTEX
  5
2cf
  8
Layer_1
  10
1034.2856
  20
449.96182
  42
0.23636639
  0
VERTEX
  5
2d0
  8
Layer_1
  10
1027.4453
  20
447.83463
  0
VERTEX
  5
2d1
  8
Layer_1
  10
1027.4453
  20
451.16797
  42
0.23636727
  0
VERTEX
  5
2d2
  8
Layer_1
  10
1021.745
  20
446.82953
  0
VERTEX
  5
2d3
  8
Layer_1
  10
1020.6049
  20
449.96182
  42
0.22649704
  0
VERTEX
  5
2d4
  8
Layer_1
  10
1016.7698
  20
444.23276
  0
VERTEX
  5
2d5
  8
Layer_1
  10
1016.7322
  20
443.93536
  0
VERTEX
  5
2d6
  8
Layer_1
  10
1014.5895
  20
446.48886
  42
0.22649743
  0
VERTEX
  5
2d7
  8
Layer_1
  10
1012.9451
  20
439.79361
  0
VERTEX
  5
2d8
  8
Layer_1
  10
1013.0115
  20
439.50131
  0
VERTEX
  5
2d9
  8
Layer_1
  10
1010.1248
  20
441.16797
  42
0.22649718
  0
VERTEX
  5
2da
  8
Layer_1
  10
1010.8694
  20
434.31406
  0
VERTEX
  5
2db
  8
Layer_1
  10
1011.0319
  20
434.0621
  0
VERTEX
  5
2dc
  8
Layer_1
  10
1007.7491
  20
434.64093
  42
0.22649765
  0
VERTEX
  5
2dd
  8
Layer_1
  10
1010.7931
  20
428.45508
  0
VERTEX
  5
2de
  8
Layer_1
  10
1011.0319
  20
428.27383
  0
VERTEX
  5
2df
  8
Layer_1
  10
1007.7491
  20
427.69501
  42
0.2264973
  0
VERTEX
  5
2e0
  8
Layer_1
  10
1012.7252
  20
422.92328
  0
VERTEX
  5
2e1
  8
Layer_1
  10
1013.0115
  20
422.83463
  0
VERTEX
  5
2e2
  8
Layer_1
  10
1010.1248
  20
421.16797
  42
0.22649728
  0
VERTEX
  5
2e3
  8
Layer_1
  10
1016.4328
  20
418.38593
  0
VERTEX
  5
2e4
  8
Layer_1
  10
1016.7322
  20
418.40057
  0
VERTEX
  5
2e5
  8
Layer_1
  10
1014.5895
  20
415.84708
  42
0.20664746
  0
VERTEX
  5
2e6
  8
Layer_1
  10
1020.897
  20
415.18729
  42
0.028334934
  0
VERTEX
  5
2e7
  8
Layer_1
  10
1021.745
  20
415.50644
  0
VERTEX
  5
2e8
  8
Layer_1
  10
1020.6049
  20
412.37411
  0
SEQEND
  0
CIRCLE
  5
2ea
  8
Layer_1
  62
5
  10
1027.4382
  20
431.16696
  30
0
  40
1.4999762
  0
POLYLINE
  5
2ea
  8
Layer_1
  62
5
  66
1
  10
0
  20
0
  30
0
  0
VERTEX
  5
2ea
  8
Layer_1
  10
1060.2643
  20
436.24994
  42
-0.27288802
  0
VERTEX
  5
2eb
  8
Layer_1
  10
1070.109
  20
430.44464
  42
-0.27288825
  0
VERTEX
  5
2ec
  8
Layer_1
  10
1069.7935
  20
419.02011
  42
-0.40338869
  0
VERTEX
  5
2ed
  8
Layer_1
  10
1054.642
  20
415.25558
  42
-0.40344079
  0
VERTEX
  5
2ee
  8
Layer_1
  10
1050.319
  20
430.2587
  42
-0.27794154
  0
VERTEX
  5
2ef
  8
Layer_1
  10
1060.2643
  20
436.24994
  0
SEQEND
  0
CIRCLE
  5
2f1
  8
Layer_1
  62
5
  10
1060.2582
  20
424.99896
  30
0
  40
1.4999762
  0
POLYLINE
  5
2f1
  8
Layer_1
  62
5
  66
1
  10
0
  20
0
  30
0
  0
VERTEX
  5
2f1
  8
Layer_1
  10
1084.2643
  20
434.25098
  42
-0.27288802
  0
VERTEX
  5
2f2
  8
Layer_1
  10
1094.109
  20
428.44568
  42
-0.27288825
  0
VERTEX
  5
2f3
  8
Layer_1
  10
1093.7935
  20
417.02115
  42
-0.40338869
  0
VERTEX
  5
2f4
  8
Layer_1
  10
1078.642
  20
413.25662
  42
-0.40344079
  0
VERTEX
  5
2f5
  8
Layer_1
  10
1074.319
  20
428.25974
  42
-0.27794154
  0
VERTEX
  5
2f6
  8
Layer_1
  10
1084.2643
  20
434.25098
  0
SEQEND
  0
CIRCLE
  5
2f8
  8
Layer_1
  62
5
  10
1084.2582
  20
422.99997
  30
0
  40
1.4999762
  0
CIRCLE
  5
2f8
  8
Layer_0
  62
0
  10
29.912865
  20
12.468384
  30
0
  40
9.5
  0
CIRCLE
  5
2f8
  8
Layer_0
  62
0
  10
30.439842
  20
189.54041
  30
0
  40
3.1868303
  0
CIRCLE
  5
2f8
  8
Layer_0
  62
0
  10
29.912865
  20
57.74939
  30
0
  40
3.1868303
  0
POLYLINE
  5
2f8
  8
Layer_0
  62
0
  66
1
  10
0
  20
0
  30
0
  0
VERTEX
  5
2f8
  8
Layer_0
  10
17.163525
  20
3.0793756
  0
VERTEX
  5
2f9
  8
Layer_0
  10
17.178602
  20
2.7070971
  0
VERTEX
  5
2fa
  8
Layer_0
  10
17.223346
  20
2.3397057
  0
VERTEX
  5
2fb
  8
Layer_0
  10
17.297029
  20
1.9776559
  0
VERTEX
  5
2fc
  8
Layer_0
  10
17.398924
  20
1.6214023
  0
VERTEX
  5
2fd
  8
Layer_0
  10
17.528302
  20
1.2713993
  0
VERTEX
  5
2fe
  8
Layer_0
  10
17.684435
  20
0.92810167
  0
VERTEX
  5
2ff
  8
Layer_0
  10
17.866596
  20
0.59196382
  0
VERTEX
  5
300
  8
Layer_0
  10
18.074056
  20
0.26344033
  0
VERTEX
  5
301
  8
Layer_0
  10
18.561962
  20
-0.36894535
  0
VERTEX
  5
302
  8
Layer_0
  10
19.14233
  20
-0.96541895
  0
VERTEX
  5
303
  8
Layer_0
  10
19.809335
  20
-1.5223441
  0
VERTEX
  5
304
  8
Layer_0
  10
20.557154
  20
-2.0360843
  0
VERTEX
  5
305
  8
Layer_0
  10
21.379961
  20
-2.5030031
  0
VERTEX
  5
306
  8
Layer_0
  10
22.271934
  20
-2.9194643
  0
VERTEX
  5
307
  8
Layer_0
  10
23.227248
  20
-3.2818313
  0
VERTEX
  5
308
  8
Layer_0
  10
24.240079
  20
-3.5864677
  0
VERTEX
  5
309
  8
Layer_0
  10
25.304603
  20
-3.8297372
  0
VERTEX
  5
30a
  8
Layer_0
  10
26.414996
  20
-4.0080033
  0
VERTEX
  5
30b
  8
Layer_0
  10
27.565434
  20
-4.1176296
  0
VERTEX
  5
30c
  8
Layer_0
  10
28.750093
  20
-4.1549797
  0
SEQEND
  0
POLYLINE
  5
30e
  8
Layer_0
  62
0
  66
1
  10
0
  20
0
  30
0
  0
VERTEX
  5
30e
  8
Layer_0
  10
31.978225
  20
-4.1549793
  0
VERTEX
  5
30f
  8
Layer_0
  10
33.162885
  20
-4.1176289
  0
VERTEX
  5
310
  8
Layer_0
  10
34.313324
  20
-4.0080023
  0
VERTEX
  5
311
  8
Layer_0
  10
35.423717
  20
-3.829736
  0
VERTEX
  5
312
  8
Layer_0
  10
36.488241
  20
-3.5864662
  0
VERTEX
  5
313
  8
Layer_0
  10
37.501072
  20
-3.2818295
  0
VERTEX
  5
314
  8
Layer_0
  10
38.456386
  20
-2.9194623
  0
VERTEX
  5
315
  8
Layer_0
  10
39.348359
  20
-2.5030009
  0
VERTEX
  5
316
  8
Layer_0
  10
40.171166
  20
-2.0360818
  0
VERTEX
  5
317
  8
Layer_0
  10
40.918984
  20
-1.5223414
  0
VERTEX
  5
318
  8
Layer_0
  10
41.585988
  20
-0.96541615
  0
VERTEX
  5
319
  8
Layer_0
  10
42.166356
  20
-0.36894241
  0
VERTEX
  5
31a
  8
Layer_0
  10
42.654262
  20
0.26344339
  0
VERTEX
  5
31b
  8
Layer_0
  10
42.861721
  20
0.59196693
  0
VERTEX
  5
31c
  8
Layer_0
  10
43.043882
  20
0.92810483
  0
VERTEX
  5
31d
  8
Layer_0
  10
43.200015
  20
1.2714025
  0
VERTEX
  5
31e
  8
Layer_0
  10
43.329393
  20
1.6214055
  0
VERTEX
  5
31f
  8
Layer_0
  10
43.431287
  20
1.9776592
  0
VERTEX
  5
320
  8
Layer_0
  10
43.50497
  20
2.339709
  0
VERTEX
  5
321
  8
Layer_0
  10
43.549714
  20
2.7071004
  0
VERTEX
  5
322
  8
Layer_0
  10
43.56479
  20
3.0793789
  0
SEQEND
  0
POLYLINE
  5
324
  8
Layer_0
  62
0
  66
1
  10
0
  20
0
  30
0
  0
VERTEX
  5
324
  8
Layer_0
  10
17.163475
  20
221.58936
  0
VERTEX
  5
325
  8
Layer_0
  10
17.163521
  20
3.0793762
  0
SEQEND
  0
POLYLINE
  5
327
  8
Layer_0
  62
0
  66
1
  10
0
  20
0
  30
0
  0
VERTEX
  5
327
  8
Layer_0
  10
43.564789
  20
3.0793762
  0
VERTEX
  5
328
  8
Layer_0
  10
43.564743
  20
221.58936
  0
SEQEND
  0
POLYLINE
  5
32a
  8
Layer_0
  62
0
  66
1
  10
0
  20
0
  30
0
  0
VERTEX
  5
32a
  8
Layer_0
  10
43.564744
  20
221.58937
  0
VERTEX
  5
32b
  8
Layer_0
  10
43.549667
  20
221.96165
  0
VERTEX
  5
32c
  8
Layer_0
  10
43.504924
  20
222.32904
  0
VERTEX
  5
32d
  8
Layer_0
  10
43.43124
  20
222.69109
  0
VERTEX
  5
32e
  8
Layer_0
  10
43.329346
  20
223.04735
  0
VERTEX
  5
32f
  8
Layer_0
  10
43.199968
  20
223.39735
  0
VERTEX
  5
330
  8
Layer_0
  10
43.043835
  20
223.74065
  0
VERTEX
  5
331
  8
Layer_0
  10
42.861674
  20
224.07678
  0
VERTEX
  5
332
  8
Layer_0
  10
42.654214
  20
224.40531
  0
VERTEX
  5
333
  8
Layer_0
  10
42.166308
  20
225.03769
  0
VERTEX
  5
334
  8
Layer_0
  10
41.58594
  20
225.63417
  0
VERTEX
  5
335
  8
Layer_0
  10
40.918935
  20
226.19109
  0
VERTEX
  5
336
  8
Layer_0
  10
40.171117
  20
226.70483
  0
VERTEX
  5
337
  8
Layer_0
  10
39.34831
  20
227.17175
  0
VERTEX
  5
338
  8
Layer_0
  10
38.456337
  20
227.58821
  0
VERTEX
  5
339
  8
Layer_0
  10
37.501023
  20
227.95058
  0
VERTEX
  5
33a
  8
Layer_0
  10
36.488192
  20
228.25522
  0
VERTEX
  5
33b
  8
Layer_0
  10
35.423668
  20
228.49849
  0
VERTEX
  5
33c
  8
Layer_0
  10
34.313274
  20
228.67675
  0
VERTEX
  5
33d
  8
Layer_0
  10
33.162836
  20
228.78638
  0
VERTEX
  5
33e
  8
Layer_0
  10
31.978176
  20
228.82373
  0
SEQEND
  0
POLYLINE
  5
340
  8
Layer_0
  62
0
  66
1
  10
0
  20
0
  30
0
  0
VERTEX
  5
340
  8
Layer_0
  10
31.978172
  20
228.82373
  0
VERTEX
  5
341
  8
Layer_0
  10
28.750046
  20
228.82373
  0
SEQEND
  0
POLYLINE
  5
343
  8
Layer_0
  62
0
  66
1
  10
0
  20
0
  30
0
  0
VERTEX
  5
343
  8
Layer_0
  10
28.750044
  20
228.82373
  0
VERTEX
  5
344
  8
Layer_0
  10
27.565385
  20
228.78638
  0
VERTEX
  5
345
  8
Layer_0
  10
26.414947
  20
228.67675
  0
VERTEX
  5
346
  8
Layer_0
  10
25.304554
  20
228.49848
  0
VERTEX
  5
347
  8
Layer_0
  10
24.24003
  20
228.25521
  0
VERTEX
  5
348
  8
Layer_0
  10
23.227199
  20
227.95058
  0
VERTEX
  5
349
  8
Layer_0
  10
22.271885
  20
227.58821
  0
VERTEX
  5
34a
  8
Layer_0
  10
21.379913
  20
227.17175
  0
VERTEX
  5
34b
  8
Layer_0
  10
20.557105
  20
226.70483
  0
VERTEX
  5
34c
  8
Layer_0
  10
19.809287
  20
226.19109
  0
VERTEX
  5
34d
  8
Layer_0
  10
19.142282
  20
225.63416
  0
VERTEX
  5
34e
  8
Layer_0
  10
18.561914
  20
225.03769
  0
VERTEX
  5
34f
  8
Layer_0
  10
18.074008
  20
224.40531
  0
VERTEX
  5
350
  8
Layer_0
  10
17.866548
  20
224.07678
  0
VERTEX
  5
351
  8
Layer_0
  10
17.684388
  20
223.74064
  0
VERTEX
  5
352
  8
Layer_0
  10
17.528254
  20
223.39735
  0
VERTEX
  5
353
  8
Layer_0
  10
17.398876
  20
223.04734
  0
VERTEX
  5
354
  8
Layer_0
  10
17.296982
  20
222.69109
  0
VERTEX
  5
355
  8
Layer_0
  10
17.223299
  20
222.32904
  0
VERTEX
  5
356
  8
Layer_0
  10
17.178555
  20
221.96165
  0
VERTEX
  5
357
  8
Layer_0
  10
17.163479
  20
221.58937
  0
SEQEND
  0
POLYLINE
  5
359
  8
Layer_0
  62
0
  66
1
  10
0
  20
0
  30
0
  0
VERTEX
  5
359
  8
Layer_0
  10
28.750099
  20
-4.1549683
  0
VERTEX
  5
35a
  8
Layer_0
  10
31.978226
  20
-4.1549683
  0
SEQEND
  0
CIRCLE
  5
35c
  8
Layer_0
  62
0
  10
29.912865
  20
213.46838
  30
0
  40
9.5
  0
CIRCLE
  5
35c
  8
Layer_0
  62
0
  10
60.461876
  20
14.602356
  30
0
  40
9.5
  0
CIRCLE
  5
35c
  8
Layer_0
  62
0
  10
60.988853
  20
191.67438
  30
0
  40
3.1868303
  0
CIRCLE
  5
35c
  8
Layer_0
  62
0
  10
60.461876
  20
59.883392
  30
0
  40
3.1868303
  0
POLYLINE
  5
35c
  8
Layer_0
  62
0
  66
1
  10
0
  20
0
  30
0
  0
VERTEX
  5
35c
  8
Layer_0
  10
47.713452
  20
5.2134088
  0
VERTEX
  5
35d
  8
Layer_0
  10
47.728529
  20
4.8411303
  0
VERTEX
  5
35e
  8
Layer_0
  10
47.773272
  20
4.4737389
  0
VERTEX
  5
35f
  8
Layer_0
  10
47.846956
  20
4.1116891
  0
VERTEX
  5
360
  8
Layer_0
  10
47.94885
  20
3.7554355
  0
VERTEX
  5
361
  8
Layer_0
  10
48.078228
  20
3.4054325
  0
VERTEX
  5
362
  8
Layer_0
  10
48.234362
  20
3.0621349
  0
VERTEX
  5
363
  8
Layer_0
  10
48.416523
  20
2.725997
  0
VERTEX
  5
364
  8
Layer_0
  10
48.623983
  20
2.3974735
  0
VERTEX
  5
365
  8
Layer_0
  10
49.111889
  20
1.7650879
  0
VERTEX
  5
366
  8
Layer_0
  10
49.692257
  20
1.1686143
  0
VERTEX
  5
367
  8
Layer_0
  10
50.359262
  20
0.61168915
  0
VERTEX
  5
368
  8
Layer_0
  10
51.107081
  20
0.097948947
  0
VERTEX
  5
369
  8
Layer_0
  10
51.929888
  20
-0.36896994
  0
VERTEX
  5
36a
  8
Layer_0
  10
52.821861
  20
-0.78543109
  0
VERTEX
  5
36b
  8
Layer_0
  10
53.777175
  20
-1.1477981
  0
VERTEX
  5
36c
  8
Layer_0
  10
54.790006
  20
-1.4524345
  0
VERTEX
  5
36d
  8
Layer_0
  10
55.85453
  20
-1.695704
  0
VERTEX
  5
36e
  8
Layer_0
  10
56.964923
  20
-1.8739701
  0
VERTEX
  5
36f
  8
Layer_0
  10
58.115361
  20
-1.9835964
  0
VERTEX
  5
370
  8
Layer_0
  10
59.30002
  20
-2.0209465
  0
SEQEND
  0
POLYLINE
  5
372
  8
Layer_0
  62
0
  66
1
  10
0
  20
0
  30
0
  0
VERTEX
  5
372
  8
Layer_0
  10
62.528152
  20
-2.0209461
  0
VERTEX
  5
373
  8
Layer_0
  10
63.712812
  20
-1.9835957
  0
VERTEX
  5
374
  8
Layer_0
  10
64.86325
  20
-1.8739691
  0
VERTEX
  5
375
  8
Layer_0
  10
65.973644
  20
-1.6957028
  0
VERTEX
  5
376
  8
Layer_0
  10
67.038168
  20
-1.452433
  0
VERTEX
  5
377
  8
Layer_0
  10
68.050999
  20
-1.1477963
  0
VERTEX
  5
378
  8
Layer_0
  10
69.006313
  20
-0.78542907
  0
VERTEX
  5
379
  8
Layer_0
  10
69.898285
  20
-0.3689677
  0
VERTEX
  5
37a
  8
Layer_0
  10
70.721093
  20
0.097951393
  0
VERTEX
  5
37b
  8
Layer_0
  10
71.468911
  20
0.61169178
  0
VERTEX
  5
37c
  8
Layer_0
  10
72.135915
  20
1.1686171
  0
VERTEX
  5
37d
  8
Layer_0
  10
72.716282
  20
1.7650908
  0
VERTEX
  5
37e
  8
Layer_0
  10
73.204188
  20
2.3974766
  0
VERTEX
  5
37f
  8
Layer_0
  10
73.411648
  20
2.7260001
  0
VERTEX
  5
380
  8
Layer_0
  10
73.593809
  20
3.062138
  0
VERTEX
  5
381
  8
Layer_0
  10
73.749942
  20
3.4054357
  0
VERTEX
  5
382
  8
Layer_0
  10
73.87932
  20
3.7554387
  0
VERTEX
  5
383
  8
Layer_0
  10
73.981214
  20
4.1116924
  0
VERTEX
  5
384
  8
Layer_0
  10
74.054897
  20
4.4737422
  0
VERTEX
  5
385
  8
Layer_0
  10
74.099641
  20
4.8411336
  0
VERTEX
  5
386
  8
Layer_0
  10
74.114717
  20
5.2134121
  0
SEQEND
  0
POLYLINE
  5
388
  8
Layer_0
  62
0
  66
1
  10
0
  20
0
  30
0
  0
VERTEX
  5
388
  8
Layer_0
  10
47.713402
  20
223.72339
  0
VERTEX
  5
389
  8
Layer_0
  10
47.713448
  20
5.2134094
  0
SEQEND
  0
POLYLINE
  5
38b
  8
Layer_0
  62
0
  66
1
  10
0
  20
0
  30
0
  0
VERTEX
  5
38b
  8
Layer_0
  10
74.114716
  20
5.2134094
  0
VERTEX
  5
38c
  8
Layer_0
  10
74.11467
  20
223.72339
  0
SEQEND
  0
POLYLINE
  5
38e
  8
Layer_0
  62
0
  66
1
  10
0
  20
0
  30
0
  0
VERTEX
  5
38e
  8
Layer_0
  10
74.114671
  20
223.72341
  0
VERTEX
  5
38f
  8
Layer_0
  10
74.099594
  20
224.09568
  0
VERTEX
  5
390
  8
Layer_0
  10
74.05485
  20
224.46308
  0
VERTEX
  5
391
  8
Layer_0
  10
73.981167
  20
224.82513
  0
VERTEX
  5
392
  8
Layer_0
  10
73.879273
  20
225.18138
  0
VERTEX
  5
393
  8
Layer_0
  10
73.749895
  20
225.53138
  0
VERTEX
  5
394
  8
Layer_0
  10
73.593761
  20
225.87468
  0
VERTEX
  5
395
  8
Layer_0
  10
73.411601
  20
226.21082
  0
VERTEX
  5
396
  8
Layer_0
  10
73.204141
  20
226.53934
  0
VERTEX
  5
397
  8
Layer_0
  10
72.716234
  20
227.17173
  0
VERTEX
  5
398
  8
Layer_0
  10
72.135867
  20
227.7682
  0
VERTEX
  5
399
  8
Layer_0
  10
71.468862
  20
228.32513
  0
VERTEX
  5
39a
  8
Layer_0
  10
70.721044
  20
228.83887
  0
VERTEX
  5
39b
  8
Layer_0
  10
69.898236
  20
229.30578
  0
VERTEX
  5
39c
  8
Layer_0
  10
69.006264
  20
229.72225
  0
VERTEX
  5
39d
  8
Layer_0
  10
68.05095
  20
230.08461
  0
VERTEX
  5
39e
  8
Layer_0
  10
67.038119
  20
230.38925
  0
VERTEX
  5
39f
  8
Layer_0
  10
65.973594
  20
230.63252
  0
VERTEX
  5
3a0
  8
Layer_0
  10
64.863201
  20
230.81079
  0
VERTEX
  5
3a1
  8
Layer_0
  10
63.712762
  20
230.92041
  0
VERTEX
  5
3a2
  8
Layer_0
  10
62.528103
  20
230.95776
  0
SEQEND
  0
POLYLINE
  5
3a4
  8
Layer_0
  62
0
  66
1
  10
0
  20
0
  30
0
  0
VERTEX
  5
3a4
  8
Layer_0
  10
62.528099
  20
230.95776
  0
VERTEX
  5
3a5
  8
Layer_0
  10
59.299973
  20
230.95776
  0
SEQEND
  0
POLYLINE
  5
3a7
  8
Layer_0
  62
0
  66
1
  10
0
  20
0
  30
0
  0
VERTEX
  5
3a7
  8
Layer_0
  10
59.29997
  20
230.95776
  0
VERTEX
  5
3a8
  8
Layer_0
  10
58.115312
  20
230.92041
  0
VERTEX
  5
3a9
  8
Layer_0
  10
56.964874
  20
230.81078
  0
VERTEX
  5
3aa
  8
Layer_0
  10
55.854481
  20
230.63252
  0
VERTEX
  5
3ab
  8
Layer_0
  10
54.789957
  20
230.38925
  0
VERTEX
  5
3ac
  8
Layer_0
  10
53.777126
  20
230.08461
  0
VERTEX
  5
3ad
  8
Layer_0
  10
52.821812
  20
229.72224
  0
VERTEX
  5
3ae
  8
Layer_0
  10
51.929839
  20
229.30578
  0
VERTEX
  5
3af
  8
Layer_0
  10
51.107032
  20
228.83886
  0
VERTEX
  5
3b0
  8
Layer_0
  10
50.359214
  20
228.32512
  0
VERTEX
  5
3b1
  8
Layer_0
  10
49.692209
  20
227.7682
  0
VERTEX
  5
3b2
  8
Layer_0
  10
49.111841
  20
227.17172
  0
VERTEX
  5
3b3
  8
Layer_0
  10
48.623935
  20
226.53934
  0
VERTEX
  5
3b4
  8
Layer_0
  10
48.416475
  20
226.21081
  0
VERTEX
  5
3b5
  8
Layer_0
  10
48.234314
  20
225.87468
  0
VERTEX
  5
3b6
  8
Layer_0
  10
48.078181
  20
225.53138
  0
VERTEX
  5
3b7
  8
Layer_0
  10
47.948803
  20
225.18138
  0
VERTEX
  5
3b8
  8
Layer_0
  10
47.846909
  20
224.82512
  0
VERTEX
  5
3b9
  8
Layer_0
  10
47.773226
  20
224.46307
  0
VERTEX
  5
3ba
  8
Layer_0
  10
47.728482
  20
224.09568
  0
VERTEX
  5
3bb
  8
Layer_0
  10
47.713406
  20
223.7234
  0
SEQEND
  0
POLYLINE
  5
3bd
  8
Layer_0
  62
0
  66
1
  10
0
  20
0
  30
0
  0
VERTEX
  5
3bd
  8
Layer_0
  10
59.300026
  20
-2.0209351
  0
VERTEX
  5
3be
  8
Layer_0
  10
62.528152
  20
-2.0209351
  0
SEQEND
  0
CIRCLE
  5
3c0
  8
Layer_0
  62
0
  10
60.461876
  20
215.60242
  30
0
  40
9.5
  0
CIRCLE
  5
3c0
  8
Layer_0
  62
0
  10
111.56588
  20
55.234375
  30
0
  40
9.1500006
  0
CIRCLE
  5
3c0
  8
Layer_0
  62
0
  10
111.56588
  20
55.234375
  30
0
  40
16.750002
  0
CIRCLE
  5
3c0
  8
Layer_0
  62
0
  10
147.04489
  20
56.830383
  30
0
  40
9.1500006
  0
CIRCLE
  5
3c0
  8
Layer_0
  62
0
  10
147.04489
  20
56.830383
  30
0
  40
16.750002
  0
CIRCLE
  5
3c0
  8
Layer_0
  62
0
  10
109.91286
  20
19.701355
  30
0
  40
9.1500006
  0
CIRCLE
  5
3c0
  8
Layer_0
  62
0
  10
109.91286
  20
19.701355
  30
0
  40
16.750002
  0
CIRCLE
  5
3c0
  8
Layer_0
  62
0
  10
145.3909
  20
21.297363
  30
0
  40
9.1500006
  0
CIRCLE
  5
3c0
  8
Layer_0
  62
0
  10
145.3909
  20
21.297363
  30
0
  40
16.750002
  0
POLYLINE
  5
3c0
  8
Layer_1
  62
5
  66
1
  10
0
  20
0
  30
0
  0
VERTEX
  5
3c0
  8
Layer_1
  10
106.01248
  20
75.574188
  0
VERTEX
  5
3c1
  8
Layer_1
  10
106.27887
  20
75.577682
  0
VERTEX
  5
3c2
  8
Layer_1
  10
106.43958
  20
75.582047
  0
VERTEX
  5
3c3
  8
Layer_1
  10
106.56854
  20
75.58876
  0
VERTEX
  5
3c4
  8
Layer_1
  10
106.8316
  20
75.605499
  0
VERTEX
  5
3c5
  8
Layer_1
  10
106.99182
  20
75.618011
  0
VERTEX
  5
3c6
  8
Layer_1
  10
107.12357
  20
75.631561
  0
VERTEX
  5
3c7
  8
Layer_1
  10
107.38297
  20
75.661407
  0
VERTEX
  5
3c8
  8
Layer_1
  10
107.54245
  20
75.682068
  0
VERTEX
  5
3c9
  8
Layer_1
  10
107.66696
  20
75.70134
  0
VERTEX
  5
3ca
  8
Layer_1
  10
107.92245
  20
75.743729
  0
VERTEX
  5
3cb
  8
Layer_1
  10
108.08066
  20
75.772263
  0
VERTEX
  5
3cc
  8
Layer_1
  10
108.20789
  20
75.798523
  0
VERTEX
  5
3cd
  8
Layer_1
  10
108.45892
  20
75.853317
  0
VERTEX
  5
3ce
  8
Layer_1
  10
108.61536
  20
75.88974
  0
VERTEX
  5
3cf
  8
Layer_1
  10
108.73395
  20
75.920441
  0
VERTEX
  5
3d0
  8
Layer_1
  10
108.98035
  20
75.987091
  0
VERTEX
  5
3d1
  8
Layer_1
  10
109.13489
  20
76.031265
  0
VERTEX
  5
3d2
  8
Layer_1
  10
109.25671
  20
76.069382
  0
VERTEX
  5
3d3
  8
Layer_1
  10
109.49817
  20
76.147888
  0
VERTEX
  5
3d4
  8
Layer_1
  10
109.65033
  20
76.199677
  0
VERTEX
  5
3d5
  8
Layer_1
  10
109.7644
  20
76.241669
  0
VERTEX
  5
3d6
  8
Layer_1
  10
110.00055
  20
76.331467
  0
VERTEX
  5
3d7
  8
Layer_1
  10
110.14996
  20
76.390579
  0
VERTEX
  5
3d8
  8
Layer_1
  10
110.2608
  20
76.43782
  0
VERTEX
  5
3d9
  8
Layer_1
  10
110.49127
  20
76.538635
  0
VERTEX
  5
3da
  8
Layer_1
  10
110.63776
  20
76.605087
  0
VERTEX
  5
3db
  8
Layer_1
  10
110.74524
  20
76.656998
  0
VERTEX
  5
3dc
  8
Layer_1
  10
110.96979
  20
76.76857
  0
VERTEX
  5
3dd
  8
Layer_1
  10
111.11267
  20
76.842087
  0
VERTEX
  5
3de
  8
Layer_1
  10
111.21783
  20
76.89949
  0
VERTEX
  5
3df
  8
Layer_1
  10
111.43616
  20
77.02153
  0
VERTEX
  5
3e0
  8
Layer_1
  10
111.57526
  20
77.101837
  0
VERTEX
  5
3e1
  8
Layer_1
  10
111.67584
  20
77.163239
  0
VERTEX
  5
3e2
  8
Layer_1
  10
111.88739
  20
77.295319
  0
VERTEX
  5
3e3
  8
Layer_1
  10
112.02252
  20
77.382263
  0
VERTEX
  5
3e4
  8
Layer_1
  10
112.11621
  20
77.445999
  0
VERTEX
  5
3e5
  8
Layer_1
  10
112.32098
  20
77.58786
  0
VERTEX
  5
3e6
  8
Layer_1
  10
112.4519
  20
77.681183
  0
VERTEX
  5
3e7
  8
Layer_1
  10
112.54443
  20
77.750671
  0
VERTEX
  5
3e8
  8
Layer_1
  10
112.74176
  20
77.901901
  0
VERTEX
  5
3e9
  8
Layer_1
  10
112.86792
  20
78.00145
  0
VERTEX
  5
3ea
  8
Layer_1
  10
112.95557
  20
78.073975
  0
VERTEX
  5
3eb
  8
Layer_1
  10
113.14539
  20
78.23439
  0
VERTEX
  5
3ec
  8
Layer_1
  10
113.26672
  20
78.339905
  0
VERTEX
  5
3ed
  8
Layer_1
  10
113.3501
  20
78.415833
  0
VERTEX
  5
3ee
  8
Layer_1
  10
113.53186
  20
78.58493
  0
VERTEX
  5
3ef
  8
Layer_1
  10
113.64789
  20
78.696121
  0
VERTEX
  5
3f0
  8
Layer_1
  10
113.72925
  20
78.77771
  0
VERTEX
  5
3f1
  8
Layer_1
  10
113.90289
  20
78.955475
  0
VERTEX
  5
3f2
  8
Layer_1
  10
114.01349
  20
79.071899
  0
VERTEX
  5
3f3
  8
Layer_1
  10
114.08948
  20
79.15596
  0
VERTEX
  5
3f4
  8
Layer_1
  10
114.25439
  20
79.34166
  0
VERTEX
  5
3f5
  8
Layer_1
  10
114.3595
  20
79.463379
  0
VERTEX
  5
3f6
  8
Layer_1
  10
114.43121
  20
79.550568
  0
VERTEX
  5
3f7
  8
Layer_1
  10
114.58728
  20
79.744247
  0
VERTEX
  5
3f8
  8
Layer_1
  10
114.6864
  20
79.870804
  0
VERTEX
  5
3f9
  8
Layer_1
  10
114.75482
  20
79.962524
  0
VERTEX
  5
3fa
  8
Layer_1
  10
114.90155
  20
80.16362
  0
VERTEX
  5
3fb
  8
Layer_1
  10
114.99438
  20
80.294769
  0
VERTEX
  5
3fc
  8
Layer_1
  10
115.05981
  20
80.39183
  0
VERTEX
  5
3fd
  8
Layer_1
  10
115.19696
  20
80.600235
  0
VERTEX
  5
3fe
  8
Layer_1
  10
115.28345
  20
80.735657
  0
VERTEX
  5
3ff
  8
Layer_1
  10
115.34491
  20
80.83728
  0
VERTEX
  5
400
  8
Layer_1
  10
115.47211
  20
81.052521
  0
VERTEX
  5
401
  8
Layer_1
  10
115.552
  20
81.192108
  0
VERTEX
  5
402
  8
Layer_1
  10
115.60687
  20
81.293655
  0
VERTEX
  5
403
  8
Layer_1
  10
115.72388
  20
81.51535
  0
VERTEX
  5
404
  8
Layer_1
  10
115.79694
  20
81.658524
  0
VERTEX
  5
405
  8
Layer_1
  10
115.84906
  20
81.767548
  0
VERTEX
  5
406
  8
Layer_1
  10
115.95551
  20
81.995544
  0
VERTEX
  5
407
  8
Layer_1
  10
116.02142
  20
82.142044
  0
VERTEX
  5
408
  8
Layer_1
  10
116.06818
  20
82.253082
  0
VERTEX
  5
409
  8
Layer_1
  10
116.16364
  20
82.486969
  0
VERTEX
  5
40a
  8
Layer_1
  10
116.22235
  20
82.636642
  0
VERTEX
  5
40b
  8
Layer_1
  10
116.26385
  20
82.75087
  0
VERTEX
  5
40c
  8
Layer_1
  10
116.34827
  20
82.990356
  0
VERTEX
  5
40d
  8
Layer_1
  10
116.39954
  20
83.142654
  0
VERTEX
  5
40e
  8
Layer_1
  10
116.4364
  20
83.261688
  0
VERTEX
  5
40f
  8
Layer_1
  10
116.50916
  20
83.506393
  0
VERTEX
  5
410
  8
Layer_1
  10
116.55286
  20
83.660995
  0
VERTEX
  5
411
  8
Layer_1
  10
116.58472
  20
83.786301
  0
VERTEX
  5
412
  8
Layer_1
  10
116.64551
  20
84.036057
  0
VERTEX
  5
413
  8
Layer_1
  10
116.68134
  20
84.192871
  0
VERTEX
  5
414
  8
Layer_1
  10
116.7063
  20
84.315842
  0
VERTEX
  5
415
  8
Layer_1
  10
116.75488
  20
84.570114
  0
VERTEX
  5
416
  8
Layer_1
  10
116.78278
  20
84.728424
  0
VERTEX
  5
417
  8
Layer_1
  10
116.80176
  20
84.853592
  0
VERTEX
  5
418
  8
Layer_1
  10
116.83789
  20
85.112213
  0
VERTEX
  5
419
  8
Layer_1
  10
116.85773
  20
85.271637
  0
VERTEX
  5
41a
  8
Layer_1
  10
116.87103
  20
85.403442
  0
VERTEX
  5
41b
  8
Layer_1
  10
116.89417
  20
85.666016
  0
VERTEX
  5
41c
  8
Layer_1
  10
116.90594
  20
85.826355
  0
VERTEX
  5
41d
  8
Layer_1
  10
116.91229
  20
85.955353
  0
VERTEX
  5
41e
  8
Layer_1
  10
116.9223
  20
86.221588
  0
VERTEX
  5
41f
  8
Layer_1
  10
116.92609
  20
86.382294
  0
VERTEX
  5
420
  8
Layer_1
  10
116.92584
  20
86.512482
  0
VERTEX
  5
421
  8
Layer_1
  10
116.9223
  20
86.7789
  0
VERTEX
  5
422
  8
Layer_1
  10
116.91797
  20
86.939545
  0
VERTEX
  5
423
  8
Layer_1
  10
116.91125
  20
87.068542
  0
VERTEX
  5
424
  8
Layer_1
  10
116.89447
  20
87.331573
  0
VERTEX
  5
425
  8
Layer_1
  10
116.88196
  20
87.491821
  0
VERTEX
  5
426
  8
Layer_1
  10
116.86841
  20
87.623535
  0
VERTEX
  5
427
  8
Layer_1
  10
116.83862
  20
87.882965
  0
VERTEX
  5
428
  8
Layer_1
  10
116.81793
  20
88.04245
  0
VERTEX
  5
429
  8
Layer_1
  10
116.79871
  20
88.167542
  0
VERTEX
  5
42a
  8
Layer_1
  10
116.75635
  20
88.422882
  0
VERTEX
  5
42b
  8
Layer_1
  10
116.72772
  20
88.581055
  0
VERTEX
  5
42c
  8
Layer_1
  10
116.70233
  20
88.704102
  0
VERTEX
  5
42d
  8
Layer_1
  10
116.64758
  20
88.955261
  0
VERTEX
  5
42e
  8
Layer_1
  10
116.61139
  20
89.111694
  0
VERTEX
  5
42f
  8
Layer_1
  10
116.57886
  20
89.236908
  0
VERTEX
  5
430
  8
Layer_1
  10
116.51208
  20
89.483307
  0
VERTEX
  5
431
  8
Layer_1
  10
116.4679
  20
89.637878
  0
VERTEX
  5
432
  8
Layer_1
  10
116.43066
  20
89.756683
  0
VERTEX
  5
433
  8
Layer_1
  10
116.35211
  20
89.998199
  0
VERTEX
  5
434
  8
Layer_1
  10
116.30035
  20
90.15033
  0
VERTEX
  5
435
  8
Layer_1
  10
116.25836
  20
90.264404
  0
VERTEX
  5
436
  8
Layer_1
  10
116.16852
  20
90.500549
  0
VERTEX
  5
437
  8
Layer_1
  10
116.10944
  20
90.649994
  0
VERTEX
  5
438
  8
Layer_1
  10
116.06219
  20
90.760773
  0
VERTEX
  5
439
  8
Layer_1
  10
115.96136
  20
90.991302
  0
VERTEX
  5
43a
  8
Layer_1
  10
115.8949
  20
91.137695
  0
VERTEX
  5
43b
  8
Layer_1
  10
115.84302
  20
91.245209
  0
VERTEX
  5
43c
  8
Layer_1
  10
115.73145
  20
91.469818
  0
VERTEX
  5
43d
  8
Layer_1
  10
115.6579
  20
91.612671
  0
VERTEX
  5
43e
  8
Layer_1
  10
115.6012
  20
91.716705
  0
VERTEX
  5
43f
  8
Layer_1
  10
115.47931
  20
91.934845
  0
VERTEX
  5
440
  8
Layer_1
  10
115.3988
  20
92.074127
  0
VERTEX
  5
441
  8
Layer_1
  10
115.33783
  20
92.174164
  0
VERTEX
  5
442
  8
Layer_1
  10
115.20581
  20
92.385803
  0
VERTEX
  5
443
  8
Layer_1
  10
115.11884
  20
92.520966
  0
VERTEX
  5
444
  8
Layer_1
  10
115.05316
  20
92.617798
  0
VERTEX
  5
445
  8
Layer_1
  10
114.91132
  20
92.822449
  0
VERTEX
  5
446
  8
Layer_1
  10
114.81781
  20
92.953308
  0
VERTEX
  5
447
  8
Layer_1
  10
114.74915
  20
93.044739
  0
VERTEX
  5
448
  8
Layer_1
  10
114.59784
  20
93.242157
  0
VERTEX
  5
449
  8
Layer_1
  10
114.49823
  20
93.368317
  0
VERTEX
  5
44a
  8
Layer_1
  10
114.42755
  20
93.453735
  0
VERTEX
  5
44b
  8
Layer_1
  10
114.26727
  20
93.643555
  0
VERTEX
  5
44c
  8
Layer_1
  10
114.16193
  20
93.764862
  0
VERTEX
  5
44d
  8
Layer_1
  10
114.08264
  20
93.851776
  0
VERTEX
  5
44e
  8
Layer_1
  10
113.91345
  20
94.033569
  0
VERTEX
  5
44f
  8
Layer_1
  10
113.80219
  20
94.149658
  0
VERTEX
  5
450
  8
Layer_1
  10
113.72229
  20
94.22937
  0
VERTEX
  5
451
  8
Layer_1
  10
113.54468
  20
94.402863
  0
VERTEX
  5
452
  8
Layer_1
  10
113.4281
  20
94.513519
  0
VERTEX
  5
453
  8
Layer_1
  10
113.34448
  20
94.589203
  0
VERTEX
  5
454
  8
Layer_1
  10
113.15857
  20
94.754211
  0
VERTEX
  5
455
  8
Layer_1
  10
113.03687
  20
94.859192
  0
VERTEX
  5
456
  8
Layer_1
  10
112.94904
  20
94.931458
  0
VERTEX
  5
457
  8
Layer_1
  10
112.75549
  20
95.087433
  0
VERTEX
  5
458
  8
Layer_1
  10
112.62891
  20
95.186554
  0
VERTEX
  5
459
  8
Layer_1
  10
112.53607
  20
95.255646
  0
VERTEX
  5
45a
  8
Layer_1
  10
112.33484
  20
95.402435
  0
VERTEX
  5
45b
  8
Layer_1
  10
112.20374
  20
95.495453
  0
VERTEX
  5
45c
  8
Layer_1
  10
112.10968
  20
95.558655
  0
VERTEX
  5
45d
  8
Layer_1
  10
111.90143
  20
95.695831
  0
VERTEX
  5
45e
  8
Layer_1
  10
111.76587
  20
95.78244
  0
VERTEX
  5
45f
  8
Layer_1
  10
111.66528
  20
95.843323
  0
VERTEX
  5
460
  8
Layer_1
  10
111.45001
  20
95.970642
  0
VERTEX
  5
461
  8
Layer_1
  10
111.31055
  20
96.050568
  0
VERTEX
  5
462
  8
Layer_1
  10
111.20526
  20
96.107574
  0
VERTEX
  5
463
  8
Layer_1
  10
110.9834
  20
96.224579
  0
VERTEX
  5
464
  8
Layer_1
  10
110.84009
  20
96.297516
  0
VERTEX
  5
465
  8
Layer_1
  10
110.73248
  20
96.349091
  0
VERTEX
  5
466
  8
Layer_1
  10
110.50446
  20
96.455475
  0
VERTEX
  5
467
  8
Layer_1
  10
110.35797
  20
96.521454
  0
VERTEX
  5
468
  8
Layer_1
  10
110.24695
  20
96.568115
  0
VERTEX
  5
469
  8
Layer_1
  10
110.01306
  20
96.663666
  0
VERTEX
  5
46a
  8
Layer_1
  10
109.86334
  20
96.722351
  0
VERTEX
  5
46b
  8
Layer_1
  10
109.74915
  20
96.763916
  0
VERTEX
  5
46c
  8
Layer_1
  10
109.50964
  20
96.848267
  0
VERTEX
  5
46d
  8
Layer_1
  10
109.35736
  20
96.899536
  0
VERTEX
  5
46e
  8
Layer_1
  10
109.23834
  20
96.93634
  0
VERTEX
  5
46f
  8
Layer_1
  10
108.99365
  20
97.009125
  0
VERTEX
  5
470
  8
Layer_1
  10
108.83899
  20
97.052856
  0
VERTEX
  5
471
  8
Layer_1
  10
108.71429
  20
97.084564
  0
VERTEX
  5
472
  8
Layer_1
  10
108.46466
  20
97.145325
  0
VERTEX
  5
473
  8
Layer_1
  10
108.30795
  20
97.181213
  0
VERTEX
  5
474
  8
Layer_1
  10
108.18375
  20
97.206299
  0
VERTEX
  5
475
  8
Layer_1
  10
107.92935
  20
97.254883
  0
VERTEX
  5
476
  8
Layer_1
  10
107.771
  20
97.282928
  0
VERTEX
  5
477
  8
Layer_1
  10
107.64639
  20
97.301727
  0
VERTEX
  5
478
  8
Layer_1
  10
107.38779
  20
97.33786
  0
VERTEX
  5
479
  8
Layer_1
  10
107.22836
  20
97.357788
  0
VERTEX
  5
47a
  8
Layer_1
  10
107.09656
  20
97.371033
  0
VERTEX
  5
47b
  8
Layer_1
  10
106.83398
  20
97.394196
  0
VERTEX
  5
47c
  8
Layer_1
  10
106.67365
  20
97.405975
  0
VERTEX
  5
47d
  8
Layer_1
  10
106.54468
  20
97.412292
  0
VERTEX
  5
47e
  8
Layer_1
  10
106.27844
  20
97.422272
  0
VERTEX
  5
47f
  8
Layer_1
  10
106.11771
  20
97.426056
  0
VERTEX
  5
480
  8
Layer_1
  10
105.98755
  20
97.425812
  0
VERTEX
  5
481
  8
Layer_1
  10
105.72113
  20
97.422333
  0
VERTEX
  5
482
  8
Layer_1
  10
105.56042
  20
97.417969
  0
VERTEX
  5
483
  8
Layer_1
  10
105.43146
  20
97.411255
  0
VERTEX
  5
484
  8
Layer_1
  10
105.1684
  20
97.394501
  0
VERTEX
  5
485
  8
Layer_1
  10
105.00818
  20
97.382019
  0
VERTEX
  5
486
  8
Layer_1
  10
104.87643
  20
97.368439
  0
VERTEX
  5
487
  8
Layer_1
  10
104.61703
  20
97.338623
  0
VERTEX
  5
488
  8
Layer_1
  10
104.45755
  20
97.317932
  0
VERTEX
  5
489
  8
Layer_1
  10
104.33249
  20
97.298676
  0
VERTEX
  5
48a
  8
Layer_1
  10
104.07715
  20
97.256317
  0
VERTEX
  5
48b
  8
Layer_1
  10
103.91898
  20
97.227722
  0
VERTEX
  5
48c
  8
Layer_1
  10
103.79593
  20
97.202271
  0
VERTEX
  5
48d
  8
Layer_1
  10
103.54477
  20
97.147614
  0
VERTEX
  5
48e
  8
Layer_1
  10
103.38834
  20
97.111359
  0
VERTEX
  5
48f
  8
Layer_1
  10
103.26309
  20
97.078888
  0
VERTEX
  5
490
  8
Layer_1
  10
103.01669
  20
97.012085
  0
VERTEX
  5
491
  8
Layer_1
  10
102.86215
  20
96.967926
  0
VERTEX
  5
492
  8
Layer_1
  10
102.74329
  20
96.930634
  0
VERTEX
  5
493
  8
Layer_1
  10
102.50183
  20
96.852142
  0
VERTEX
  5
494
  8
Layer_1
  10
102.34967
  20
96.800323
  0
VERTEX
  5
495
  8
Layer_1
  10
102.23557
  20
96.758362
  0
VERTEX
  5
496
  8
Layer_1
  10
101.99942
  20
96.668518
  0
VERTEX
  5
497
  8
Layer_1
  10
101.85004
  20
96.609436
  0
VERTEX
  5
498
  8
Layer_1
  10
101.73923
  20
96.562195
  0
VERTEX
  5
499
  8
Layer_1
  10
101.5087
  20
96.461365
  0
VERTEX
  5
49a
  8
Layer_1
  10
101.36227
  20
96.394897
  0
VERTEX
  5
49b
  8
Layer_1
  10
101.25482
  20
96.343018
  0
VERTEX
  5
49c
  8
Layer_1
  10
101.03018
  20
96.231445
  0
VERTEX
  5
49d
  8
Layer_1
  10
100.88733
  20
96.157898
  0
VERTEX
  5
49e
  8
Layer_1
  10
100.78073
  20
96.099823
  0
VERTEX
  5
49f
  8
Layer_1
  10
100.56262
  20
95.977783
  0
VERTEX
  5
4a0
  8
Layer_1
  10
100.42346
  20
95.897339
  0
VERTEX
  5
4a1
  8
Layer_1
  10
100.32587
  20
95.837738
  0
VERTEX
  5
4a2
  8
Layer_1
  10
100.1142
  20
95.705658
  0
VERTEX
  5
4a3
  8
Layer_1
  10
99.979034
  20
95.618683
  0
VERTEX
  5
4a4
  8
Layer_1
  10
99.882202
  20
95.55304
  0
VERTEX
  5
4a5
  8
Layer_1
  10
99.677551
  20
95.411194
  0
VERTEX
  5
4a6
  8
Layer_1
  10
99.546692
  20
95.317719
  0
VERTEX
  5
4a7
  8
Layer_1
  10
99.457275
  20
95.250549
  0
VERTEX
  5
4a8
  8
Layer_1
  10
99.259827
  20
95.099335
  0
VERTEX
  5
4a9
  8
Layer_1
  10
99.133667
  20
94.999939
  0
VERTEX
  5
4aa
  8
Layer_1
  10
99.044434
  20
94.926025
  0
VERTEX
  5
4ab
  8
Layer_1
  10
98.854614
  20
94.765594
  0
VERTEX
  5
4ac
  8
Layer_1
  10
98.733276
  20
94.660095
  0
VERTEX
  5
4ad
  8
Layer_1
  10
98.649933
  20
94.584167
  0
VERTEX
  5
4ae
  8
Layer_1
  10
98.46814
  20
94.41507
  0
VERTEX
  5
4af
  8
Layer_1
  10
98.352051
  20
94.303894
  0
VERTEX
  5
4b0
  8
Layer_1
  10
98.270599
  20
94.222321
  0
VERTEX
  5
4b1
  8
Layer_1
  10
98.097168
  20
94.044678
  0
VERTEX
  5
4b2
  8
Layer_1
  10
97.986511
  20
93.92807
  0
VERTEX
  5
4b3
  8
Layer_1
  10
97.910767
  20
93.844482
  0
VERTEX
  5
4b4
  8
Layer_1
  10
97.745789
  20
93.6586
  0
VERTEX
  5
4b5
  8
Layer_1
  10
97.640808
  20
93.536896
  0
VERTEX
  5
4b6
  8
Layer_1
  10
97.568848
  20
93.449463
  0
VERTEX
  5
4b7
  8
Layer_1
  10
97.41275
  20
93.255768
  0
VERTEX
  5
4b8
  8
Layer_1
  10
97.313599
  20
93.129181
  0
VERTEX
  5
4b9
  8
Layer_1
  10
97.243652
  20
93.0354
  0
VERTEX
  5
4ba
  8
Layer_1
  10
97.097015
  20
92.83429
  0
VERTEX
  5
4bb
  8
Layer_1
  10
97.00412
  20
92.703003
  0
VERTEX
  5
4bc
  8
Layer_1
  10
96.940369
  20
92.608154
  0
VERTEX
  5
4bd
  8
Layer_1
  10
96.803162
  20
92.39978
  0
VERTEX
  5
4be
  8
Layer_1
  10
96.716705
  20
92.264343
  0
VERTEX
  5
4bf
  8
Layer_1
  10
96.65741
  20
92.166504
  0
VERTEX
  5
4c0
  8
Layer_1
  10
96.53006
  20
91.951416
  0
VERTEX
  5
4c1
  8
Layer_1
  10
96.450165
  20
91.811951
  0
VERTEX
  5
4c2
  8
Layer_1
  10
96.392426
  20
91.705231
  0
VERTEX
  5
4c3
  8
Layer_1
  10
96.275421
  20
91.483398
  0
VERTEX
  5
4c4
  8
Layer_1
  10
96.202515
  20
91.340088
  0
VERTEX
  5
4c5
  8
Layer_1
  10
96.15094
  20
91.232483
  0
VERTEX
  5
4c6
  8
Layer_1
  10
96.044525
  20
91.004456
  0
VERTEX
  5
4c7
  8
Layer_1
  10
95.978577
  20
90.857971
  0
VERTEX
  5
4c8
  8
Layer_1
  10
95.931854
  20
90.746918
  0
VERTEX
  5
4c9
  8
Layer_1
  10
95.836334
  20
90.513
  0
VERTEX
  5
4ca
  8
Layer_1
  10
95.777649
  20
90.363342
  0
VERTEX
  5
4cb
  8
Layer_1
  10
95.736115
  20
90.249146
  0
VERTEX
  5
4cc
  8
Layer_1
  10
95.651764
  20
90.009644
  0
VERTEX
  5
4cd
  8
Layer_1
  10
95.600494
  20
89.857361
  0
VERTEX
  5
4ce
  8
Layer_1
  10
95.562775
  20
89.735382
  0
VERTEX
  5
4cf
  8
Layer_1
  10
95.490143
  20
89.490692
  0
VERTEX
  5
4d0
  8
Layer_1
  10
95.446564
  20
89.33606
  0
VERTEX
  5
4d1
  8
Layer_1
  10
95.416016
  20
89.216675
  0
VERTEX
  5
4d2
  8
Layer_1
  10
95.355133
  20
88.966888
  0
VERTEX
  5
4d3
  8
Layer_1
  10
95.319275
  20
88.810211
  0
VERTEX
  5
4d4
  8
Layer_1
  10
95.293701
  20
88.684143
  0
VERTEX
  5
4d5
  8
Layer_1
  10
95.245148
  20
88.429901
  0
VERTEX
  5
4d6
  8
Layer_1
  10
95.217224
  20
88.271576
  0
VERTEX
  5
4d7
  8
Layer_1
  10
95.197968
  20
88.143494
  0
VERTEX
  5
4d8
  8
Layer_1
  10
95.161957
  20
87.884857
  0
VERTEX
  5
4d9
  8
Layer_1
  10
95.141907
  20
87.725311
  0
VERTEX
  5
4da
  8
Layer_1
  10
95.129425
  20
87.59964
  0
VERTEX
  5
4db
  8
Layer_1
  10
95.10614
  20
87.337067
  0
VERTEX
  5
4dc
  8
Layer_1
  10
95.094238
  20
87.176727
  0
VERTEX
  5
4dd
  8
Layer_1
  10
95.087708
  20
87.044678
  0
VERTEX
  5
4de
  8
Layer_1
  10
95.077728
  20
86.778442
  0
VERTEX
  5
4df
  8
Layer_1
  10
95.073944
  20
86.617706
  0
VERTEX
  5
4e0
  8
Layer_1
  10
95.074188
  20
86.487549
  0
VERTEX
  5
4e1
  8
Layer_1
  10
95.077698
  20
86.22113
  0
VERTEX
  5
4e2
  8
Layer_1
  10
95.082062
  20
86.060455
  0
VERTEX
  5
4e3
  8
Layer_1
  10
95.088989
  20
85.928375
  0
VERTEX
  5
4e4
  8
Layer_1
  10
95.105865
  20
85.665314
  0
VERTEX
  5
4e5
  8
Layer_1
  10
95.118378
  20
85.505096
  0
VERTEX
  5
4e6
  8
Layer_1
  10
95.131439
  20
85.379425
  0
VERTEX
  5
4e7
  8
Layer_1
  10
95.161163
  20
85.119995
  0
VERTEX
  5
4e8
  8
Layer_1
  10
95.181549
  20
84.960648
  0
VERTEX
  5
4e9
  8
Layer_1
  10
95.201355
  20
84.832489
  0
VERTEX
  5
4ea
  8
Layer_1
  10
95.243713
  20
84.577118
  0
VERTEX
  5
4eb
  8
Layer_1
  10
95.272247
  20
84.418945
  0
VERTEX
  5
4ec
  8
Layer_1
  10
95.298248
  20
84.292969
  0
VERTEX
  5
4ed
  8
Layer_1
  10
95.353027
  20
84.041809
  0
VERTEX
  5
4ee
  8
Layer_1
  10
95.389618
  20
83.885208
  0
VERTEX
  5
4ef
  8
Layer_1
  10
95.420441
  20
83.766037
  0
VERTEX
  5
4f0
  8
Layer_1
  10
95.487091
  20
83.519653
  0
VERTEX
  5
4f1
  8
Layer_1
  10
95.531281
  20
83.365097
  0
VERTEX
  5
4f2
  8
Layer_1
  10
95.569397
  20
83.243301
  0
VERTEX
  5
4f3
  8
Layer_1
  10
95.647888
  20
83.001831
  0
VERTEX
  5
4f4
  8
Layer_1
  10
95.699677
  20
82.849701
  0
VERTEX
  5
4f5
  8
Layer_1
  10
95.741669
  20
82.73558
  0
VERTEX
  5
4f6
  8
Layer_1
  10
95.831451
  20
82.499435
  0
VERTEX
  5
4f7
  8
Layer_1
  10
95.890594
  20
82.350006
  0
VERTEX
  5
4f8
  8
Layer_1
  10
95.937836
  20
82.239227
  0
VERTEX
  5
4f9
  8
Layer_1
  10
96.038635
  20
82.008713
  0
VERTEX
  5
4fa
  8
Layer_1
  10
96.105072
  20
81.862289
  0
VERTEX
  5
4fb
  8
Layer_1
  10
96.157684
  20
81.75354
  0
VERTEX
  5
4fc
  8
Layer_1
  10
96.269257
  20
81.529053
  0
VERTEX
  5
4fd
  8
Layer_1
  10
96.342804
  20
81.3862
  0
VERTEX
  5
4fe
  8
Layer_1
  10
96.399475
  20
81.282318
  0
VERTEX
  5
4ff
  8
Layer_1
  10
96.521545
  20
81.064041
  0
VERTEX
  5
500
  8
Layer_1
  10
96.601837
  20
80.924881
  0
VERTEX
  5
501
  8
Layer_1
  10
96.662292
  20
80.825867
  0
VERTEX
  5
502
  8
Layer_1
  10
96.794373
  20
80.614182
  0
VERTEX
  5
503
  8
Layer_1
  10
96.881287
  20
80.479034
  0
VERTEX
  5
504
  8
Layer_1
  10
96.945465
  20
80.384308
  0
VERTEX
  5
505
  8
Layer_1
  10
97.087158
  20
80.179703
  0
VERTEX
  5
506
  8
Layer_1
  10
97.180634
  20
80.048813
  0
VERTEX
  5
507
  8
Layer_1
  10
97.250824
  20
79.955292
  0
VERTEX
  5
508
  8
Layer_1
  10
97.402161
  20
79.757874
  0
VERTEX
  5
509
  8
Layer_1
  10
97.501709
  20
79.631668
  0
VERTEX
  5
50a
  8
Layer_1
  10
97.575348
  20
79.542862
  0
VERTEX
  5
50b
  8
Layer_1
  10
97.735779
  20
79.353195
  0
VERTEX
  5
50c
  8
Layer_1
  10
97.841309
  20
79.231842
  0
VERTEX
  5
50d
  8
Layer_1
  10
97.914307
  20
79.151779
  0
VERTEX
  5
50e
  8
Layer_1
  10
98.083405
  20
78.969849
  0
VERTEX
  5
50f
  8
Layer_1
  10
98.194489
  20
78.853638
  0
VERTEX
  5
510
  8
Layer_1
  10
98.27771
  20
78.77063
  0
VERTEX
  5
511
  8
Layer_1
  10
98.455292
  20
78.597153
  0
VERTEX
  5
512
  8
Layer_1
  10
98.57193
  20
78.486496
  0
VERTEX
  5
513
  8
Layer_1
  10
98.655518
  20
78.410782
  0
VERTEX
  5
514
  8
Layer_1
  10
98.84137
  20
78.245789
  0
VERTEX
  5
515
  8
Layer_1
  10
98.963104
  20
78.140823
  0
VERTEX
  5
516
  8
Layer_1
  10
99.05249
  20
78.067276
  0
VERTEX
  5
517
  8
Layer_1
  10
99.246216
  20
77.911301
  0
VERTEX
  5
518
  8
Layer_1
  10
99.372772
  20
77.81218
  0
VERTEX
  5
519
  8
Layer_1
  10
99.462524
  20
77.745361
  0
VERTEX
  5
51a
  8
Layer_1
  10
99.663635
  20
77.598587
  0
VERTEX
  5
51b
  8
Layer_1
  10
99.794769
  20
77.505707
  0
VERTEX
  5
51c
  8
Layer_1
  10
99.891846
  20
77.440353
  0
VERTEX
  5
51d
  8
Layer_1
  10
100.10022
  20
77.303162
  0
VERTEX
  5
51e
  8
Layer_1
  10
100.23566
  20
77.216721
  0
VERTEX
  5
51f
  8
Layer_1
  10
100.3335
  20
77.157394
  0
VERTEX
  5
520
  8
Layer_1
  10
100.54861
  20
77.030075
  0
VERTEX
  5
521
  8
Layer_1
  10
100.68805
  20
76.95018
  0
VERTEX
  5
522
  8
Layer_1
  10
100.79477
  20
76.892426
  0
VERTEX
  5
523
  8
Layer_1
  10
101.0166
  20
76.775421
  0
VERTEX
  5
524
  8
Layer_1
  10
101.15991
  20
76.702499
  0
VERTEX
  5
525
  8
Layer_1
  10
101.26755
  20
76.650925
  0
VERTEX
  5
526
  8
Layer_1
  10
101.49554
  20
76.544525
  0
VERTEX
  5
527
  8
Layer_1
  10
101.64203
  20
76.478577
  0
VERTEX
  5
528
  8
Layer_1
  10
101.75308
  20
76.43187
  0
VERTEX
  5
529
  8
Layer_1
  10
101.98697
  20
76.336349
  0
VERTEX
  5
52a
  8
Layer_1
  10
102.13663
  20
76.277649
  0
VERTEX
  5
52b
  8
Layer_1
  10
102.25085
  20
76.236115
  0
VERTEX
  5
52c
  8
Layer_1
  10
102.49036
  20
76.151749
  0
VERTEX
  5
52d
  8
Layer_1
  10
102.64264
  20
76.100479
  0
VERTEX
  5
52e
  8
Layer_1
  10
102.76465
  20
76.062759
  0
VERTEX
  5
52f
  8
Layer_1
  10
103.00934
  20
75.990128
  0
VERTEX
  5
530
  8
Layer_1
  10
103.16394
  20
75.946564
  0
VERTEX
  5
531
  8
Layer_1
  10
103.28336
  20
75.916031
  0
VERTEX
  5
532
  8
Layer_1
  10
103.53311
  20
75.855148
  0
VERTEX
  5
533
  8
Layer_1
  10
103.68979
  20
75.81926
  0
VERTEX
  5
534
  8
Layer_1
  10
103.81586
  20
75.793716
  0
VERTEX
  5
535
  8
Layer_1
  10
104.0701
  20
75.745132
  0
VERTEX
  5
536
  8
Layer_1
  10
104.22845
  20
75.717209
  0
VERTEX
  5
537
  8
Layer_1
  10
104.35361
  20
75.698288
  0
VERTEX
  5
538
  8
Layer_1
  10
104.61221
  20
75.66214
  0
VERTEX
  5
539
  8
Layer_1
  10
104.77164
  20
75.642227
  0
VERTEX
  5
53a
  8
Layer_1
  10
104.90344
  20
75.628967
  0
VERTEX
  5
53b
  8
Layer_1
  10
105.16602
  20
75.605835
  0
VERTEX
  5
53c
  8
Layer_1
  10
105.32635
  20
75.59404
  0
VERTEX
  5
53d
  8
Layer_1
  10
105.45532
  20
75.587708
  0
VERTEX
  5
53e
  8
Layer_1
  10
105.72159
  20
75.577728
  0
VERTEX
  5
53f
  8
Layer_1
  10
105.88232
  20
75.573944
  0
VERTEX
  5
540
  8
Layer_1
  10
106.01248
  20
75.574188
  0
SEQEND
  0
CIRCLE
  5
542
  8
Layer_1
  62
5
  10
106.09843
  20
86.395111
  30
0
  40
2.3556213
  0
POLYLINE
  5
542
  8
Layer_1
  62
5
  66
1
  10
0
  20
0
  30
0
  0
VERTEX
  5
542
  8
Layer_1
  10
130.01248
  20
74.574188
  0
VERTEX
  5
543
  8
Layer_1
  10
130.27887
  20
74.577682
  0
VERTEX
  5
544
  8
Layer_1
  10
130.43958
  20
74.582047
  0
VERTEX
  5
545
  8
Layer_1
  10
130.56854
  20
74.58876
  0
VERTEX
  5
546
  8
Layer_1
  10
130.8316
  20
74.605499
  0
VERTEX
  5
547
  8
Layer_1
  10
130.99182
  20
74.618011
  0
VERTEX
  5
548
  8
Layer_1
  10
131.12357
  20
74.631561
  0
VERTEX
  5
549
  8
Layer_1
  10
131.38297
  20
74.661407
  0
VERTEX
  5
54a
  8
Layer_1
  10
131.54245
  20
74.682068
  0
VERTEX
  5
54b
  8
Layer_1
  10
131.66696
  20
74.70134
  0
VERTEX
  5
54c
  8
Layer_1
  10
131.92245
  20
74.743729
  0
VERTEX
  5
54d
  8
Layer_1
  10
132.08066
  20
74.772263
  0
VERTEX
  5
54e
  8
Layer_1
  10
132.20789
  20
74.798523
  0
VERTEX
  5
54f
  8
Layer_1
  10
132.45892
  20
74.853317
  0
VERTEX
  5
550
  8
Layer_1
  10
132.61536
  20
74.88974
  0
VERTEX
  5
551
  8
Layer_1
  10
132.73395
  20
74.920441
  0
VERTEX
  5
552
  8
Layer_1
  10
132.98035
  20
74.987091
  0
VERTEX
  5
553
  8
Layer_1
  10
133.13489
  20
75.031265
  0
VERTEX
  5
554
  8
Layer_1
  10
133.25671
  20
75.069382
  0
VERTEX
  5
555
  8
Layer_1
  10
133.49817
  20
75.147888
  0
VERTEX
  5
556
  8
Layer_1
  10
133.65033
  20
75.199677
  0
VERTEX
  5
557
  8
Layer_1
  10
133.7644
  20
75.241669
  0
VERTEX
  5
558
  8
Layer_1
  10
134.00055
  20
75.331467
  0
VERTEX
  5
559
  8
Layer_1
  10
134.14996
  20
75.390579
  0
VERTEX
  5
55a
  8
Layer_1
  10
134.2608
  20
75.43782
  0
VERTEX
  5
55b
  8
Layer_1
  10
134.49127
  20
75.538635
  0
VERTEX
  5
55c
  8
Layer_1
  10
134.63776
  20
75.605087
  0
VERTEX
  5
55d
  8
Layer_1
  10
134.74524
  20
75.656998
  0
VERTEX
  5
55e
  8
Layer_1
  10
134.96979
  20
75.76857
  0
VERTEX
  5
55f
  8
Layer_1
  10
135.11267
  20
75.842087
  0
VERTEX
  5
560
  8
Layer_1
  10
135.21783
  20
75.89949
  0
VERTEX
  5
561
  8
Layer_1
  10
135.43616
  20
76.02153
  0
VERTEX
  5
562
  8
Layer_1
  10
135.57526
  20
76.101837
  0
VERTEX
  5
563
  8
Layer_1
  10
135.67584
  20
76.163239
  0
VERTEX
  5
564
  8
Layer_1
  10
135.88739
  20
76.295319
  0
VERTEX
  5
565
  8
Layer_1
  10
136.02252
  20
76.382263
  0
VERTEX
  5
566
  8
Layer_1
  10
136.11621
  20
76.445999
  0
VERTEX
  5
567
  8
Layer_1
  10
136.32098
  20
76.58786
  0
VERTEX
  5
568
  8
Layer_1
  10
136.4519
  20
76.681183
  0
VERTEX
  5
569
  8
Layer_1
  10
136.54443
  20
76.750671
  0
VERTEX
  5
56a
  8
Layer_1
  10
136.74176
  20
76.901901
  0
VERTEX
  5
56b
  8
Layer_1
  10
136.86792
  20
77.00145
  0
VERTEX
  5
56c
  8
Layer_1
  10
136.95557
  20
77.073975
  0
VERTEX
  5
56d
  8
Layer_1
  10
137.14539
  20
77.23439
  0
VERTEX
  5
56e
  8
Layer_1
  10
137.26672
  20
77.339905
  0
VERTEX
  5
56f
  8
Layer_1
  10
137.3501
  20
77.415833
  0
VERTEX
  5
570
  8
Layer_1
  10
137.53186
  20
77.58493
  0
VERTEX
  5
571
  8
Layer_1
  10
137.64789
  20
77.696121
  0
VERTEX
  5
572
  8
Layer_1
  10
137.72925
  20
77.77771
  0
VERTEX
  5
573
  8
Layer_1
  10
137.90289
  20
77.955475
  0
VERTEX
  5
574
  8
Layer_1
  10
138.01349
  20
78.071899
  0
VERTEX
  5
575
  8
Layer_1
  10
138.08948
  20
78.15596
  0
VERTEX
  5
576
  8
Layer_1
  10
138.25439
  20
78.34166
  0
VERTEX
  5
577
  8
Layer_1
  10
138.3595
  20
78.463379
  0
VERTEX
  5
578
  8
Layer_1
  10
138.43121
  20
78.550568
  0
VERTEX
  5
579
  8
Layer_1
  10
138.58728
  20
78.744247
  0
VERTEX
  5
57a
  8
Layer_1
  10
138.6864
  20
78.870804
  0
VERTEX
  5
57b
  8
Layer_1
  10
138.75482
  20
78.962524
  0
VERTEX
  5
57c
  8
Layer_1
  10
138.90155
  20
79.16362
  0
VERTEX
  5
57d
  8
Layer_1
  10
138.99438
  20
79.294769
  0
VERTEX
  5
57e
  8
Layer_1
  10
139.05981
  20
79.39183
  0
VERTEX
  5
57f
  8
Layer_1
  10
139.19696
  20
79.600235
  0
VERTEX
  5
580
  8
Layer_1
  10
139.28345
  20
79.735657
  0
VERTEX
  5
581
  8
Layer_1
  10
139.34491
  20
79.83728
  0
VERTEX
  5
582
  8
Layer_1
  10
139.47211
  20
80.052521
  0
VERTEX
  5
583
  8
Layer_1
  10
139.552
  20
80.192108
  0
VERTEX
  5
584
  8
Layer_1
  10
139.60687
  20
80.293655
  0
VERTEX
  5
585
  8
Layer_1
  10
139.72388
  20
80.51535
  0
VERTEX
  5
586
  8
Layer_1
  10
139.79694
  20
80.658524
  0
VERTEX
  5
587
  8
Layer_1
  10
139.84906
  20
80.767548
  0
VERTEX
  5
588
  8
Layer_1
  10
139.95551
  20
80.995544
  0
VERTEX
  5
589
  8
Layer_1
  10
140.02142
  20
81.142044
  0
VERTEX
  5
58a
  8
Layer_1
  10
140.06818
  20
81.253082
  0
VERTEX
  5
58b
  8
Layer_1
  10
140.16364
  20
81.486969
  0
VERTEX
  5
58c
  8
Layer_1
  10
140.22235
  20
81.636642
  0
VERTEX
  5
58d
  8
Layer_1
  10
140.26385
  20
81.75087
  0
VERTEX
  5
58e
  8
Layer_1
  10
140.34827
  20
81.990356
  0
VERTEX
  5
58f
  8
Layer_1
  10
140.39954
  20
82.142654
  0
VERTEX
  5
590
  8
Layer_1
  10
140.4364
  20
82.261688
  0
VERTEX
  5
591
  8
Layer_1
  10
140.50916
  20
82.506393
  0
VERTEX
  5
592
  8
Layer_1
  10
140.55286
  20
82.660995
  0
VERTEX
  5
593
  8
Layer_1
  10
140.58472
  20
82.786301
  0
VERTEX
  5
594
  8
Layer_1
  10
140.64551
  20
83.036057
  0
VERTEX
  5
595
  8
Layer_1
  10
140.68134
  20
83.192871
  0
VERTEX
  5
596
  8
Layer_1
  10
140.7063
  20
83.315842
  0
VERTEX
  5
597
  8
Layer_1
  10
140.75488
  20
83.570114
  0
VERTEX
  5
598
  8
Layer_1
  10
140.78278
  20
83.728424
  0
VERTEX
  5
599
  8
Layer_1
  10
140.80176
  20
83.853592
  0
VERTEX
  5
59a
  8
Layer_1
  10
140.83789
  20
84.112213
  0
VERTEX
  5
59b
  8
Layer_1
  10
140.85773
  20
84.271637
  0
VERTEX
  5
59c
  8
Layer_1
  10
140.87103
  20
84.403442
  0
VERTEX
  5
59d
  8
Layer_1
  10
140.89417
  20
84.666016
  0
VERTEX
  5
59e
  8
Layer_1
  10
140.90594
  20
84.826355
  0
VERTEX
  5
59f
  8
Layer_1
  10
140.91229
  20
84.955353
  0
VERTEX
  5
5a0
  8
Layer_1
  10
140.9223
  20
85.221588
  0
VERTEX
  5
5a1
  8
Layer_1
  10
140.92609
  20
85.382294
  0
VERTEX
  5
5a2
  8
Layer_1
  10
140.92584
  20
85.512482
  0
VERTEX
  5
5a3
  8
Layer_1
  10
140.9223
  20
85.7789
  0
VERTEX
  5
5a4
  8
Layer_1
  10
140.91797
  20
85.939545
  0
VERTEX
  5
5a5
  8
Layer_1
  10
140.91125
  20
86.068542
  0
VERTEX
  5
5a6
  8
Layer_1
  10
140.89447
  20
86.331573
  0
VERTEX
  5
5a7
  8
Layer_1
  10
140.88196
  20
86.491821
  0
VERTEX
  5
5a8
  8
Layer_1
  10
140.86841
  20
86.623535
  0
VERTEX
  5
5a9
  8
Layer_1
  10
140.83862
  20
86.882965
  0
VERTEX
  5
5aa
  8
Layer_1
  10
140.81793
  20
87.04245
  0
VERTEX
  5
5ab
  8
Layer_1
  10
140.79871
  20
87.167542
  0
VERTEX
  5
5ac
  8
Layer_1
  10
140.75635
  20
87.422882
  0
VERTEX
  5
5ad
  8
Layer_1
  10
140.72772
  20
87.581055
  0
VERTEX
  5
5ae
  8
Layer_1
  10
140.70233
  20
87.704102
  0
VERTEX
  5
5af
  8
Layer_1
  10
140.64758
  20
87.955261
  0
VERTEX
  5
5b0
  8
Layer_1
  10
140.61139
  20
88.111694
  0
VERTEX
  5
5b1
  8
Layer_1
  10
140.57886
  20
88.236908
  0
VERTEX
  5
5b2
  8
Layer_1
  10
140.51208
  20
88.483307
  0
VERTEX
  5
5b3
  8
Layer_1
  10
140.4679
  20
88.637878
  0
VERTEX
  5
5b4
  8
Layer_1
  10
140.43066
  20
88.756683
  0
VERTEX
  5
5b5
  8
Layer_1
  10
140.35211
  20
88.998199
  0
VERTEX
  5
5b6
  8
Layer_1
  10
140.30035
  20
89.15033
  0
VERTEX
  5
5b7
  8
Layer_1
  10
140.25836
  20
89.264404
  0
VERTEX
  5
5b8
  8
Layer_1
  10
140.16852
  20
89.500549
  0
VERTEX
  5
5b9
  8
Layer_1
  10
140.10944
  20
89.649994
  0
VERTEX
  5
5ba
  8
Layer_1
  10
140.06219
  20
89.760773
  0
VERTEX
  5
5bb
  8
Layer_1
  10
139.96136
  20
89.991302
  0
VERTEX
  5
5bc
  8
Layer_1
  10
139.8949
  20
90.137695
  0
VERTEX
  5
5bd
  8
Layer_1
  10
139.84302
  20
90.245209
  0
VERTEX
  5
5be
  8
Layer_1
  10
139.73145
  20
90.469818
  0
VERTEX
  5
5bf
  8
Layer_1
  10
139.6579
  20
90.612671
  0
VERTEX
  5
5c0
  8
Layer_1
  10
139.6012
  20
90.716705
  0
VERTEX
  5
5c1
  8
Layer_1
  10
139.47931
  20
90.934845
  0
VERTEX
  5
5c2
  8
Layer_1
  10
139.3988
  20
91.074127
  0
VERTEX
  5
5c3
  8
Layer_1
  10
139.33783
  20
91.174164
  0
VERTEX
  5
5c4
  8
Layer_1
  10
139.20581
  20
91.385803
  0
VERTEX
  5
5c5
  8
Layer_1
  10
139.11884
  20
91.520966
  0
VERTEX
  5
5c6
  8
Layer_1
  10
139.05316
  20
91.617798
  0
VERTEX
  5
5c7
  8
Layer_1
  10
138.91132
  20
91.822449
  0
VERTEX
  5
5c8
  8
Layer_1
  10
138.81781
  20
91.953308
  0
VERTEX
  5
5c9
  8
Layer_1
  10
138.74915
  20
92.044739
  0
VERTEX
  5
5ca
  8
Layer_1
  10
138.59784
  20
92.242157
  0
VERTEX
  5
5cb
  8
Layer_1
  10
138.49823
  20
92.368317
  0
VERTEX
  5
5cc
  8
Layer_1
  10
138.42755
  20
92.453735
  0
VERTEX
  5
5cd
  8
Layer_1
  10
138.26727
  20
92.643555
  0
VERTEX
  5
5ce
  8
Layer_1
  10
138.16193
  20
92.764862
  0
VERTEX
  5
5cf
  8
Layer_1
  10
138.08264
  20
92.851776
  0
VERTEX
  5
5d0
  8
Layer_1
  10
137.91345
  20
93.033569
  0
VERTEX
  5
5d1
  8
Layer_1
  10
137.80219
  20
93.149658
  0
VERTEX
  5
5d2
  8
Layer_1
  10
137.72229
  20
93.22937
  0
VERTEX
  5
5d3
  8
Layer_1
  10
137.54468
  20
93.402863
  0
VERTEX
  5
5d4
  8
Layer_1
  10
137.4281
  20
93.513519
  0
VERTEX
  5
5d5
  8
Layer_1
  10
137.34448
  20
93.589203
  0
VERTEX
  5
5d6
  8
Layer_1
  10
137.15857
  20
93.754211
  0
VERTEX
  5
5d7
  8
Layer_1
  10
137.03687
  20
93.859192
  0
VERTEX
  5
5d8
  8
Layer_1
  10
136.94904
  20
93.931458
  0
VERTEX
  5
5d9
  8
Layer_1
  10
136.75549
  20
94.087433
  0
VERTEX
  5
5da
  8
Layer_1
  10
136.62891
  20
94.186554
  0
VERTEX
  5
5db
  8
Layer_1
  10
136.53607
  20
94.255646
  0
VERTEX
  5
5dc
  8
Layer_1
  10
136.33484
  20
94.402435
  0
VERTEX
  5
5dd
  8
Layer_1
  10
136.20374
  20
94.495453
  0
VERTEX
  5
5de
  8
Layer_1
  10
136.10968
  20
94.558655
  0
VERTEX
  5
5df
  8
Layer_1
  10
135.90143
  20
94.695831
  0
VERTEX
  5
5e0
  8
Layer_1
  10
135.76587
  20
94.78244
  0
VERTEX
  5
5e1
  8
Layer_1
  10
135.66528
  20
94.843323
  0
VERTEX
  5
5e2
  8
Layer_1
  10
135.45001
  20
94.970642
  0
VERTEX
  5
5e3
  8
Layer_1
  10
135.31055
  20
95.050568
  0
VERTEX
  5
5e4
  8
Layer_1
  10
135.20526
  20
95.107574
  0
VERTEX
  5
5e5
  8
Layer_1
  10
134.9834
  20
95.224579
  0
VERTEX
  5
5e6
  8
Layer_1
  10
134.84009
  20
95.297516
  0
VERTEX
  5
5e7
  8
Layer_1
  10
134.73248
  20
95.349091
  0
VERTEX
  5
5e8
  8
Layer_1
  10
134.50446
  20
95.455475
  0
VERTEX
  5
5e9
  8
Layer_1
  10
134.35797
  20
95.521454
  0
VERTEX
  5
5ea
  8
Layer_1
  10
134.24695
  20
95.568115
  0
VERTEX
  5
5eb
  8
Layer_1
  10
134.01306
  20
95.663666
  0
VERTEX
  5
5ec
  8
Layer_1
  10
133.86334
  20
95.722351
  0
VERTEX
  5
5ed
  8
Layer_1
  10
133.74915
  20
95.763916
  0
VERTEX
  5
5ee
  8
Layer_1
  10
133.50964
  20
95.848267
  0
VERTEX
  5
5ef
  8
Layer_1
  10
133.35736
  20
95.899536
  0
VERTEX
  5
5f0
  8
Layer_1
  10
133.23834
  20
95.93634
  0
VERTEX
  5
5f1
  8
Layer_1
  10
132.99365
  20
96.009125
  0
VERTEX
  5
5f2
  8
Layer_1
  10
132.83899
  20
96.052856
  0
VERTEX
  5
5f3
  8
Layer_1
  10
132.71429
  20
96.084564
  0
VERTEX
  5
5f4
  8
Layer_1
  10
132.46466
  20
96.145325
  0
VERTEX
  5
5f5
  8
Layer_1
  10
132.30795
  20
96.181213
  0
VERTEX
  5
5f6
  8
Layer_1
  10
132.18375
  20
96.206299
  0
VERTEX
  5
5f7
  8
Layer_1
  10
131.92935
  20
96.254883
  0
VERTEX
  5
5f8
  8
Layer_1
  10
131.771
  20
96.282928
  0
VERTEX
  5
5f9
  8
Layer_1
  10
131.64639
  20
96.301727
  0
VERTEX
  5
5fa
  8
Layer_1
  10
131.38779
  20
96.33786
  0
VERTEX
  5
5fb
  8
Layer_1
  10
131.22836
  20
96.357788
  0
VERTEX
  5
5fc
  8
Layer_1
  10
131.09656
  20
96.371033
  0
VERTEX
  5
5fd
  8
Layer_1
  10
130.83398
  20
96.394196
  0
VERTEX
  5
5fe
  8
Layer_1
  10
130.67365
  20
96.405975
  0
VERTEX
  5
5ff
  8
Layer_1
  10
130.54468
  20
96.412292
  0
VERTEX
  5
600
  8
Layer_1
  10
130.27844
  20
96.422272
  0
VERTEX
  5
601
  8
Layer_1
  10
130.11771
  20
96.426056
  0
VERTEX
  5
602
  8
Layer_1
  10
129.98755
  20
96.425812
  0
VERTEX
  5
603
  8
Layer_1
  10
129.72113
  20
96.422333
  0
VERTEX
  5
604
  8
Layer_1
  10
129.56042
  20
96.417969
  0
VERTEX
  5
605
  8
Layer_1
  10
129.43146
  20
96.411255
  0
VERTEX
  5
606
  8
Layer_1
  10
129.1684
  20
96.394501
  0
VERTEX
  5
607
  8
Layer_1
  10
129.00818
  20
96.382019
  0
VERTEX
  5
608
  8
Layer_1
  10
128.87643
  20
96.368439
  0
VERTEX
  5
609
  8
Layer_1
  10
128.61703
  20
96.338623
  0
VERTEX
  5
60a
  8
Layer_1
  10
128.45755
  20
96.317932
  0
VERTEX
  5
60b
  8
Layer_1
  10
128.33249
  20
96.298676
  0
VERTEX
  5
60c
  8
Layer_1
  10
128.07715
  20
96.256317
  0
VERTEX
  5
60d
  8
Layer_1
  10
127.91898
  20
96.227722
  0
VERTEX
  5
60e
  8
Layer_1
  10
127.79593
  20
96.202271
  0
VERTEX
  5
60f
  8
Layer_1
  10
127.54477
  20
96.147614
  0
VERTEX
  5
610
  8
Layer_1
  10
127.38834
  20
96.111359
  0
VERTEX
  5
611
  8
Layer_1
  10
127.26309
  20
96.078888
  0
VERTEX
  5
612
  8
Layer_1
  10
127.01669
  20
96.012085
  0
VERTEX
  5
613
  8
Layer_1
  10
126.86215
  20
95.967926
  0
VERTEX
  5
614
  8
Layer_1
  10
126.74329
  20
95.930634
  0
VERTEX
  5
615
  8
Layer_1
  10
126.50183
  20
95.852142
  0
VERTEX
  5
616
  8
Layer_1
  10
126.34967
  20
95.800323
  0
VERTEX
  5
617
  8
Layer_1
  10
126.23557
  20
95.758362
  0
VERTEX
  5
618
  8
Layer_1
  10
125.99942
  20
95.668518
  0
VERTEX
  5
619
  8
Layer_1
  10
125.85004
  20
95.609436
  0
VERTEX
  5
61a
  8
Layer_1
  10
125.73923
  20
95.562195
  0
VERTEX
  5
61b
  8
Layer_1
  10
125.5087
  20
95.461365
  0
VERTEX
  5
61c
  8
Layer_1
  10
125.36227
  20
95.394897
  0
VERTEX
  5
61d
  8
Layer_1
  10
125.25482
  20
95.343018
  0
VERTEX
  5
61e
  8
Layer_1
  10
125.03018
  20
95.231445
  0
VERTEX
  5
61f
  8
Layer_1
  10
124.88733
  20
95.157898
  0
VERTEX
  5
620
  8
Layer_1
  10
124.78073
  20
95.099823
  0
VERTEX
  5
621
  8
Layer_1
  10
124.56262
  20
94.977783
  0
VERTEX
  5
622
  8
Layer_1
  10
124.42346
  20
94.897339
  0
VERTEX
  5
623
  8
Layer_1
  10
124.32587
  20
94.837738
  0
VERTEX
  5
624
  8
Layer_1
  10
124.1142
  20
94.705658
  0
VERTEX
  5
625
  8
Layer_1
  10
123.97903
  20
94.618683
  0
VERTEX
  5
626
  8
Layer_1
  10
123.8822
  20
94.55304
  0
VERTEX
  5
627
  8
Layer_1
  10
123.67755
  20
94.411194
  0
VERTEX
  5
628
  8
Layer_1
  10
123.54669
  20
94.317719
  0
VERTEX
  5
629
  8
Layer_1
  10
123.45728
  20
94.250549
  0
VERTEX
  5
62a
  8
Layer_1
  10
123.25983
  20
94.099335
  0
VERTEX
  5
62b
  8
Layer_1
  10
123.13367
  20
93.999939
  0
VERTEX
  5
62c
  8
Layer_1
  10
123.04443
  20
93.926025
  0
VERTEX
  5
62d
  8
Layer_1
  10
122.85461
  20
93.765594
  0
VERTEX
  5
62e
  8
Layer_1
  10
122.73328
  20
93.660095
  0
VERTEX
  5
62f
  8
Layer_1
  10
122.64993
  20
93.584167
  0
VERTEX
  5
630
  8
Layer_1
  10
122.46814
  20
93.41507
  0
VERTEX
  5
631
  8
Layer_1
  10
122.35205
  20
93.303894
  0
VERTEX
  5
632
  8
Layer_1
  10
122.2706
  20
93.222321
  0
VERTEX
  5
633
  8
Layer_1
  10
122.09717
  20
93.044678
  0
VERTEX
  5
634
  8
Layer_1
  10
121.98651
  20
92.92807
  0
VERTEX
  5
635
  8
Layer_1
  10
121.91077
  20
92.844482
  0
VERTEX
  5
636
  8
Layer_1
  10
121.74579
  20
92.6586
  0
VERTEX
  5
637
  8
Layer_1
  10
121.64081
  20
92.536896
  0
VERTEX
  5
638
  8
Layer_1
  10
121.56885
  20
92.449463
  0
VERTEX
  5
639
  8
Layer_1
  10
121.41275
  20
92.255768
  0
VERTEX
  5
63a
  8
Layer_1
  10
121.3136
  20
92.129181
  0
VERTEX
  5
63b
  8
Layer_1
  10
121.24365
  20
92.0354
  0
VERTEX
  5
63c
  8
Layer_1
  10
121.09702
  20
91.83429
  0
VERTEX
  5
63d
  8
Layer_1
  10
121.00412
  20
91.703003
  0
VERTEX
  5
63e
  8
Layer_1
  10
120.94037
  20
91.608154
  0
VERTEX
  5
63f
  8
Layer_1
  10
120.80316
  20
91.39978
  0
VERTEX
  5
640
  8
Layer_1
  10
120.71671
  20
91.264343
  0
VERTEX
  5
641
  8
Layer_1
  10
120.65741
  20
91.166504
  0
VERTEX
  5
642
  8
Layer_1
  10
120.53006
  20
90.951416
  0
VERTEX
  5
643
  8
Layer_1
  10
120.45016
  20
90.811951
  0
VERTEX
  5
644
  8
Layer_1
  10
120.39243
  20
90.705231
  0
VERTEX
  5
645
  8
Layer_1
  10
120.27542
  20
90.483398
  0
VERTEX
  5
646
  8
Layer_1
  10
120.20251
  20
90.340088
  0
VERTEX
  5
647
  8
Layer_1
  10
120.15094
  20
90.232483
  0
VERTEX
  5
648
  8
Layer_1
  10
120.04453
  20
90.004456
  0
VERTEX
  5
649
  8
Layer_1
  10
119.97858
  20
89.857971
  0
VERTEX
  5
64a
  8
Layer_1
  10
119.93185
  20
89.746918
  0
VERTEX
  5
64b
  8
Layer_1
  10
119.83633
  20
89.513
  0
VERTEX
  5
64c
  8
Layer_1
  10
119.77765
  20
89.363342
  0
VERTEX
  5
64d
  8
Layer_1
  10
119.73611
  20
89.249146
  0
VERTEX
  5
64e
  8
Layer_1
  10
119.65176
  20
89.009644
  0
VERTEX
  5
64f
  8
Layer_1
  10
119.60049
  20
88.857361
  0
VERTEX
  5
650
  8
Layer_1
  10
119.56277
  20
88.735382
  0
VERTEX
  5
651
  8
Layer_1
  10
119.49014
  20
88.490692
  0
VERTEX
  5
652
  8
Layer_1
  10
119.44656
  20
88.33606
  0
VERTEX
  5
653
  8
Layer_1
  10
119.41602
  20
88.216675
  0
VERTEX
  5
654
  8
Layer_1
  10
119.35513
  20
87.966888
  0
VERTEX
  5
655
  8
Layer_1
  10
119.31927
  20
87.810211
  0
VERTEX
  5
656
  8
Layer_1
  10
119.2937
  20
87.684143
  0
VERTEX
  5
657
  8
Layer_1
  10
119.24515
  20
87.429901
  0
VERTEX
  5
658
  8
Layer_1
  10
119.21722
  20
87.271576
  0
VERTEX
  5
659
  8
Layer_1
  10
119.19797
  20
87.143494
  0
VERTEX
  5
65a
  8
Layer_1
  10
119.16196
  20
86.884857
  0
VERTEX
  5
65b
  8
Layer_1
  10
119.14191
  20
86.725311
  0
VERTEX
  5
65c
  8
Layer_1
  10
119.12943
  20
86.59964
  0
VERTEX
  5
65d
  8
Layer_1
  10
119.10614
  20
86.337067
  0
VERTEX
  5
65e
  8
Layer_1
  10
119.09424
  20
86.176727
  0
VERTEX
  5
65f
  8
Layer_1
  10
119.08771
  20
86.044678
  0
VERTEX
  5
660
  8
Layer_1
  10
119.07773
  20
85.778442
  0
VERTEX
  5
661
  8
Layer_1
  10
119.07394
  20
85.617706
  0
VERTEX
  5
662
  8
Layer_1
  10
119.07419
  20
85.487549
  0
VERTEX
  5
663
  8
Layer_1
  10
119.0777
  20
85.22113
  0
VERTEX
  5
664
  8
Layer_1
  10
119.08206
  20
85.060455
  0
VERTEX
  5
665
  8
Layer_1
  10
119.08899
  20
84.928375
  0
VERTEX
  5
666
  8
Layer_1
  10
119.10587
  20
84.665314
  0
VERTEX
  5
667
  8
Layer_1
  10
119.11838
  20
84.505096
  0
VERTEX
  5
668
  8
Layer_1
  10
119.13144
  20
84.379425
  0
VERTEX
  5
669
  8
Layer_1
  10
119.16116
  20
84.119995
  0
VERTEX
  5
66a
  8
Layer_1
  10
119.18155
  20
83.960648
  0
VERTEX
  5
66b
  8
Layer_1
  10
119.20135
  20
83.832489
  0
VERTEX
  5
66c
  8
Layer_1
  10
119.24371
  20
83.577118
  0
VERTEX
  5
66d
  8
Layer_1
  10
119.27225
  20
83.418945
  0
VERTEX
  5
66e
  8
Layer_1
  10
119.29825
  20
83.292969
  0
VERTEX
  5
66f
  8
Layer_1
  10
119.35303
  20
83.041809
  0
VERTEX
  5
670
  8
Layer_1
  10
119.38962
  20
82.885208
  0
VERTEX
  5
671
  8
Layer_1
  10
119.42044
  20
82.766037
  0
VERTEX
  5
672
  8
Layer_1
  10
119.48709
  20
82.519653
  0
VERTEX
  5
673
  8
Layer_1
  10
119.53128
  20
82.365097
  0
VERTEX
  5
674
  8
Layer_1
  10
119.5694
  20
82.243301
  0
VERTEX
  5
675
  8
Layer_1
  10
119.64789
  20
82.001831
  0
VERTEX
  5
676
  8
Layer_1
  10
119.69968
  20
81.849701
  0
VERTEX
  5
677
  8
Layer_1
  10
119.74167
  20
81.73558
  0
VERTEX
  5
678
  8
Layer_1
  10
119.83145
  20
81.499435
  0
VERTEX
  5
679
  8
Layer_1
  10
119.89059
  20
81.350006
  0
VERTEX
  5
67a
  8
Layer_1
  10
119.93784
  20
81.239227
  0
VERTEX
  5
67b
  8
Layer_1
  10
120.03864
  20
81.008713
  0
VERTEX
  5
67c
  8
Layer_1
  10
120.10507
  20
80.862289
  0
VERTEX
  5
67d
  8
Layer_1
  10
120.15768
  20
80.75354
  0
VERTEX
  5
67e
  8
Layer_1
  10
120.26926
  20
80.529053
  0
VERTEX
  5
67f
  8
Layer_1
  10
120.3428
  20
80.3862
  0
VERTEX
  5
680
  8
Layer_1
  10
120.39948
  20
80.282318
  0
VERTEX
  5
681
  8
Layer_1
  10
120.52155
  20
80.064041
  0
VERTEX
  5
682
  8
Layer_1
  10
120.60184
  20
79.924881
  0
VERTEX
  5
683
  8
Layer_1
  10
120.66229
  20
79.825867
  0
VERTEX
  5
684
  8
Layer_1
  10
120.79437
  20
79.614182
  0
VERTEX
  5
685
  8
Layer_1
  10
120.88129
  20
79.479034
  0
VERTEX
  5
686
  8
Layer_1
  10
120.94547
  20
79.384308
  0
VERTEX
  5
687
  8
Layer_1
  10
121.08716
  20
79.179703
  0
VERTEX
  5
688
  8
Layer_1
  10
121.18063
  20
79.048813
  0
VERTEX
  5
689
  8
Layer_1
  10
121.25082
  20
78.955292
  0
VERTEX
  5
68a
  8
Layer_1
  10
121.40216
  20
78.757874
  0
VERTEX
  5
68b
  8
Layer_1
  10
121.50171
  20
78.631668
  0
VERTEX
  5
68c
  8
Layer_1
  10
121.57535
  20
78.542862
  0
VERTEX
  5
68d
  8
Layer_1
  10
121.73578
  20
78.353195
  0
VERTEX
  5
68e
  8
Layer_1
  10
121.84131
  20
78.231842
  0
VERTEX
  5
68f
  8
Layer_1
  10
121.91431
  20
78.151779
  0
VERTEX
  5
690
  8
Layer_1
  10
122.0834
  20
77.969849
  0
VERTEX
  5
691
  8
Layer_1
  10
122.19449
  20
77.853638
  0
VERTEX
  5
692
  8
Layer_1
  10
122.27771
  20
77.77063
  0
VERTEX
  5
693
  8
Layer_1
  10
122.45529
  20
77.597153
  0
VERTEX
  5
694
  8
Layer_1
  10
122.57193
  20
77.486496
  0
VERTEX
  5
695
  8
Layer_1
  10
122.65552
  20
77.410782
  0
VERTEX
  5
696
  8
Layer_1
  10
122.84137
  20
77.245789
  0
VERTEX
  5
697
  8
Layer_1
  10
122.9631
  20
77.140823
  0
VERTEX
  5
698
  8
Layer_1
  10
123.05249
  20
77.067276
  0
VERTEX
  5
699
  8
Layer_1
  10
123.24622
  20
76.911301
  0
VERTEX
  5
69a
  8
Layer_1
  10
123.37277
  20
76.81218
  0
VERTEX
  5
69b
  8
Layer_1
  10
123.46252
  20
76.745361
  0
VERTEX
  5
69c
  8
Layer_1
  10
123.66364
  20
76.598587
  0
VERTEX
  5
69d
  8
Layer_1
  10
123.79477
  20
76.505707
  0
VERTEX
  5
69e
  8
Layer_1
  10
123.89185
  20
76.440353
  0
VERTEX
  5
69f
  8
Layer_1
  10
124.10022
  20
76.303162
  0
VERTEX
  5
6a0
  8
Layer_1
  10
124.23566
  20
76.216721
  0
VERTEX
  5
6a1
  8
Layer_1
  10
124.3335
  20
76.157394
  0
VERTEX
  5
6a2
  8
Layer_1
  10
124.54861
  20
76.030075
  0
VERTEX
  5
6a3
  8
Layer_1
  10
124.68805
  20
75.95018
  0
VERTEX
  5
6a4
  8
Layer_1
  10
124.79477
  20
75.892426
  0
VERTEX
  5
6a5
  8
Layer_1
  10
125.0166
  20
75.775421
  0
VERTEX
  5
6a6
  8
Layer_1
  10
125.15991
  20
75.702499
  0
VERTEX
  5
6a7
  8
Layer_1
  10
125.26755
  20
75.650925
  0
VERTEX
  5
6a8
  8
Layer_1
  10
125.49554
  20
75.544525
  0
VERTEX
  5
6a9
  8
Layer_1
  10
125.64203
  20
75.478577
  0
VERTEX
  5
6aa
  8
Layer_1
  10
125.75308
  20
75.43187
  0
VERTEX
  5
6ab
  8
Layer_1
  10
125.98697
  20
75.336349
  0
VERTEX
  5
6ac
  8
Layer_1
  10
126.13663
  20
75.277649
  0
VERTEX
  5
6ad
  8
Layer_1
  10
126.25085
  20
75.236115
  0
VERTEX
  5
6ae
  8
Layer_1
  10
126.49036
  20
75.151749
  0
VERTEX
  5
6af
  8
Layer_1
  10
126.64264
  20
75.100479
  0
VERTEX
  5
6b0
  8
Layer_1
  10
126.76465
  20
75.062759
  0
VERTEX
  5
6b1
  8
Layer_1
  10
127.00934
  20
74.990128
  0
VERTEX
  5
6b2
  8
Layer_1
  10
127.16394
  20
74.946564
  0
VERTEX
  5
6b3
  8
Layer_1
  10
127.28336
  20
74.916031
  0
VERTEX
  5
6b4
  8
Layer_1
  10
127.53311
  20
74.855148
  0
VERTEX
  5
6b5
  8
Layer_1
  10
127.68979
  20
74.81926
  0
VERTEX
  5
6b6
  8
Layer_1
  10
127.81586
  20
74.793716
  0
VERTEX
  5
6b7
  8
Layer_1
  10
128.0701
  20
74.745132
  0
VERTEX
  5
6b8
  8
Layer_1
  10
128.22845
  20
74.717209
  0
VERTEX
  5
6b9
  8
Layer_1
  10
128.35361
  20
74.698288
  0
VERTEX
  5
6ba
  8
Layer_1
  10
128.61221
  20
74.66214
  0
VERTEX
  5
6bb
  8
Layer_1
  10
128.77164
  20
74.642227
  0
VERTEX
  5
6bc
  8
Layer_1
  10
128.90344
  20
74.628967
  0
VERTEX
  5
6bd
  8
Layer_1
  10
129.16602
  20
74.605835
  0
VERTEX
  5
6be
  8
Layer_1
  10
129.32635
  20
74.59404
  0
VERTEX
  5
6bf
  8
Layer_1
  10
129.45532
  20
74.587708
  0
VERTEX
  5
6c0
  8
Layer_1
  10
129.72159
  20
74.577728
  0
VERTEX
  5
6c1
  8
Layer_1
  10
129.88232
  20
74.573944
  0
VERTEX
  5
6c2
  8
Layer_1
  10
130.01248
  20
74.574188
  0
SEQEND
  0
CIRCLE
  5
6c4
  8
Layer_1
  62
5
  10
130.10045
  20
85.395111
  30
0
  40
2.3556213
  0
ENDSEC
  0
EOF
