  0
SECTION
  2
HEADER
  9
$ACADVER
  1
AC1009
  0
ENDSEC
  0
SECTION
  2
ENTITIES
  0
POLYLINE
  5
90
  8
Layer_0
  62
5
  66
1
  10
0
  20
0
  30
0
  0
VERTEX
  5
90
  8
Layer_0
  10
923.97491
  20
412.54214
  42
0.086758591
  0
VERTEX
  5
91
  8
Layer_0
  10
926.73029
  20
412.57071
  42
0.1466012
  0
VERTEX
  5
92
  8
Layer_0
  10
930.81531
  20
414.66934
  0
VERTEX
  5
93
  8
Layer_0
  10
930.81531
  20
411.336
  42
0.23636689
  0
VERTEX
  5
94
  8
Layer_0
  10
936.51563
  20
415.67447
  0
VERTEX
  5
95
  8
Layer_0
  10
937.6557
  20
412.54214
  42
0.23636642
  0
VERTEX
  5
96
  8
Layer_0
  10
941.52844
  20
418.5686
  0
VERTEX
  5
97
  8
Layer_0
  10
943.67102
  20
416.01511
  42
0.23636674
  0
VERTEX
  5
98
  8
Layer_0
  10
945.24902
  20
423.00266
  0
VERTEX
  5
99
  8
Layer_0
  10
948.1358
  20
421.336
  42
0.23636749
  0
VERTEX
  5
9a
  8
Layer_0
  10
947.22876
  20
428.44186
  0
VERTEX
  5
9b
  8
Layer_0
  10
950.51147
  20
427.86304
  42
0.23636704
  0
VERTEX
  5
9c
  8
Layer_0
  10
947.22876
  20
434.23013
  0
VERTEX
  5
9d
  8
Layer_0
  10
950.51147
  20
434.80896
  42
0.2363674
  0
VERTEX
  5
9e
  8
Layer_0
  10
945.24902
  20
439.66934
  0
VERTEX
  5
9f
  8
Layer_0
  10
948.1358
  20
441.336
  42
0.2363667
  0
VERTEX
  5
a0
  8
Layer_0
  10
941.52844
  20
444.10339
  0
VERTEX
  5
a1
  8
Layer_0
  10
943.67102
  20
446.65689
  42
0.23636713
  0
VERTEX
  5
a2
  8
Layer_0
  10
936.51563
  20
446.99756
  0
VERTEX
  5
a3
  8
Layer_0
  10
937.6557
  20
450.12985
  42
0.23636639
  0
VERTEX
  5
a4
  8
Layer_0
  10
930.81531
  20
448.00266
  0
VERTEX
  5
a5
  8
Layer_0
  10
930.81531
  20
451.336
  42
0.23636727
  0
VERTEX
  5
a6
  8
Layer_0
  10
925.11499
  20
446.99756
  0
VERTEX
  5
a7
  8
Layer_0
  10
923.97491
  20
450.12985
  42
0.22649704
  0
VERTEX
  5
a8
  8
Layer_0
  10
920.13977
  20
444.40079
  0
VERTEX
  5
a9
  8
Layer_0
  10
920.10217
  20
444.10339
  0
VERTEX
  5
aa
  8
Layer_0
  10
917.95953
  20
446.65689
  42
0.22649743
  0
VERTEX
  5
ab
  8
Layer_0
  10
916.31512
  20
439.96164
  0
VERTEX
  5
ac
  8
Layer_0
  10
916.38153
  20
439.66934
  0
VERTEX
  5
ad
  8
Layer_0
  10
913.49481
  20
441.336
  42
0.22649718
  0
VERTEX
  5
ae
  8
Layer_0
  10
914.23944
  20
434.48209
  0
VERTEX
  5
af
  8
Layer_0
  10
914.40186
  20
434.23013
  0
VERTEX
  5
b0
  8
Layer_0
  10
911.11914
  20
434.80896
  42
0.22649765
  0
VERTEX
  5
b1
  8
Layer_0
  10
914.16309
  20
428.62311
  0
VERTEX
  5
b2
  8
Layer_0
  10
914.40186
  20
428.44186
  0
VERTEX
  5
b3
  8
Layer_0
  10
911.11914
  20
427.86304
  42
0.2264973
  0
VERTEX
  5
b4
  8
Layer_0
  10
916.09521
  20
423.09131
  0
VERTEX
  5
b5
  8
Layer_0
  10
916.38153
  20
423.00266
  0
VERTEX
  5
b6
  8
Layer_0
  10
913.49481
  20
421.336
  42
0.22649728
  0
VERTEX
  5
b7
  8
Layer_0
  10
919.8028
  20
418.55396
  0
VERTEX
  5
b8
  8
Layer_0
  10
920.10217
  20
418.5686
  0
VERTEX
  5
b9
  8
Layer_0
  10
917.95953
  20
416.01511
  42
0.20664746
  0
VERTEX
  5
ba
  8
Layer_0
  10
924.26703
  20
415.35532
  42
0.028334934
  0
VERTEX
  5
bb
  8
Layer_0
  10
925.11499
  20
415.67447
  0
VERTEX
  5
bc
  8
Layer_0
  10
923.97491
  20
412.54214
  0
SEQEND
  0
POLYLINE
  5
be
  8
Layer_0
  62
5
  66
1
  10
0
  20
0
  30
0
  0
VERTEX
  5
be
  8
Layer_0
  10
949.1153
  20
462.41592
  42
0.395273
  0
VERTEX
  5
bf
  8
Layer_0
  10
945.38055
  20
461.97736
  42
0.41420734
  0
VERTEX
  5
c0
  8
Layer_0
  10
945.70813
  20
458.10208
  42
0.39479732
  0
VERTEX
  5
c1
  8
Layer_0
  10
949.46039
  20
458.29343
  42
0.41421303
  0
VERTEX
  5
c2
  8
Layer_0
  10
949.39203
  20
462.18192
  42
0.032957812
  0
VERTEX
  5
c3
  8
Layer_0
  10
949.1153
  20
462.41592
  0
SEQEND
  0
POLYLINE
  5
c5
  8
Layer_0
  62
5
  66
1
  10
0
  20
0
  30
0
  0
VERTEX
  5
c5
  8
Layer_0
  10
926.64832
  20
450.02081
  42
-0.012576189
  0
VERTEX
  5
c6
  8
Layer_0
  10
927.16644
  20
450.68689
  42
-0.31865042
  0
VERTEX
  5
c7
  8
Layer_0
  10
945.88452
  20
455.81876
  42
0.063347536
  0
VERTEX
  5
c8
  8
Layer_0
  10
947.03326
  20
455.55847
  42
0.40256545
  0
VERTEX
  5
c9
  8
Layer_0
  10
952.10541
  20
459.56973
  42
0.38893718
  0
VERTEX
  5
ca
  8
Layer_0
  10
948.51538
  20
464.75433
  42
0.346925
  0
VERTEX
  5
cb
  8
Layer_0
  10
926.94727
  20
452.67068
  0
VERTEX
  5
cc
  8
Layer_0
  10
926.64832
  20
450.02081
  0
SEQEND
  0
CIRCLE
  5
ce
  8
Layer_0
  62
5
  10
930.8092
  20
431.33496
  30
0
  40
1.4999762
  0
POLYLINE
  5
ce
  8
Layer_0
  62
5
  66
1
  10
0
  20
0
  30
0
  0
VERTEX
  5
ce
  8
Layer_0
  10
963.63538
  20
436.41797
  42
-0.27288802
  0
VERTEX
  5
cf
  8
Layer_0
  10
973.48004
  20
430.61267
  42
-0.27288825
  0
VERTEX
  5
d0
  8
Layer_0
  10
973.16449
  20
419.18814
  42
-0.40338869
  0
VERTEX
  5
d1
  8
Layer_0
  10
958.01312
  20
415.42361
  42
-0.40344079
  0
VERTEX
  5
d2
  8
Layer_0
  10
953.69012
  20
430.42673
  42
-0.27794154
  0
VERTEX
  5
d3
  8
Layer_0
  10
963.63538
  20
436.41797
  0
SEQEND
  0
CIRCLE
  5
d5
  8
Layer_0
  62
5
  10
963.62915
  20
425.16696
  30
0
  40
1.4999762
  0
POLYLINE
  5
d5
  8
Layer_0
  62
5
  66
1
  10
0
  20
0
  30
0
  0
VERTEX
  5
d5
  8
Layer_0
  10
987.63538
  20
434.41895
  42
-0.27288802
  0
VERTEX
  5
d6
  8
Layer_0
  10
997.48004
  20
428.61365
  42
-0.27288825
  0
VERTEX
  5
d7
  8
Layer_0
  10
997.16449
  20
417.18912
  42
-0.40338869
  0
VERTEX
  5
d8
  8
Layer_0
  10
982.01312
  20
413.42459
  42
-0.40344079
  0
VERTEX
  5
d9
  8
Layer_0
  10
977.69012
  20
428.4277
  42
-0.27794154
  0
VERTEX
  5
da
  8
Layer_0
  10
987.63538
  20
434.41895
  0
SEQEND
  0
CIRCLE
  5
dc
  8
Layer_0
  62
5
  10
987.62915
  20
423.16797
  30
0
  40
1.4999762
  0
CIRCLE
  5
dc
  8
Layer_0
  62
5
  10
957.71912
  20
447.09998
  30
0
  40
7.5
  0
POLYLINE
  5
dc
  8
Layer_0
  62
5
  66
1
  10
0
  20
0
  30
0
  0
VERTEX
  5
dc
  8
Layer_0
  10
968.06934
  20
442.51047
  0
VERTEX
  5
dd
  8
Layer_0
  10
968.06921
  20
439.84317
  0
SEQEND
  0
POLYLINE
  5
df
  8
Layer_0
  62
5
  66
1
  10
0
  20
0
  30
0
  0
VERTEX
  5
df
  8
Layer_0
  10
968.06921
  20
439.84317
  0
VERTEX
  5
e0
  8
Layer_0
  10
968.41214
  20
439.81162
  0
VERTEX
  5
e1
  8
Layer_0
  10
968.72429
  20
439.78483
  0
VERTEX
  5
e2
  8
Layer_0
  10
969.00696
  20
439.76243
  0
VERTEX
  5
e3
  8
Layer_0
  10
969.26146
  20
439.74406
  0
VERTEX
  5
e4
  8
Layer_0
  10
969.69115
  20
439.71796
  0
VERTEX
  5
e5
  8
Layer_0
  10
970.02379
  20
439.70364
  0
VERTEX
  5
e6
  8
Layer_0
  10
970.26979
  20
439.69818
  0
VERTEX
  5
e7
  8
Layer_0
  10
970.43957
  20
439.6987
  0
VERTEX
  5
e8
  8
Layer_0
  10
970.54355
  20
439.70229
  0
VERTEX
  5
e9
  8
Layer_0
  10
970.59216
  20
439.70605
  0
VERTEX
  5
ea
  8
Layer_0
  10
970.61656
  20
439.70894
  0
VERTEX
  5
eb
  8
Layer_0
  10
970.59216
  20
439.70605
  0
VERTEX
  5
ec
  8
Layer_0
  10
971.03096
  20
439.78395
  0
VERTEX
  5
ed
  8
Layer_0
  10
971.45978
  20
439.87399
  0
VERTEX
  5
ee
  8
Layer_0
  10
971.64132
  20
439.91487
  0
VERTEX
  5
ef
  8
Layer_0
  10
971.78542
  20
439.94837
  0
VERTEX
  5
f0
  8
Layer_0
  10
971.88042
  20
439.97102
  0
VERTEX
  5
f1
  8
Layer_0
  10
971.91467
  20
439.97934
  0
VERTEX
  5
f2
  8
Layer_0
  10
973.22083
  20
440.51532
  0
VERTEX
  5
f3
  8
Layer_0
  10
974.40833
  20
441.29144
  0
VERTEX
  5
f4
  8
Layer_0
  10
975.63562
  20
442.52789
  0
VERTEX
  5
f5
  8
Layer_0
  10
976.46619
  20
443.8465
  0
VERTEX
  5
f6
  8
Layer_0
  10
976.96008
  20
445.13959
  0
VERTEX
  5
f7
  8
Layer_0
  10
977.18896
  20
446.32458
  0
VERTEX
  5
f8
  8
Layer_0
  10
977.18445
  20
448.03009
  0
SEQEND
  0
POLYLINE
  5
fa
  8
Layer_0
  62
5
  66
1
  10
0
  20
0
  30
0
  0
VERTEX
  5
fa
  8
Layer_0
  10
977.18445
  20
448.02893
  0
VERTEX
  5
fb
  8
Layer_0
  10
976.90601
  20
449.3605
  0
VERTEX
  5
fc
  8
Layer_0
  10
976.21082
  20
450.94293
  0
VERTEX
  5
fd
  8
Layer_0
  10
975.52905
  20
451.91956
  0
VERTEX
  5
fe
  8
Layer_0
  10
974.26636
  20
453.13397
  0
VERTEX
  5
ff
  8
Layer_0
  10
973.08545
  20
453.86938
  0
VERTEX
  5
100
  8
Layer_0
  10
971.67688
  20
454.40372
  0
VERTEX
  5
101
  8
Layer_0
  10
970.34753
  20
454.63297
  0
VERTEX
  5
102
  8
Layer_0
  10
969.18445
  20
454.63773
  0
VERTEX
  5
103
  8
Layer_0
  10
968.06921
  20
454.47202
  0
VERTEX
  5
104
  8
Layer_0
  10
968.06921
  20
451.95273
  0
VERTEX
  5
105
  8
Layer_0
  10
969.27808
  20
451.88965
  0
VERTEX
  5
106
  8
Layer_0
  10
970.9386
  20
451.66867
  0
VERTEX
  5
107
  8
Layer_0
  10
972.39026
  20
450.99957
  0
VERTEX
  5
108
  8
Layer_0
  10
973.32434
  20
450.14471
  0
VERTEX
  5
109
  8
Layer_0
  10
974.08411
  20
448.85938
  0
SEQEND
  0
POLYLINE
  5
10b
  8
Layer_0
  62
5
  66
1
  10
0
  20
0
  30
0
  0
VERTEX
  5
10b
  8
Layer_0
  10
974.08374
  20
448.85992
  0
VERTEX
  5
10c
  8
Layer_0
  10
974.4032
  20
447.27969
  0
VERTEX
  5
10d
  8
Layer_0
  10
974.29565
  20
446.15796
  0
VERTEX
  5
10e
  8
Layer_0
  10
973.84436
  20
444.94055
  0
VERTEX
  5
10f
  8
Layer_0
  10
973.82497
  20
444.91343
  0
VERTEX
  5
110
  8
Layer_0
  10
973.77242
  20
444.83977
  0
VERTEX
  5
111
  8
Layer_0
  10
973.69519
  20
444.73116
  0
VERTEX
  5
112
  8
Layer_0
  10
973.60173
  20
444.59916
  0
VERTEX
  5
113
  8
Layer_0
  10
973.39998
  20
444.31133
  0
VERTEX
  5
114
  8
Layer_0
  10
973.23486
  20
444.06888
  0
VERTEX
  5
115
  8
Layer_0
  10
973.14056
  20
443.95699
  0
VERTEX
  5
116
  8
Layer_0
  10
972.99309
  20
443.81777
  0
VERTEX
  5
117
  8
Layer_0
  10
972.80926
  20
443.66249
  0
VERTEX
  5
118
  8
Layer_0
  10
972.60587
  20
443.50246
  0
VERTEX
  5
119
  8
Layer_0
  10
972.39971
  20
443.34897
  0
VERTEX
  5
11a
  8
Layer_0
  10
972.20761
  20
443.21331
  0
VERTEX
  5
11b
  8
Layer_0
  10
972.04635
  20
443.10678
  0
VERTEX
  5
11c
  8
Layer_0
  10
971.93274
  20
443.04068
  0
VERTEX
  5
11d
  8
Layer_0
  10
971.80245
  20
442.98686
  0
VERTEX
  5
11e
  8
Layer_0
  10
971.59862
  20
442.91487
  0
VERTEX
  5
11f
  8
Layer_0
  10
971.34928
  20
442.83252
  0
VERTEX
  5
120
  8
Layer_0
  10
971.08244
  20
442.74762
  0
VERTEX
  5
121
  8
Layer_0
  10
970.82613
  20
442.66799
  0
VERTEX
  5
122
  8
Layer_0
  10
970.60835
  20
442.60144
  0
VERTEX
  5
123
  8
Layer_0
  10
970.45714
  20
442.55578
  0
VERTEX
  5
124
  8
Layer_0
  10
970.40051
  20
442.53882
  0
VERTEX
  5
125
  8
Layer_0
  10
969.14185
  20
442.53058
  0
VERTEX
  5
126
  8
Layer_0
  10
968.39087
  20
442.69104
  0
VERTEX
  5
127
  8
Layer_0
  10
968.06921
  20
442.80008
  0
VERTEX
  5
128
  8
Layer_0
  10
968.06934
  20
442.51047
  0
SEQEND
  0
POLYLINE
  5
12a
  8
Layer_0
  62
5
  66
1
  10
0
  20
0
  30
0
  0
VERTEX
  5
12a
  8
Layer_0
  10
981.25433
  20
459.46402
  42
0.395273
  0
VERTEX
  5
12b
  8
Layer_0
  10
977.64984
  20
460.53546
  42
0.41420734
  0
VERTEX
  5
12c
  8
Layer_0
  10
976.42096
  20
456.84564
  42
0.39479732
  0
VERTEX
  5
12d
  8
Layer_0
  10
979.94397
  20
455.54013
  42
0.41421303
  0
VERTEX
  5
12e
  8
Layer_0
  10
981.41626
  20
459.13974
  42
0.032957813
  0
VERTEX
  5
12f
  8
Layer_0
  10
981.25433
  20
459.46402
  0
SEQEND
  0
POLYLINE
  5
131
  8
Layer_0
  62
5
  66
1
  10
0
  20
0
  30
0
  0
VERTEX
  5
131
  8
Layer_0
  10
955.71893
  20
456.94513
  42
-0.012576189
  0
VERTEX
  5
132
  8
Layer_0
  10
956.45789
  20
457.35257
  42
-0.31865042
  0
VERTEX
  5
133
  8
Layer_0
  10
975.68164
  20
454.67813
  42
0.063347536
  0
VERTEX
  5
134
  8
Layer_0
  10
976.63428
  20
453.98547
  42
0.40256545
  0
VERTEX
  5
135
  8
Layer_0
  10
982.87799
  20
455.66858
  42
0.38893718
  0
VERTEX
  5
136
  8
Layer_0
  10
981.62628
  20
461.84933
  42
0.346925
  0
VERTEX
  5
137
  8
Layer_0
  10
957.03967
  20
459.26175
  0
VERTEX
  5
138
  8
Layer_0
  10
955.71893
  20
456.94513
  0
SEQEND
  0
CIRCLE
  5
13a
  8
Layer_0
  62
5
  10
986.64917
  20
444.14896
  30
0
  40
7.5
  0
POLYLINE
  5
13a
  8
Layer_0
  62
5
  66
1
  10
0
  20
0
  30
0
  0
VERTEX
  5
13a
  8
Layer_0
  10
996.99438
  20
439.55954
  0
VERTEX
  5
13b
  8
Layer_0
  10
996.99426
  20
436.89224
  0
SEQEND
  0
POLYLINE
  5
13d
  8
Layer_0
  62
5
  66
1
  10
0
  20
0
  30
0
  0
VERTEX
  5
13d
  8
Layer_0
  10
996.99426
  20
436.89224
  0
VERTEX
  5
13e
  8
Layer_0
  10
997.33719
  20
436.86069
  0
VERTEX
  5
13f
  8
Layer_0
  10
997.64934
  20
436.8339
  0
VERTEX
  5
140
  8
Layer_0
  10
997.93201
  20
436.8115
  0
VERTEX
  5
141
  8
Layer_0
  10
998.18651
  20
436.79313
  0
VERTEX
  5
142
  8
Layer_0
  10
998.6162
  20
436.76703
  0
VERTEX
  5
143
  8
Layer_0
  10
998.94884
  20
436.75271
  0
VERTEX
  5
144
  8
Layer_0
  10
999.19483
  20
436.74725
  0
VERTEX
  5
145
  8
Layer_0
  10
999.36461
  20
436.74777
  0
VERTEX
  5
146
  8
Layer_0
  10
999.4686
  20
436.75136
  0
VERTEX
  5
147
  8
Layer_0
  10
999.51721
  20
436.75513
  0
VERTEX
  5
148
  8
Layer_0
  10
999.54161
  20
436.75801
  0
VERTEX
  5
149
  8
Layer_0
  10
999.51721
  20
436.75513
  0
VERTEX
  5
14a
  8
Layer_0
  10
999.95601
  20
436.83303
  0
VERTEX
  5
14b
  8
Layer_0
  10
1000.3848
  20
436.92306
  0
VERTEX
  5
14c
  8
Layer_0
  10
1000.5664
  20
436.96394
  0
VERTEX
  5
14d
  8
Layer_0
  10
1000.7105
  20
436.99744
  0
VERTEX
  5
14e
  8
Layer_0
  10
1000.8055
  20
437.02009
  0
VERTEX
  5
14f
  8
Layer_0
  10
1000.8397
  20
437.02841
  0
VERTEX
  5
150
  8
Layer_0
  10
1002.1459
  20
437.56439
  0
VERTEX
  5
151
  8
Layer_0
  10
1003.3334
  20
438.34052
  0
VERTEX
  5
152
  8
Layer_0
  10
1004.5607
  20
439.57697
  0
VERTEX
  5
153
  8
Layer_0
  10
1005.3912
  20
440.89557
  0
VERTEX
  5
154
  8
Layer_0
  10
1005.8851
  20
442.18866
  0
VERTEX
  5
155
  8
Layer_0
  10
1006.114
  20
443.37366
  0
VERTEX
  5
156
  8
Layer_0
  10
1006.1095
  20
445.07916
  0
SEQEND
  0
POLYLINE
  5
158
  8
Layer_0
  62
5
  66
1
  10
0
  20
0
  30
0
  0
VERTEX
  5
158
  8
Layer_0
  10
1006.1095
  20
445.078
  0
VERTEX
  5
159
  8
Layer_0
  10
1005.8311
  20
446.40958
  0
VERTEX
  5
15a
  8
Layer_0
  10
1005.1359
  20
447.992
  0
VERTEX
  5
15b
  8
Layer_0
  10
1004.4541
  20
448.96863
  0
VERTEX
  5
15c
  8
Layer_0
  10
1003.1914
  20
450.18304
  0
VERTEX
  5
15d
  8
Layer_0
  10
1002.0105
  20
450.91846
  0
VERTEX
  5
15e
  8
Layer_0
  10
1000.6019
  20
451.45279
  0
VERTEX
  5
15f
  8
Layer_0
  10
999.27258
  20
451.68204
  0
VERTEX
  5
160
  8
Layer_0
  10
998.1095
  20
451.6868
  0
VERTEX
  5
161
  8
Layer_0
  10
996.99426
  20
451.52109
  0
VERTEX
  5
162
  8
Layer_0
  10
996.99426
  20
449.0018
  0
VERTEX
  5
163
  8
Layer_0
  10
998.20313
  20
448.93872
  0
VERTEX
  5
164
  8
Layer_0
  10
999.86365
  20
448.71774
  0
VERTEX
  5
165
  8
Layer_0
  10
1001.3153
  20
448.04865
  0
VERTEX
  5
166
  8
Layer_0
  10
1002.2494
  20
447.19379
  0
VERTEX
  5
167
  8
Layer_0
  10
1003.0092
  20
445.90845
  0
SEQEND
  0
POLYLINE
  5
169
  8
Layer_0
  62
5
  66
1
  10
0
  20
0
  30
0
  0
VERTEX
  5
169
  8
Layer_0
  10
1003.0088
  20
445.909
  0
VERTEX
  5
16a
  8
Layer_0
  10
1003.3282
  20
444.32877
  0
VERTEX
  5
16b
  8
Layer_0
  10
1003.2207
  20
443.20703
  0
VERTEX
  5
16c
  8
Layer_0
  10
1002.7694
  20
441.98962
  0
VERTEX
  5
16d
  8
Layer_0
  10
1002.75
  20
441.9625
  0
VERTEX
  5
16e
  8
Layer_0
  10
1002.6975
  20
441.88884
  0
VERTEX
  5
16f
  8
Layer_0
  10
1002.6202
  20
441.78023
  0
VERTEX
  5
170
  8
Layer_0
  10
1002.5268
  20
441.64824
  0
VERTEX
  5
171
  8
Layer_0
  10
1002.325
  20
441.3604
  0
VERTEX
  5
172
  8
Layer_0
  10
1002.1599
  20
441.11795
  0
VERTEX
  5
173
  8
Layer_0
  10
1002.0656
  20
441.00607
  0
VERTEX
  5
174
  8
Layer_0
  10
1001.9181
  20
440.86684
  0
VERTEX
  5
175
  8
Layer_0
  10
1001.7343
  20
440.71156
  0
VERTEX
  5
176
  8
Layer_0
  10
1001.5309
  20
440.55153
  0
VERTEX
  5
177
  8
Layer_0
  10
1001.3248
  20
440.39804
  0
VERTEX
  5
178
  8
Layer_0
  10
1001.1327
  20
440.26238
  0
VERTEX
  5
179
  8
Layer_0
  10
1000.9714
  20
440.15585
  0
VERTEX
  5
17a
  8
Layer_0
  10
1000.8578
  20
440.08975
  0
VERTEX
  5
17b
  8
Layer_0
  10
1000.7275
  20
440.03594
  0
VERTEX
  5
17c
  8
Layer_0
  10
1000.5237
  20
439.96394
  0
VERTEX
  5
17d
  8
Layer_0
  10
1000.2743
  20
439.88159
  0
VERTEX
  5
17e
  8
Layer_0
  10
1000.0075
  20
439.7967
  0
VERTEX
  5
17f
  8
Layer_0
  10
999.75118
  20
439.71706
  0
VERTEX
  5
180
  8
Layer_0
  10
999.5334
  20
439.65051
  0
VERTEX
  5
181
  8
Layer_0
  10
999.38219
  20
439.60485
  0
VERTEX
  5
182
  8
Layer_0
  10
999.32556
  20
439.58789
  0
VERTEX
  5
183
  8
Layer_0
  10
998.06689
  20
439.57965
  0
VERTEX
  5
184
  8
Layer_0
  10
997.31592
  20
439.74011
  0
VERTEX
  5
185
  8
Layer_0
  10
996.99426
  20
439.84915
  0
VERTEX
  5
186
  8
Layer_0
  10
996.99438
  20
439.55954
  0
SEQEND
  0
CIRCLE
  5
188
  8
Layer_0
  62
5
  10
957.71912
  20
447.09998
  30
0
  40
1.4999762
  0
CIRCLE
  5
188
  8
Layer_0
  62
5
  10
986.64917
  20
444.14896
  30
0
  40
1.4999762
  0
POLYLINE
  5
188
  8
Layer_0
  62
5
  66
1
  10
0
  20
0
  30
0
  0
VERTEX
  5
188
  8
Layer_0
  10
923.98492
  20
466.54211
  42
0.086758591
  0
VERTEX
  5
189
  8
Layer_0
  10
926.7403
  20
466.57068
  42
0.1466012
  0
VERTEX
  5
18a
  8
Layer_0
  10
930.82532
  20
468.66931
  0
VERTEX
  5
18b
  8
Layer_0
  10
930.82532
  20
465.33597
  42
0.23636689
  0
VERTEX
  5
18c
  8
Layer_0
  10
936.52563
  20
469.67444
  0
VERTEX
  5
18d
  8
Layer_0
  10
937.66571
  20
466.54211
  42
0.23636642
  0
VERTEX
  5
18e
  8
Layer_0
  10
941.53845
  20
472.56857
  0
VERTEX
  5
18f
  8
Layer_0
  10
943.68103
  20
470.01508
  42
0.23636674
  0
VERTEX
  5
190
  8
Layer_0
  10
945.25903
  20
477.00262
  0
VERTEX
  5
191
  8
Layer_0
  10
948.14581
  20
475.33597
  42
0.23636749
  0
VERTEX
  5
192
  8
Layer_0
  10
947.23877
  20
482.44183
  0
VERTEX
  5
193
  8
Layer_0
  10
950.52148
  20
481.86301
  42
0.23636704
  0
VERTEX
  5
194
  8
Layer_0
  10
947.23877
  20
488.2301
  0
VERTEX
  5
195
  8
Layer_0
  10
950.52148
  20
488.80893
  42
0.2363674
  0
VERTEX
  5
196
  8
Layer_0
  10
945.25903
  20
493.66931
  0
VERTEX
  5
197
  8
Layer_0
  10
948.14581
  20
495.33597
  42
0.2363667
  0
VERTEX
  5
198
  8
Layer_0
  10
941.53845
  20
498.10336
  0
VERTEX
  5
199
  8
Layer_0
  10
943.68103
  20
500.65686
  42
0.23636713
  0
VERTEX
  5
19a
  8
Layer_0
  10
936.52563
  20
500.9975
  0
VERTEX
  5
19b
  8
Layer_0
  10
937.66571
  20
504.12982
  42
0.23636639
  0
VERTEX
  5
19c
  8
Layer_0
  10
930.82532
  20
502.00262
  0
VERTEX
  5
19d
  8
Layer_0
  10
930.82532
  20
505.33597
  42
0.23636727
  0
VERTEX
  5
19e
  8
Layer_0
  10
925.125
  20
500.9975
  0
VERTEX
  5
19f
  8
Layer_0
  10
923.98492
  20
504.12982
  42
0.22649704
  0
VERTEX
  5
1a0
  8
Layer_0
  10
920.14978
  20
498.40076
  0
VERTEX
  5
1a1
  8
Layer_0
  10
920.11218
  20
498.10336
  0
VERTEX
  5
1a2
  8
Layer_0
  10
917.96954
  20
500.65686
  42
0.22649743
  0
VERTEX
  5
1a3
  8
Layer_0
  10
916.32513
  20
493.96161
  0
VERTEX
  5
1a4
  8
Layer_0
  10
916.39154
  20
493.66931
  0
VERTEX
  5
1a5
  8
Layer_0
  10
913.50482
  20
495.33597
  42
0.22649718
  0
VERTEX
  5
1a6
  8
Layer_0
  10
914.24945
  20
488.48206
  0
VERTEX
  5
1a7
  8
Layer_0
  10
914.41187
  20
488.2301
  0
VERTEX
  5
1a8
  8
Layer_0
  10
911.12915
  20
488.80893
  42
0.22649765
  0
VERTEX
  5
1a9
  8
Layer_0
  10
914.1731
  20
482.62308
  0
VERTEX
  5
1aa
  8
Layer_0
  10
914.41187
  20
482.44183
  0
VERTEX
  5
1ab
  8
Layer_0
  10
911.12915
  20
481.86301
  42
0.2264973
  0
VERTEX
  5
1ac
  8
Layer_0
  10
916.10522
  20
477.09128
  0
VERTEX
  5
1ad
  8
Layer_0
  10
916.39154
  20
477.00262
  0
VERTEX
  5
1ae
  8
Layer_0
  10
913.50482
  20
475.33597
  42
0.22649728
  0
VERTEX
  5
1af
  8
Layer_0
  10
919.81281
  20
472.55392
  0
VERTEX
  5
1b0
  8
Layer_0
  10
920.11218
  20
472.56857
  0
VERTEX
  5
1b1
  8
Layer_0
  10
917.96954
  20
470.01508
  42
0.20664746
  0
VERTEX
  5
1b2
  8
Layer_0
  10
924.27704
  20
469.35529
  42
0.028334934
  0
VERTEX
  5
1b3
  8
Layer_0
  10
925.125
  20
469.67444
  0
VERTEX
  5
1b4
  8
Layer_0
  10
923.98492
  20
466.54211
  0
SEQEND
  0
POLYLINE
  5
1b6
  8
Layer_0
  62
5
  66
1
  10
0
  20
0
  30
0
  0
VERTEX
  5
1b6
  8
Layer_0
  10
949.12531
  20
516.41589
  42
0.395273
  0
VERTEX
  5
1b7
  8
Layer_0
  10
945.39056
  20
515.97729
  42
0.41420734
  0
VERTEX
  5
1b8
  8
Layer_0
  10
945.71814
  20
512.10205
  42
0.39479732
  0
VERTEX
  5
1b9
  8
Layer_0
  10
949.4704
  20
512.2934
  42
0.41421303
  0
VERTEX
  5
1ba
  8
Layer_0
  10
949.40204
  20
516.18188
  42
0.032957812
  0
VERTEX
  5
1bb
  8
Layer_0
  10
949.12531
  20
516.41589
  0
SEQEND
  0
POLYLINE
  5
1bd
  8
Layer_0
  62
5
  66
1
  10
0
  20
0
  30
0
  0
VERTEX
  5
1bd
  8
Layer_0
  10
926.65833
  20
504.02078
  42
-0.012576189
  0
VERTEX
  5
1be
  8
Layer_0
  10
927.17645
  20
504.68689
  42
-0.31865042
  0
VERTEX
  5
1bf
  8
Layer_0
  10
945.89453
  20
509.81873
  42
0.063347536
  0
VERTEX
  5
1c0
  8
Layer_0
  10
947.04327
  20
509.55844
  42
0.40256545
  0
VERTEX
  5
1c1
  8
Layer_0
  10
952.11542
  20
513.5697
  42
0.38893718
  0
VERTEX
  5
1c2
  8
Layer_0
  10
948.52539
  20
518.75427
  42
0.346925
  0
VERTEX
  5
1c3
  8
Layer_0
  10
926.95728
  20
506.67065
  0
VERTEX
  5
1c4
  8
Layer_0
  10
926.65833
  20
504.02078
  0
SEQEND
  0
CIRCLE
  5
1c6
  8
Layer_0
  62
5
  10
930.81909
  20
485.33496
  30
0
  40
1.4999762
  0
POLYLINE
  5
1c6
  8
Layer_0
  62
5
  66
1
  10
0
  20
0
  30
0
  0
VERTEX
  5
1c6
  8
Layer_0
  10
963.64526
  20
490.41797
  42
-0.27288802
  0
VERTEX
  5
1c7
  8
Layer_0
  10
973.48993
  20
484.61267
  42
-0.27288825
  0
VERTEX
  5
1c8
  8
Layer_0
  10
973.17438
  20
473.18814
  42
-0.40338869
  0
VERTEX
  5
1c9
  8
Layer_0
  10
958.02301
  20
469.42361
  42
-0.40344079
  0
VERTEX
  5
1ca
  8
Layer_0
  10
953.70001
  20
484.42673
  42
-0.27794154
  0
VERTEX
  5
1cb
  8
Layer_0
  10
963.64526
  20
490.41797
  0
SEQEND
  0
CIRCLE
  5
1cd
  8
Layer_0
  62
5
  10
963.63916
  20
479.16696
  30
0
  40
1.4999762
  0
POLYLINE
  5
1cd
  8
Layer_0
  62
5
  66
1
  10
0
  20
0
  30
0
  0
VERTEX
  5
1cd
  8
Layer_0
  10
987.64526
  20
488.41898
  42
-0.27288802
  0
VERTEX
  5
1ce
  8
Layer_0
  10
997.48993
  20
482.61368
  42
-0.27288825
  0
VERTEX
  5
1cf
  8
Layer_0
  10
997.17438
  20
471.18915
  42
-0.40338869
  0
VERTEX
  5
1d0
  8
Layer_0
  10
982.02301
  20
467.42462
  42
-0.40344079
  0
VERTEX
  5
1d1
  8
Layer_0
  10
977.70001
  20
482.42773
  42
-0.27794154
  0
VERTEX
  5
1d2
  8
Layer_0
  10
987.64526
  20
488.41898
  0
SEQEND
  0
CIRCLE
  5
1d4
  8
Layer_0
  62
5
  10
987.63916
  20
477.16797
  30
0
  40
1.4999762
  0
CIRCLE
  5
1d4
  8
Layer_0
  62
5
  10
957.72913
  20
501.09998
  30
0
  40
7.5
  0
POLYLINE
  5
1d4
  8
Layer_0
  62
5
  66
1
  10
0
  20
0
  30
0
  0
VERTEX
  5
1d4
  8
Layer_0
  10
968.08191
  20
496.51035
  0
VERTEX
  5
1d5
  8
Layer_0
  10
968.08179
  20
493.84305
  0
SEQEND
  0
POLYLINE
  5
1d7
  8
Layer_0
  62
5
  66
1
  10
0
  20
0
  30
0
  0
VERTEX
  5
1d7
  8
Layer_0
  10
968.08179
  20
493.84305
  0
VERTEX
  5
1d8
  8
Layer_0
  10
968.42471
  20
493.8115
  0
VERTEX
  5
1d9
  8
Layer_0
  10
968.73686
  20
493.78471
  0
VERTEX
  5
1da
  8
Layer_0
  10
969.01953
  20
493.76231
  0
VERTEX
  5
1db
  8
Layer_0
  10
969.27403
  20
493.74394
  0
VERTEX
  5
1dc
  8
Layer_0
  10
969.70373
  20
493.71784
  0
VERTEX
  5
1dd
  8
Layer_0
  10
970.03636
  20
493.70351
  0
VERTEX
  5
1de
  8
Layer_0
  10
970.28236
  20
493.69806
  0
VERTEX
  5
1df
  8
Layer_0
  10
970.45214
  20
493.69858
  0
VERTEX
  5
1e0
  8
Layer_0
  10
970.55612
  20
493.70217
  0
VERTEX
  5
1e1
  8
Layer_0
  10
970.60474
  20
493.70593
  0
VERTEX
  5
1e2
  8
Layer_0
  10
970.62914
  20
493.70882
  0
VERTEX
  5
1e3
  8
Layer_0
  10
970.60474
  20
493.70593
  0
VERTEX
  5
1e4
  8
Layer_0
  10
971.04353
  20
493.78383
  0
VERTEX
  5
1e5
  8
Layer_0
  10
971.47235
  20
493.87386
  0
VERTEX
  5
1e6
  8
Layer_0
  10
971.65389
  20
493.91475
  0
VERTEX
  5
1e7
  8
Layer_0
  10
971.79799
  20
493.94825
  0
VERTEX
  5
1e8
  8
Layer_0
  10
971.89299
  20
493.9709
  0
VERTEX
  5
1e9
  8
Layer_0
  10
971.92725
  20
493.97922
  0
VERTEX
  5
1ea
  8
Layer_0
  10
973.2334
  20
494.5152
  0
VERTEX
  5
1eb
  8
Layer_0
  10
974.4209
  20
495.29132
  0
VERTEX
  5
1ec
  8
Layer_0
  10
975.64819
  20
496.52777
  0
VERTEX
  5
1ed
  8
Layer_0
  10
976.47876
  20
497.84637
  0
VERTEX
  5
1ee
  8
Layer_0
  10
976.97266
  20
499.13947
  0
VERTEX
  5
1ef
  8
Layer_0
  10
977.20154
  20
500.32446
  0
VERTEX
  5
1f0
  8
Layer_0
  10
977.19702
  20
502.02997
  0
SEQEND
  0
POLYLINE
  5
1f2
  8
Layer_0
  62
5
  66
1
  10
0
  20
0
  30
0
  0
VERTEX
  5
1f2
  8
Layer_0
  10
977.19702
  20
502.02881
  0
VERTEX
  5
1f3
  8
Layer_0
  10
976.91858
  20
503.36038
  0
VERTEX
  5
1f4
  8
Layer_0
  10
976.22339
  20
504.94281
  0
VERTEX
  5
1f5
  8
Layer_0
  10
975.54163
  20
505.91943
  0
VERTEX
  5
1f6
  8
Layer_0
  10
974.27893
  20
507.13385
  0
VERTEX
  5
1f7
  8
Layer_0
  10
973.09802
  20
507.86926
  0
VERTEX
  5
1f8
  8
Layer_0
  10
971.68945
  20
508.40359
  0
VERTEX
  5
1f9
  8
Layer_0
  10
970.36011
  20
508.63284
  0
VERTEX
  5
1fa
  8
Layer_0
  10
969.19702
  20
508.6376
  0
VERTEX
  5
1fb
  8
Layer_0
  10
968.08179
  20
508.47189
  0
VERTEX
  5
1fc
  8
Layer_0
  10
968.08179
  20
505.95261
  0
VERTEX
  5
1fd
  8
Layer_0
  10
969.29065
  20
505.88953
  0
VERTEX
  5
1fe
  8
Layer_0
  10
970.95117
  20
505.66855
  0
VERTEX
  5
1ff
  8
Layer_0
  10
972.40283
  20
504.99945
  0
VERTEX
  5
200
  8
Layer_0
  10
973.33691
  20
504.14459
  0
VERTEX
  5
201
  8
Layer_0
  10
974.09668
  20
502.85925
  0
SEQEND
  0
POLYLINE
  5
203
  8
Layer_0
  62
5
  66
1
  10
0
  20
0
  30
0
  0
VERTEX
  5
203
  8
Layer_0
  10
974.09631
  20
502.8598
  0
VERTEX
  5
204
  8
Layer_0
  10
974.41577
  20
501.27957
  0
VERTEX
  5
205
  8
Layer_0
  10
974.30823
  20
500.15784
  0
VERTEX
  5
206
  8
Layer_0
  10
973.85693
  20
498.94043
  0
VERTEX
  5
207
  8
Layer_0
  10
973.83754
  20
498.91331
  0
VERTEX
  5
208
  8
Layer_0
  10
973.78499
  20
498.83965
  0
VERTEX
  5
209
  8
Layer_0
  10
973.70776
  20
498.73104
  0
VERTEX
  5
20a
  8
Layer_0
  10
973.6143
  20
498.59904
  0
VERTEX
  5
20b
  8
Layer_0
  10
973.41255
  20
498.31121
  0
VERTEX
  5
20c
  8
Layer_0
  10
973.24744
  20
498.06876
  0
VERTEX
  5
20d
  8
Layer_0
  10
973.15313
  20
497.95687
  0
VERTEX
  5
20e
  8
Layer_0
  10
973.00566
  20
497.81764
  0
VERTEX
  5
20f
  8
Layer_0
  10
972.82183
  20
497.66237
  0
VERTEX
  5
210
  8
Layer_0
  10
972.61844
  20
497.50233
  0
VERTEX
  5
211
  8
Layer_0
  10
972.41229
  20
497.34884
  0
VERTEX
  5
212
  8
Layer_0
  10
972.22018
  20
497.21319
  0
VERTEX
  5
213
  8
Layer_0
  10
972.05892
  20
497.10666
  0
VERTEX
  5
214
  8
Layer_0
  10
971.94531
  20
497.04056
  0
VERTEX
  5
215
  8
Layer_0
  10
971.81502
  20
496.98674
  0
VERTEX
  5
216
  8
Layer_0
  10
971.6112
  20
496.91475
  0
VERTEX
  5
217
  8
Layer_0
  10
971.36185
  20
496.8324
  0
VERTEX
  5
218
  8
Layer_0
  10
971.09502
  20
496.7475
  0
VERTEX
  5
219
  8
Layer_0
  10
970.8387
  20
496.66787
  0
VERTEX
  5
21a
  8
Layer_0
  10
970.62093
  20
496.60132
  0
VERTEX
  5
21b
  8
Layer_0
  10
970.46972
  20
496.55565
  0
VERTEX
  5
21c
  8
Layer_0
  10
970.41309
  20
496.5387
  0
VERTEX
  5
21d
  8
Layer_0
  10
969.15442
  20
496.53046
  0
VERTEX
  5
21e
  8
Layer_0
  10
968.40344
  20
496.69092
  0
VERTEX
  5
21f
  8
Layer_0
  10
968.08179
  20
496.79996
  0
VERTEX
  5
220
  8
Layer_0
  10
968.08191
  20
496.51035
  0
SEQEND
  0
POLYLINE
  5
222
  8
Layer_0
  62
5
  66
1
  10
0
  20
0
  30
0
  0
VERTEX
  5
222
  8
Layer_0
  10
981.26434
  20
513.46399
  42
0.395273
  0
VERTEX
  5
223
  8
Layer_0
  10
977.65985
  20
514.53546
  42
0.41420734
  0
VERTEX
  5
224
  8
Layer_0
  10
976.43097
  20
510.84564
  42
0.39479732
  0
VERTEX
  5
225
  8
Layer_0
  10
979.95398
  20
509.54013
  42
0.41421303
  0
VERTEX
  5
226
  8
Layer_0
  10
981.42627
  20
513.13977
  42
0.032957812
  0
VERTEX
  5
227
  8
Layer_0
  10
981.26434
  20
513.46399
  0
SEQEND
  0
POLYLINE
  5
229
  8
Layer_0
  62
5
  66
1
  10
0
  20
0
  30
0
  0
VERTEX
  5
229
  8
Layer_0
  10
955.72894
  20
510.94513
  42
-0.012576189
  0
VERTEX
  5
22a
  8
Layer_0
  10
956.4679
  20
511.35257
  42
-0.31865042
  0
VERTEX
  5
22b
  8
Layer_0
  10
975.69165
  20
508.67813
  42
0.063347536
  0
VERTEX
  5
22c
  8
Layer_0
  10
976.64429
  20
507.98547
  42
0.40256545
  0
VERTEX
  5
22d
  8
Layer_0
  10
982.888
  20
509.66858
  42
0.38893718
  0
VERTEX
  5
22e
  8
Layer_0
  10
981.63629
  20
515.8493
  42
0.346925
  0
VERTEX
  5
22f
  8
Layer_0
  10
957.04968
  20
513.26172
  0
VERTEX
  5
230
  8
Layer_0
  10
955.72894
  20
510.94513
  0
SEQEND
  0
CIRCLE
  5
232
  8
Layer_0
  62
5
  10
986.65918
  20
498.14896
  30
0
  40
7.5
  0
POLYLINE
  5
232
  8
Layer_0
  62
5
  66
1
  10
0
  20
0
  30
0
  0
VERTEX
  5
232
  8
Layer_0
  10
997.00696
  20
493.55948
  0
VERTEX
  5
233
  8
Layer_0
  10
997.00684
  20
490.89218
  0
SEQEND
  0
POLYLINE
  5
235
  8
Layer_0
  62
5
  66
1
  10
0
  20
0
  30
0
  0
VERTEX
  5
235
  8
Layer_0
  10
997.00684
  20
490.89218
  0
VERTEX
  5
236
  8
Layer_0
  10
997.34976
  20
490.86063
  0
VERTEX
  5
237
  8
Layer_0
  10
997.66191
  20
490.83384
  0
VERTEX
  5
238
  8
Layer_0
  10
997.94458
  20
490.81144
  0
VERTEX
  5
239
  8
Layer_0
  10
998.19908
  20
490.79307
  0
VERTEX
  5
23a
  8
Layer_0
  10
998.62878
  20
490.76697
  0
VERTEX
  5
23b
  8
Layer_0
  10
998.96141
  20
490.75265
  0
VERTEX
  5
23c
  8
Layer_0
  10
999.20741
  20
490.74719
  0
VERTEX
  5
23d
  8
Layer_0
  10
999.37719
  20
490.74771
  0
VERTEX
  5
23e
  8
Layer_0
  10
999.48117
  20
490.7513
  0
VERTEX
  5
23f
  8
Layer_0
  10
999.52979
  20
490.75507
  0
VERTEX
  5
240
  8
Layer_0
  10
999.55418
  20
490.75795
  0
VERTEX
  5
241
  8
Layer_0
  10
999.52979
  20
490.75507
  0
VERTEX
  5
242
  8
Layer_0
  10
999.96858
  20
490.83297
  0
VERTEX
  5
243
  8
Layer_0
  10
1000.3974
  20
490.923
  0
VERTEX
  5
244
  8
Layer_0
  10
1000.5789
  20
490.96388
  0
VERTEX
  5
245
  8
Layer_0
  10
1000.723
  20
490.99738
  0
VERTEX
  5
246
  8
Layer_0
  10
1000.818
  20
491.02003
  0
VERTEX
  5
247
  8
Layer_0
  10
1000.8523
  20
491.02835
  0
VERTEX
  5
248
  8
Layer_0
  10
1002.1584
  20
491.56433
  0
VERTEX
  5
249
  8
Layer_0
  10
1003.3459
  20
492.34045
  0
VERTEX
  5
24a
  8
Layer_0
  10
1004.5732
  20
493.5769
  0
VERTEX
  5
24b
  8
Layer_0
  10
1005.4038
  20
494.89551
  0
VERTEX
  5
24c
  8
Layer_0
  10
1005.8977
  20
496.1886
  0
VERTEX
  5
24d
  8
Layer_0
  10
1006.1266
  20
497.3736
  0
VERTEX
  5
24e
  8
Layer_0
  10
1006.1221
  20
499.0791
  0
SEQEND
  0
POLYLINE
  5
250
  8
Layer_0
  62
5
  66
1
  10
0
  20
0
  30
0
  0
VERTEX
  5
250
  8
Layer_0
  10
1006.1221
  20
499.07794
  0
VERTEX
  5
251
  8
Layer_0
  10
1005.8436
  20
500.40952
  0
VERTEX
  5
252
  8
Layer_0
  10
1005.1484
  20
501.99194
  0
VERTEX
  5
253
  8
Layer_0
  10
1004.4667
  20
502.96857
  0
VERTEX
  5
254
  8
Layer_0
  10
1003.204
  20
504.18298
  0
VERTEX
  5
255
  8
Layer_0
  10
1002.0231
  20
504.9184
  0
VERTEX
  5
256
  8
Layer_0
  10
1000.6145
  20
505.45273
  0
VERTEX
  5
257
  8
Layer_0
  10
999.28516
  20
505.68198
  0
VERTEX
  5
258
  8
Layer_0
  10
998.12207
  20
505.68674
  0
VERTEX
  5
259
  8
Layer_0
  10
997.00684
  20
505.52103
  0
VERTEX
  5
25a
  8
Layer_0
  10
997.00684
  20
503.00174
  0
VERTEX
  5
25b
  8
Layer_0
  10
998.2157
  20
502.93866
  0
VERTEX
  5
25c
  8
Layer_0
  10
999.87622
  20
502.71768
  0
VERTEX
  5
25d
  8
Layer_0
  10
1001.3279
  20
502.04858
  0
VERTEX
  5
25e
  8
Layer_0
  10
1002.262
  20
501.19373
  0
VERTEX
  5
25f
  8
Layer_0
  10
1003.0217
  20
499.90839
  0
SEQEND
  0
POLYLINE
  5
261
  8
Layer_0
  62
5
  66
1
  10
0
  20
0
  30
0
  0
VERTEX
  5
261
  8
Layer_0
  10
1003.0214
  20
499.90894
  0
VERTEX
  5
262
  8
Layer_0
  10
1003.3408
  20
498.3287
  0
VERTEX
  5
263
  8
Layer_0
  10
1003.2333
  20
497.20697
  0
VERTEX
  5
264
  8
Layer_0
  10
1002.782
  20
495.98956
  0
VERTEX
  5
265
  8
Layer_0
  10
1002.7626
  20
495.96244
  0
VERTEX
  5
266
  8
Layer_0
  10
1002.71
  20
495.88878
  0
VERTEX
  5
267
  8
Layer_0
  10
1002.6328
  20
495.78017
  0
VERTEX
  5
268
  8
Layer_0
  10
1002.5394
  20
495.64817
  0
VERTEX
  5
269
  8
Layer_0
  10
1002.3376
  20
495.36034
  0
VERTEX
  5
26a
  8
Layer_0
  10
1002.1725
  20
495.11789
  0
VERTEX
  5
26b
  8
Layer_0
  10
1002.0782
  20
495.006
  0
VERTEX
  5
26c
  8
Layer_0
  10
1001.9307
  20
494.86678
  0
VERTEX
  5
26d
  8
Layer_0
  10
1001.7469
  20
494.7115
  0
VERTEX
  5
26e
  8
Layer_0
  10
1001.5435
  20
494.55147
  0
VERTEX
  5
26f
  8
Layer_0
  10
1001.3373
  20
494.39798
  0
VERTEX
  5
270
  8
Layer_0
  10
1001.1452
  20
494.26232
  0
VERTEX
  5
271
  8
Layer_0
  10
1000.984
  20
494.15579
  0
VERTEX
  5
272
  8
Layer_0
  10
1000.8704
  20
494.08969
  0
VERTEX
  5
273
  8
Layer_0
  10
1000.7401
  20
494.03587
  0
VERTEX
  5
274
  8
Layer_0
  10
1000.5362
  20
493.96388
  0
VERTEX
  5
275
  8
Layer_0
  10
1000.2869
  20
493.88153
  0
VERTEX
  5
276
  8
Layer_0
  10
1000.0201
  20
493.79663
  0
VERTEX
  5
277
  8
Layer_0
  10
999.76375
  20
493.717
  0
VERTEX
  5
278
  8
Layer_0
  10
999.54598
  20
493.65045
  0
VERTEX
  5
279
  8
Layer_0
  10
999.39477
  20
493.60479
  0
VERTEX
  5
27a
  8
Layer_0
  10
999.33813
  20
493.58783
  0
VERTEX
  5
27b
  8
Layer_0
  10
998.07947
  20
493.57959
  0
VERTEX
  5
27c
  8
Layer_0
  10
997.32849
  20
493.74005
  0
VERTEX
  5
27d
  8
Layer_0
  10
997.00684
  20
493.84909
  0
VERTEX
  5
27e
  8
Layer_0
  10
997.00696
  20
493.55948
  0
SEQEND
  0
CIRCLE
  5
280
  8
Layer_0
  62
5
  10
957.72913
  20
501.09998
  30
0
  40
1.4999762
  0
CIRCLE
  5
280
  8
Layer_0
  62
5
  10
986.65918
  20
498.14896
  30
0
  40
1.4999762
  0
POLYLINE
  5
280
  8
Layer_0
  62
5
  66
1
  10
0
  20
0
  30
0
  0
VERTEX
  5
280
  8
Layer_0
  10
1016.6049
  20
454.37411
  42
0.086758591
  0
VERTEX
  5
281
  8
Layer_0
  10
1019.3603
  20
454.40268
  42
0.1466012
  0
VERTEX
  5
282
  8
Layer_0
  10
1023.4453
  20
456.50131
  0
VERTEX
  5
283
  8
Layer_0
  10
1023.4453
  20
453.16797
  42
0.23636689
  0
VERTEX
  5
284
  8
Layer_0
  10
1029.1456
  20
457.50644
  0
VERTEX
  5
285
  8
Layer_0
  10
1030.2856
  20
454.37411
  42
0.23636642
  0
VERTEX
  5
286
  8
Layer_0
  10
1034.1584
  20
460.40057
  0
VERTEX
  5
287
  8
Layer_0
  10
1036.301
  20
457.84708
  42
0.23636674
  0
VERTEX
  5
288
  8
Layer_0
  10
1037.879
  20
464.83463
  0
VERTEX
  5
289
  8
Layer_0
  10
1040.7659
  20
463.16797
  42
0.23636749
  0
VERTEX
  5
28a
  8
Layer_0
  10
1039.8588
  20
470.27383
  0
VERTEX
  5
28b
  8
Layer_0
  10
1043.1415
  20
469.69501
  42
0.23636704
  0
VERTEX
  5
28c
  8
Layer_0
  10
1039.8588
  20
476.0621
  0
VERTEX
  5
28d
  8
Layer_0
  10
1043.1415
  20
476.64093
  42
0.2363674
  0
VERTEX
  5
28e
  8
Layer_0
  10
1037.879
  20
481.50131
  0
VERTEX
  5
28f
  8
Layer_0
  10
1040.7659
  20
483.16797
  42
0.2363667
  0
VERTEX
  5
290
  8
Layer_0
  10
1034.1584
  20
485.93536
  0
VERTEX
  5
291
  8
Layer_0
  10
1036.301
  20
488.48886
  42
0.23636713
  0
VERTEX
  5
292
  8
Layer_0
  10
1029.1456
  20
488.82953
  0
VERTEX
  5
293
  8
Layer_0
  10
1030.2856
  20
491.96182
  42
0.23636639
  0
VERTEX
  5
294
  8
Layer_0
  10
1023.4453
  20
489.83463
  0
VERTEX
  5
295
  8
Layer_0
  10
1023.4453
  20
493.16797
  42
0.23636727
  0
VERTEX
  5
296
  8
Layer_0
  10
1017.745
  20
488.82953
  0
VERTEX
  5
297
  8
Layer_0
  10
1016.6049
  20
491.96182
  42
0.22649704
  0
VERTEX
  5
298
  8
Layer_0
  10
1012.7698
  20
486.23276
  0
VERTEX
  5
299
  8
Layer_0
  10
1012.7322
  20
485.93536
  0
VERTEX
  5
29a
  8
Layer_0
  10
1010.5895
  20
488.48886
  42
0.22649743
  0
VERTEX
  5
29b
  8
Layer_0
  10
1008.9451
  20
481.79361
  0
VERTEX
  5
29c
  8
Layer_0
  10
1009.0115
  20
481.50131
  0
VERTEX
  5
29d
  8
Layer_0
  10
1006.1248
  20
483.16797
  42
0.22649718
  0
VERTEX
  5
29e
  8
Layer_0
  10
1006.8694
  20
476.31406
  0
VERTEX
  5
29f
  8
Layer_0
  10
1007.0319
  20
476.0621
  0
VERTEX
  5
2a0
  8
Layer_0
  10
1003.7491
  20
476.64093
  42
0.22649765
  0
VERTEX
  5
2a1
  8
Layer_0
  10
1006.7931
  20
470.45508
  0
VERTEX
  5
2a2
  8
Layer_0
  10
1007.0319
  20
470.27383
  0
VERTEX
  5
2a3
  8
Layer_0
  10
1003.7491
  20
469.69501
  42
0.2264973
  0
VERTEX
  5
2a4
  8
Layer_0
  10
1008.7252
  20
464.92328
  0
VERTEX
  5
2a5
  8
Layer_0
  10
1009.0115
  20
464.83463
  0
VERTEX
  5
2a6
  8
Layer_0
  10
1006.1248
  20
463.16797
  42
0.22649728
  0
VERTEX
  5
2a7
  8
Layer_0
  10
1012.4328
  20
460.38593
  0
VERTEX
  5
2a8
  8
Layer_0
  10
1012.7322
  20
460.40057
  0
VERTEX
  5
2a9
  8
Layer_0
  10
1010.5895
  20
457.84708
  42
0.20664746
  0
VERTEX
  5
2aa
  8
Layer_0
  10
1016.897
  20
457.18729
  42
0.028334934
  0
VERTEX
  5
2ab
  8
Layer_0
  10
1017.745
  20
457.50644
  0
VERTEX
  5
2ac
  8
Layer_0
  10
1016.6049
  20
454.37411
  0
SEQEND
  0
CIRCLE
  5
2ae
  8
Layer_0
  62
5
  10
1023.4382
  20
473.16696
  30
0
  40
1.4999762
  0
POLYLINE
  5
2ae
  8
Layer_0
  62
5
  66
1
  10
0
  20
0
  30
0
  0
VERTEX
  5
2ae
  8
Layer_0
  10
1056.2643
  20
478.24997
  42
-0.27288802
  0
VERTEX
  5
2af
  8
Layer_0
  10
1066.109
  20
472.44467
  42
-0.27288825
  0
VERTEX
  5
2b0
  8
Layer_0
  10
1065.7935
  20
461.02014
  42
-0.40338869
  0
VERTEX
  5
2b1
  8
Layer_0
  10
1050.642
  20
457.25562
  42
-0.40344079
  0
VERTEX
  5
2b2
  8
Layer_0
  10
1046.319
  20
472.25873
  42
-0.27794154
  0
VERTEX
  5
2b3
  8
Layer_0
  10
1056.2643
  20
478.24997
  0
SEQEND
  0
CIRCLE
  5
2b5
  8
Layer_0
  62
5
  10
1056.2582
  20
466.99896
  30
0
  40
1.4999762
  0
POLYLINE
  5
2b5
  8
Layer_0
  62
5
  66
1
  10
0
  20
0
  30
0
  0
VERTEX
  5
2b5
  8
Layer_0
  10
1080.2643
  20
476.25098
  42
-0.27288802
  0
VERTEX
  5
2b6
  8
Layer_0
  10
1090.109
  20
470.44568
  42
-0.27288825
  0
VERTEX
  5
2b7
  8
Layer_0
  10
1089.7935
  20
459.02115
  42
-0.40338869
  0
VERTEX
  5
2b8
  8
Layer_0
  10
1074.642
  20
455.25662
  42
-0.40344079
  0
VERTEX
  5
2b9
  8
Layer_0
  10
1070.319
  20
470.25974
  42
-0.27794154
  0
VERTEX
  5
2ba
  8
Layer_0
  10
1080.2643
  20
476.25098
  0
SEQEND
  0
CIRCLE
  5
2bc
  8
Layer_0
  62
5
  10
1080.2582
  20
464.99997
  30
0
  40
1.4999762
  0
POLYLINE
  5
2bc
  8
Layer_0
  62
5
  66
1
  10
0
  20
0
  30
0
  0
VERTEX
  5
2bc
  8
Layer_0
  10
1020.6049
  20
412.37411
  42
0.086758591
  0
VERTEX
  5
2bd
  8
Layer_0
  10
1023.3603
  20
412.40268
  42
0.1466012
  0
VERTEX
  5
2be
  8
Layer_0
  10
1027.4453
  20
414.50131
  0
VERTEX
  5
2bf
  8
Layer_0
  10
1027.4453
  20
411.16797
  42
0.23636689
  0
VERTEX
  5
2c0
  8
Layer_0
  10
1033.1456
  20
415.50644
  0
VERTEX
  5
2c1
  8
Layer_0
  10
1034.2856
  20
412.37411
  42
0.23636642
  0
VERTEX
  5
2c2
  8
Layer_0
  10
1038.1584
  20
418.40057
  0
VERTEX
  5
2c3
  8
Layer_0
  10
1040.301
  20
415.84708
  42
0.23636674
  0
VERTEX
  5
2c4
  8
Layer_0
  10
1041.879
  20
422.83463
  0
VERTEX
  5
2c5
  8
Layer_0
  10
1044.7659
  20
421.16797
  42
0.23636749
  0
VERTEX
  5
2c6
  8
Layer_0
  10
1043.8588
  20
428.27383
  0
VERTEX
  5
2c7
  8
Layer_0
  10
1047.1415
  20
427.69501
  42
0.23636704
  0
VERTEX
  5
2c8
  8
Layer_0
  10
1043.8588
  20
434.0621
  0
VERTEX
  5
2c9
  8
Layer_0
  10
1047.1415
  20
434.64093
  42
0.2363674
  0
VERTEX
  5
2ca
  8
Layer_0
  10
1041.879
  20
439.50131
  0
VERTEX
  5
2cb
  8
Layer_0
  10
1044.7659
  20
441.16797
  42
0.2363667
  0
VERTEX
  5
2cc
  8
Layer_0
  10
1038.1584
  20
443.93536
  0
VERTEX
  5
2cd
  8
Layer_0
  10
1040.301
  20
446.48886
  42
0.23636713
  0
VERTEX
  5
2ce
  8
Layer_0
  10
1033.1456
  20
446.82953
  0
VERTEX
  5
2cf
  8
Layer_0
  10
1034.2856
  20
449.96182
  42
0.23636639
  0
VERTEX
  5
2d0
  8
Layer_0
  10
1027.4453
  20
447.83463
  0
VERTEX
  5
2d1
  8
Layer_0
  10
1027.4453
  20
451.16797
  42
0.23636727
  0
VERTEX
  5
2d2
  8
Layer_0
  10
1021.745
  20
446.82953
  0
VERTEX
  5
2d3
  8
Layer_0
  10
1020.6049
  20
449.96182
  42
0.22649704
  0
VERTEX
  5
2d4
  8
Layer_0
  10
1016.7698
  20
444.23276
  0
VERTEX
  5
2d5
  8
Layer_0
  10
1016.7322
  20
443.93536
  0
VERTEX
  5
2d6
  8
Layer_0
  10
1014.5895
  20
446.48886
  42
0.22649743
  0
VERTEX
  5
2d7
  8
Layer_0
  10
1012.9451
  20
439.79361
  0
VERTEX
  5
2d8
  8
Layer_0
  10
1013.0115
  20
439.50131
  0
VERTEX
  5
2d9
  8
Layer_0
  10
1010.1248
  20
441.16797
  42
0.22649718
  0
VERTEX
  5
2da
  8
Layer_0
  10
1010.8694
  20
434.31406
  0
VERTEX
  5
2db
  8
Layer_0
  10
1011.0319
  20
434.0621
  0
VERTEX
  5
2dc
  8
Layer_0
  10
1007.7491
  20
434.64093
  42
0.22649765
  0
VERTEX
  5
2dd
  8
Layer_0
  10
1010.7931
  20
428.45508
  0
VERTEX
  5
2de
  8
Layer_0
  10
1011.0319
  20
428.27383
  0
VERTEX
  5
2df
  8
Layer_0
  10
1007.7491
  20
427.69501
  42
0.2264973
  0
VERTEX
  5
2e0
  8
Layer_0
  10
1012.7252
  20
422.92328
  0
VERTEX
  5
2e1
  8
Layer_0
  10
1013.0115
  20
422.83463
  0
VERTEX
  5
2e2
  8
Layer_0
  10
1010.1248
  20
421.16797
  42
0.22649728
  0
VERTEX
  5
2e3
  8
Layer_0
  10
1016.4328
  20
418.38593
  0
VERTEX
  5
2e4
  8
Layer_0
  10
1016.7322
  20
418.40057
  0
VERTEX
  5
2e5
  8
Layer_0
  10
1014.5895
  20
415.84708
  42
0.20664746
  0
VERTEX
  5
2e6
  8
Layer_0
  10
1020.897
  20
415.18729
  42
0.028334934
  0
VERTEX
  5
2e7
  8
Layer_0
  10
1021.745
  20
415.50644
  0
VERTEX
  5
2e8
  8
Layer_0
  10
1020.6049
  20
412.37411
  0
SEQEND
  0
CIRCLE
  5
2ea
  8
Layer_0
  62
5
  10
1027.4382
  20
431.16696
  30
0
  40
1.4999762
  0
POLYLINE
  5
2ea
  8
Layer_0
  62
5
  66
1
  10
0
  20
0
  30
0
  0
VERTEX
  5
2ea
  8
Layer_0
  10
1060.2643
  20
436.24994
  42
-0.27288802
  0
VERTEX
  5
2eb
  8
Layer_0
  10
1070.109
  20
430.44464
  42
-0.27288825
  0
VERTEX
  5
2ec
  8
Layer_0
  10
1069.7935
  20
419.02011
  42
-0.40338869
  0
VERTEX
  5
2ed
  8
Layer_0
  10
1054.642
  20
415.25558
  42
-0.40344079
  0
VERTEX
  5
2ee
  8
Layer_0
  10
1050.319
  20
430.2587
  42
-0.27794154
  0
VERTEX
  5
2ef
  8
Layer_0
  10
1060.2643
  20
436.24994
  0
SEQEND
  0
CIRCLE
  5
2f1
  8
Layer_0
  62
5
  10
1060.2582
  20
424.99896
  30
0
  40
1.4999762
  0
POLYLINE
  5
2f1
  8
Layer_0
  62
5
  66
1
  10
0
  20
0
  30
0
  0
VERTEX
  5
2f1
  8
Layer_0
  10
1084.2643
  20
434.25098
  42
-0.27288802
  0
VERTEX
  5
2f2
  8
Layer_0
  10
1094.109
  20
428.44568
  42
-0.27288825
  0
VERTEX
  5
2f3
  8
Layer_0
  10
1093.7935
  20
417.02115
  42
-0.40338869
  0
VERTEX
  5
2f4
  8
Layer_0
  10
1078.642
  20
413.25662
  42
-0.40344079
  0
VERTEX
  5
2f5
  8
Layer_0
  10
1074.319
  20
428.25974
  42
-0.27794154
  0
VERTEX
  5
2f6
  8
Layer_0
  10
1084.2643
  20
434.25098
  0
SEQEND
  0
CIRCLE
  5
2f8
  8
Layer_0
  62
5
  10
1084.2582
  20
422.99997
  30
0
  40
1.4999762
  0
POLYLINE
  5
2f8
  8
Layer_0
  62
5
  66
1
  10
0
  20
0
  30
0
  0
VERTEX
  5
2f8
  8
Layer_0
  10
165.15961
  20
105.20615
  42
0.086758591
  0
VERTEX
  5
2f9
  8
Layer_0
  10
167.91499
  20
105.2347
  42
0.1466012
  0
VERTEX
  5
2fa
  8
Layer_0
  10
172
  20
107.33334
  0
VERTEX
  5
2fb
  8
Layer_0
  10
172
  20
104
  42
0.23636689
  0
VERTEX
  5
2fc
  8
Layer_0
  10
177.70033
  20
108.33846
  0
VERTEX
  5
2fd
  8
Layer_0
  10
178.84041
  20
105.20615
  42
0.23636642
  0
VERTEX
  5
2fe
  8
Layer_0
  10
182.71313
  20
111.23259
  0
VERTEX
  5
2ff
  8
Layer_0
  10
184.85576
  20
108.67911
  42
0.23636674
  0
VERTEX
  5
300
  8
Layer_0
  10
186.43376
  20
115.66666
  0
VERTEX
  5
301
  8
Layer_0
  10
189.32051
  20
114
  42
0.23636749
  0
VERTEX
  5
302
  8
Layer_0
  10
188.41347
  20
121.10587
  0
VERTEX
  5
303
  8
Layer_0
  10
191.69617
  20
120.52704
  42
0.23636704
  0
VERTEX
  5
304
  8
Layer_0
  10
188.41347
  20
126.89413
  0
VERTEX
  5
305
  8
Layer_0
  10
191.69617
  20
127.47296
  42
0.2363674
  0
VERTEX
  5
306
  8
Layer_0
  10
186.43376
  20
132.33333
  0
VERTEX
  5
307
  8
Layer_0
  10
189.32051
  20
134
  42
0.2363667
  0
VERTEX
  5
308
  8
Layer_0
  10
182.71313
  20
136.76741
  0
VERTEX
  5
309
  8
Layer_0
  10
184.85576
  20
139.32089
  42
0.23636713
  0
VERTEX
  5
30a
  8
Layer_0
  10
177.70033
  20
139.66154
  0
VERTEX
  5
30b
  8
Layer_0
  10
178.84041
  20
142.79385
  42
0.23636639
  0
VERTEX
  5
30c
  8
Layer_0
  10
172
  20
140.66667
  0
VERTEX
  5
30d
  8
Layer_0
  10
172
  20
144
  42
0.23636727
  0
VERTEX
  5
30e
  8
Layer_0
  10
166.29967
  20
139.66154
  0
VERTEX
  5
30f
  8
Layer_0
  10
165.15961
  20
142.79385
  42
0.22649704
  0
VERTEX
  5
310
  8
Layer_0
  10
161.32445
  20
137.06479
  0
VERTEX
  5
311
  8
Layer_0
  10
161.28688
  20
136.76741
  0
VERTEX
  5
312
  8
Layer_0
  10
159.14426
  20
139.32089
  42
0.22649743
  0
VERTEX
  5
313
  8
Layer_0
  10
157.49985
  20
132.62564
  0
VERTEX
  5
314
  8
Layer_0
  10
157.56625
  20
132.33333
  0
VERTEX
  5
315
  8
Layer_0
  10
154.67949
  20
134
  42
0.22649718
  0
VERTEX
  5
316
  8
Layer_0
  10
155.42416
  20
127.1461
  0
VERTEX
  5
317
  8
Layer_0
  10
155.58655
  20
126.89413
  0
VERTEX
  5
318
  8
Layer_0
  10
152.30385
  20
127.47296
  42
0.22649765
  0
VERTEX
  5
319
  8
Layer_0
  10
155.34779
  20
121.2871
  0
VERTEX
  5
31a
  8
Layer_0
  10
155.58655
  20
121.10587
  0
VERTEX
  5
31b
  8
Layer_0
  10
152.30385
  20
120.52704
  42
0.2264973
  0
VERTEX
  5
31c
  8
Layer_0
  10
157.27991
  20
115.75531
  0
VERTEX
  5
31d
  8
Layer_0
  10
157.56625
  20
115.66666
  0
VERTEX
  5
31e
  8
Layer_0
  10
154.67949
  20
114
  42
0.22649728
  0
VERTEX
  5
31f
  8
Layer_0
  10
160.98749
  20
111.21796
  0
VERTEX
  5
320
  8
Layer_0
  10
161.28688
  20
111.23259
  0
VERTEX
  5
321
  8
Layer_0
  10
159.14426
  20
108.67911
  42
0.20664746
  0
VERTEX
  5
322
  8
Layer_0
  10
165.45175
  20
108.01931
  42
0.028334934
  0
VERTEX
  5
323
  8
Layer_0
  10
166.29967
  20
108.33846
  0
VERTEX
  5
324
  8
Layer_0
  10
165.15961
  20
105.20615
  0
SEQEND
  0
CIRCLE
  5
326
  8
Layer_0
  62
5
  10
171.99391
  20
123.99896
  30
0
  40
1.4999762
  0
POLYLINE
  5
326
  8
Layer_0
  62
5
  66
1
  10
0
  20
0
  30
0
  0
VERTEX
  5
326
  8
Layer_0
  10
70.670326
  20
101.45813
  42
0.086758591
  0
VERTEX
  5
327
  8
Layer_0
  10
73.425713
  20
101.48669
  42
0.1466012
  0
VERTEX
  5
328
  8
Layer_0
  10
77.510727
  20
103.58532
  0
VERTEX
  5
329
  8
Layer_0
  10
77.510727
  20
100.25198
  42
0.23636689
  0
VERTEX
  5
32a
  8
Layer_0
  10
83.211067
  20
104.59044
  0
VERTEX
  5
32b
  8
Layer_0
  10
84.351135
  20
101.45813
  42
0.23636642
  0
VERTEX
  5
32c
  8
Layer_0
  10
88.223862
  20
107.48457
  0
VERTEX
  5
32d
  8
Layer_0
  10
90.366486
  20
104.93109
  42
0.23636674
  0
VERTEX
  5
32e
  8
Layer_0
  10
91.944489
  20
111.91865
  0
VERTEX
  5
32f
  8
Layer_0
  10
94.831238
  20
110.25198
  42
0.23636749
  0
VERTEX
  5
330
  8
Layer_0
  10
93.924194
  20
117.35785
  0
VERTEX
  5
331
  8
Layer_0
  10
97.206886
  20
116.77902
  42
0.23636704
  0
VERTEX
  5
332
  8
Layer_0
  10
93.924194
  20
123.14612
  0
VERTEX
  5
333
  8
Layer_0
  10
97.206886
  20
123.72495
  42
0.2363674
  0
VERTEX
  5
334
  8
Layer_0
  10
91.944489
  20
128.58531
  0
VERTEX
  5
335
  8
Layer_0
  10
94.831238
  20
130.25198
  42
0.2363667
  0
VERTEX
  5
336
  8
Layer_0
  10
88.223862
  20
133.01939
  0
VERTEX
  5
337
  8
Layer_0
  10
90.366486
  20
135.57288
  42
0.23636713
  0
VERTEX
  5
338
  8
Layer_0
  10
83.211067
  20
135.91353
  0
VERTEX
  5
339
  8
Layer_0
  10
84.351135
  20
139.04584
  42
0.23636639
  0
VERTEX
  5
33a
  8
Layer_0
  10
77.510727
  20
136.91866
  0
VERTEX
  5
33b
  8
Layer_0
  10
77.510727
  20
140.25198
  42
0.23636727
  0
VERTEX
  5
33c
  8
Layer_0
  10
71.810394
  20
135.91353
  0
VERTEX
  5
33d
  8
Layer_0
  10
70.670326
  20
139.04584
  42
0.22649704
  0
VERTEX
  5
33e
  8
Layer_0
  10
66.835182
  20
133.31677
  0
VERTEX
  5
33f
  8
Layer_0
  10
66.797607
  20
133.01939
  0
VERTEX
  5
340
  8
Layer_0
  10
64.654976
  20
135.57288
  42
0.22649743
  0
VERTEX
  5
341
  8
Layer_0
  10
63.010574
  20
128.87762
  0
VERTEX
  5
342
  8
Layer_0
  10
63.076973
  20
128.58531
  0
VERTEX
  5
343
  8
Layer_0
  10
60.190224
  20
130.25198
  42
0.22649718
  0
VERTEX
  5
344
  8
Layer_0
  10
60.934898
  20
123.39809
  0
VERTEX
  5
345
  8
Layer_0
  10
61.097267
  20
123.14612
  0
VERTEX
  5
346
  8
Layer_0
  10
57.814575
  20
123.72495
  42
0.22649765
  0
VERTEX
  5
347
  8
Layer_0
  10
60.858513
  20
117.53909
  0
VERTEX
  5
348
  8
Layer_0
  10
61.097267
  20
117.35785
  0
VERTEX
  5
349
  8
Layer_0
  10
57.814575
  20
116.77902
  42
0.2264973
  0
VERTEX
  5
34a
  8
Layer_0
  10
62.790634
  20
112.00729
  0
VERTEX
  5
34b
  8
Layer_0
  10
63.076973
  20
111.91865
  0
VERTEX
  5
34c
  8
Layer_0
  10
60.190224
  20
110.25198
  42
0.22649728
  0
VERTEX
  5
34d
  8
Layer_0
  10
66.498215
  20
107.46994
  0
VERTEX
  5
34e
  8
Layer_0
  10
66.797607
  20
107.48457
  0
VERTEX
  5
34f
  8
Layer_0
  10
64.654976
  20
104.93109
  42
0.20664746
  0
VERTEX
  5
350
  8
Layer_0
  10
70.962479
  20
104.27129
  42
0.028334934
  0
VERTEX
  5
351
  8
Layer_0
  10
71.810394
  20
104.59044
  0
VERTEX
  5
352
  8
Layer_0
  10
70.670326
  20
101.45813
  0
SEQEND
  0
POLYLINE
  5
354
  8
Layer_0
  62
5
  66
1
  10
0
  20
0
  30
0
  0
VERTEX
  5
354
  8
Layer_0
  10
95.810715
  20
151.33191
  42
0.395273
  0
VERTEX
  5
355
  8
Layer_0
  10
92.075974
  20
150.89334
  42
0.41420734
  0
VERTEX
  5
356
  8
Layer_0
  10
92.403557
  20
147.01807
  42
0.39479732
  0
VERTEX
  5
357
  8
Layer_0
  10
96.1558
  20
147.20941
  42
0.41421303
  0
VERTEX
  5
358
  8
Layer_0
  10
96.087479
  20
151.0979
  42
0.032957812
  0
VERTEX
  5
359
  8
Layer_0
  10
95.810715
  20
151.33191
  0
SEQEND
  0
POLYLINE
  5
35b
  8
Layer_0
  62
5
  66
1
  10
0
  20
0
  30
0
  0
VERTEX
  5
35b
  8
Layer_0
  10
73.343742
  20
138.93681
  42
-0.012576189
  0
VERTEX
  5
35c
  8
Layer_0
  10
73.861855
  20
139.60289
  42
-0.31865042
  0
VERTEX
  5
35d
  8
Layer_0
  10
92.579956
  20
144.73476
  42
0.063347536
  0
VERTEX
  5
35e
  8
Layer_0
  10
93.728699
  20
144.47446
  42
0.40256545
  0
VERTEX
  5
35f
  8
Layer_0
  10
98.800827
  20
148.48572
  42
0.38893718
  0
VERTEX
  5
360
  8
Layer_0
  10
95.210785
  20
153.67032
  42
0.346925
  0
VERTEX
  5
361
  8
Layer_0
  10
73.642685
  20
141.58667
  0
VERTEX
  5
362
  8
Layer_0
  10
73.343742
  20
138.93681
  0
SEQEND
  0
CIRCLE
  5
364
  8
Layer_0
  62
5
  10
77.504517
  20
120.25098
  30
0
  40
1.4999762
  0
POLYLINE
  5
364
  8
Layer_0
  62
5
  66
1
  10
0
  20
0
  30
0
  0
VERTEX
  5
364
  8
Layer_0
  10
110.33067
  20
125.33398
  42
-0.27288802
  0
VERTEX
  5
365
  8
Layer_0
  10
120.17535
  20
119.52869
  42
-0.27288825
  0
VERTEX
  5
366
  8
Layer_0
  10
119.8598
  20
108.10416
  42
-0.40338869
  0
VERTEX
  5
367
  8
Layer_0
  10
104.70841
  20
104.33962
  42
-0.40344079
  0
VERTEX
  5
368
  8
Layer_0
  10
100.38544
  20
119.34275
  42
-0.27794154
  0
VERTEX
  5
369
  8
Layer_0
  10
110.33067
  20
125.33398
  0
SEQEND
  0
CIRCLE
  5
36b
  8
Layer_0
  62
5
  10
110.32458
  20
114.08298
  30
0
  40
1.4999762
  0
POLYLINE
  5
36b
  8
Layer_0
  62
5
  66
1
  10
0
  20
0
  30
0
  0
VERTEX
  5
36b
  8
Layer_0
  10
134.33067
  20
123.33499
  42
-0.27288802
  0
VERTEX
  5
36c
  8
Layer_0
  10
144.17535
  20
117.52969
  42
-0.27288825
  0
VERTEX
  5
36d
  8
Layer_0
  10
143.8598
  20
106.10517
  42
-0.40338869
  0
VERTEX
  5
36e
  8
Layer_0
  10
128.7084
  20
102.34063
  42
-0.40344079
  0
VERTEX
  5
36f
  8
Layer_0
  10
124.38544
  20
117.34376
  42
-0.27794154
  0
VERTEX
  5
370
  8
Layer_0
  10
134.33067
  20
123.33499
  0
SEQEND
  0
CIRCLE
  5
372
  8
Layer_0
  62
5
  10
134.32458
  20
112.08398
  30
0
  40
1.4999762
  0
CIRCLE
  5
372
  8
Layer_0
  62
5
  10
104.41455
  20
136.01599
  30
0
  40
7.5
  0
POLYLINE
  5
372
  8
Layer_0
  62
5
  66
1
  10
0
  20
0
  30
0
  0
VERTEX
  5
372
  8
Layer_0
  10
114.76733
  20
131.42636
  0
VERTEX
  5
373
  8
Layer_0
  10
114.76721
  20
128.75906
  0
SEQEND
  0
POLYLINE
  5
375
  8
Layer_0
  62
5
  66
1
  10
0
  20
0
  30
0
  0
VERTEX
  5
375
  8
Layer_0
  10
114.76721
  20
128.75906
  0
VERTEX
  5
376
  8
Layer_0
  10
115.11014
  20
128.72752
  0
VERTEX
  5
377
  8
Layer_0
  10
115.42229
  20
128.70072
  0
VERTEX
  5
378
  8
Layer_0
  10
115.70496
  20
128.67832
  0
VERTEX
  5
379
  8
Layer_0
  10
115.95946
  20
128.65995
  0
VERTEX
  5
37a
  8
Layer_0
  10
116.38915
  20
128.63386
  0
VERTEX
  5
37b
  8
Layer_0
  10
116.72179
  20
128.61953
  0
VERTEX
  5
37c
  8
Layer_0
  10
116.96778
  20
128.61408
  0
VERTEX
  5
37d
  8
Layer_0
  10
117.13756
  20
128.61459
  0
VERTEX
  5
37e
  8
Layer_0
  10
117.24155
  20
128.61818
  0
VERTEX
  5
37f
  8
Layer_0
  10
117.29016
  20
128.62195
  0
VERTEX
  5
380
  8
Layer_0
  10
117.31456
  20
128.62483
  0
VERTEX
  5
381
  8
Layer_0
  10
117.29016
  20
128.62195
  0
VERTEX
  5
382
  8
Layer_0
  10
117.72896
  20
128.69985
  0
VERTEX
  5
383
  8
Layer_0
  10
118.15778
  20
128.78988
  0
VERTEX
  5
384
  8
Layer_0
  10
118.33932
  20
128.83076
  0
VERTEX
  5
385
  8
Layer_0
  10
118.48341
  20
128.86427
  0
VERTEX
  5
386
  8
Layer_0
  10
118.57841
  20
128.88691
  0
VERTEX
  5
387
  8
Layer_0
  10
118.61267
  20
128.89523
  0
VERTEX
  5
388
  8
Layer_0
  10
119.91882
  20
129.43121
  0
VERTEX
  5
389
  8
Layer_0
  10
121.10632
  20
130.20734
  0
VERTEX
  5
38a
  8
Layer_0
  10
122.33362
  20
131.44379
  0
VERTEX
  5
38b
  8
Layer_0
  10
123.16418
  20
132.76239
  0
VERTEX
  5
38c
  8
Layer_0
  10
123.65808
  20
134.05548
  0
VERTEX
  5
38d
  8
Layer_0
  10
123.88696
  20
135.24048
  0
VERTEX
  5
38e
  8
Layer_0
  10
123.88245
  20
136.94598
  0
SEQEND
  0
POLYLINE
  5
390
  8
Layer_0
  62
5
  66
1
  10
0
  20
0
  30
0
  0
VERTEX
  5
390
  8
Layer_0
  10
123.88245
  20
136.94482
  0
VERTEX
  5
391
  8
Layer_0
  10
123.604
  20
138.2764
  0
VERTEX
  5
392
  8
Layer_0
  10
122.90881
  20
139.85883
  0
VERTEX
  5
393
  8
Layer_0
  10
122.22705
  20
140.83545
  0
VERTEX
  5
394
  8
Layer_0
  10
120.96436
  20
142.04987
  0
VERTEX
  5
395
  8
Layer_0
  10
119.78345
  20
142.78528
  0
VERTEX
  5
396
  8
Layer_0
  10
118.37488
  20
143.31961
  0
VERTEX
  5
397
  8
Layer_0
  10
117.04553
  20
143.54886
  0
VERTEX
  5
398
  8
Layer_0
  10
115.88245
  20
143.55362
  0
VERTEX
  5
399
  8
Layer_0
  10
114.76721
  20
143.38791
  0
VERTEX
  5
39a
  8
Layer_0
  10
114.76721
  20
140.86862
  0
VERTEX
  5
39b
  8
Layer_0
  10
115.97607
  20
140.80554
  0
VERTEX
  5
39c
  8
Layer_0
  10
117.6366
  20
140.58456
  0
VERTEX
  5
39d
  8
Layer_0
  10
119.08826
  20
139.91547
  0
VERTEX
  5
39e
  8
Layer_0
  10
120.02234
  20
139.06061
  0
VERTEX
  5
39f
  8
Layer_0
  10
120.7821
  20
137.77527
  0
SEQEND
  0
POLYLINE
  5
3a1
  8
Layer_0
  62
5
  66
1
  10
0
  20
0
  30
0
  0
VERTEX
  5
3a1
  8
Layer_0
  10
120.78174
  20
137.77582
  0
VERTEX
  5
3a2
  8
Layer_0
  10
121.1012
  20
136.19559
  0
VERTEX
  5
3a3
  8
Layer_0
  10
120.99365
  20
135.07385
  0
VERTEX
  5
3a4
  8
Layer_0
  10
120.54236
  20
133.85645
  0
VERTEX
  5
3a5
  8
Layer_0
  10
120.52296
  20
133.82932
  0
VERTEX
  5
3a6
  8
Layer_0
  10
120.47042
  20
133.75566
  0
VERTEX
  5
3a7
  8
Layer_0
  10
120.39319
  20
133.64705
  0
VERTEX
  5
3a8
  8
Layer_0
  10
120.29973
  20
133.51506
  0
VERTEX
  5
3a9
  8
Layer_0
  10
120.09798
  20
133.22722
  0
VERTEX
  5
3aa
  8
Layer_0
  10
119.93286
  20
132.98477
  0
VERTEX
  5
3ab
  8
Layer_0
  10
119.83856
  20
132.87289
  0
VERTEX
  5
3ac
  8
Layer_0
  10
119.69109
  20
132.73366
  0
VERTEX
  5
3ad
  8
Layer_0
  10
119.50726
  20
132.57838
  0
VERTEX
  5
3ae
  8
Layer_0
  10
119.30386
  20
132.41835
  0
VERTEX
  5
3af
  8
Layer_0
  10
119.09771
  20
132.26486
  0
VERTEX
  5
3b0
  8
Layer_0
  10
118.90561
  20
132.1292
  0
VERTEX
  5
3b1
  8
Layer_0
  10
118.74435
  20
132.02268
  0
VERTEX
  5
3b2
  8
Layer_0
  10
118.63074
  20
131.95657
  0
VERTEX
  5
3b3
  8
Layer_0
  10
118.50045
  20
131.90276
  0
VERTEX
  5
3b4
  8
Layer_0
  10
118.29662
  20
131.83077
  0
VERTEX
  5
3b5
  8
Layer_0
  10
118.04728
  20
131.74842
  0
VERTEX
  5
3b6
  8
Layer_0
  10
117.78044
  20
131.66352
  0
VERTEX
  5
3b7
  8
Layer_0
  10
117.52413
  20
131.58388
  0
VERTEX
  5
3b8
  8
Layer_0
  10
117.30635
  20
131.51733
  0
VERTEX
  5
3b9
  8
Layer_0
  10
117.15514
  20
131.47167
  0
VERTEX
  5
3ba
  8
Layer_0
  10
117.09851
  20
131.45471
  0
VERTEX
  5
3bb
  8
Layer_0
  10
115.83984
  20
131.44647
  0
VERTEX
  5
3bc
  8
Layer_0
  10
115.08887
  20
131.60693
  0
VERTEX
  5
3bd
  8
Layer_0
  10
114.76721
  20
131.71597
  0
VERTEX
  5
3be
  8
Layer_0
  10
114.76733
  20
131.42636
  0
SEQEND
  0
POLYLINE
  5
3c0
  8
Layer_0
  62
5
  66
1
  10
0
  20
0
  30
0
  0
VERTEX
  5
3c0
  8
Layer_0
  10
127.94979
  20
148.38004
  42
0.395273
  0
VERTEX
  5
3c1
  8
Layer_0
  10
124.34526
  20
149.45148
  42
0.41420734
  0
VERTEX
  5
3c2
  8
Layer_0
  10
123.11637
  20
145.76166
  42
0.39479732
  0
VERTEX
  5
3c3
  8
Layer_0
  10
126.63938
  20
144.45615
  42
0.41421303
  0
VERTEX
  5
3c4
  8
Layer_0
  10
128.11169
  20
148.05577
  42
0.032957812
  0
VERTEX
  5
3c5
  8
Layer_0
  10
127.94979
  20
148.38004
  0
SEQEND
  0
POLYLINE
  5
3c7
  8
Layer_0
  62
5
  66
1
  10
0
  20
0
  30
0
  0
VERTEX
  5
3c7
  8
Layer_0
  10
102.41435
  20
145.86115
  42
-0.012576189
  0
VERTEX
  5
3c8
  8
Layer_0
  10
103.15334
  20
146.26859
  42
-0.31865042
  0
VERTEX
  5
3c9
  8
Layer_0
  10
122.37704
  20
143.59415
  42
0.063347536
  0
VERTEX
  5
3ca
  8
Layer_0
  10
123.32971
  20
142.90149
  42
0.40256545
  0
VERTEX
  5
3cb
  8
Layer_0
  10
129.57343
  20
144.58459
  42
0.38893718
  0
VERTEX
  5
3cc
  8
Layer_0
  10
128.32175
  20
150.76534
  42
0.346925
  0
VERTEX
  5
3cd
  8
Layer_0
  10
103.73512
  20
148.17776
  0
VERTEX
  5
3ce
  8
Layer_0
  10
102.41435
  20
145.86115
  0
SEQEND
  0
CIRCLE
  5
3d0
  8
Layer_0
  62
5
  10
133.3446
  20
133.06497
  30
0
  40
7.5
  0
POLYLINE
  5
3d0
  8
Layer_0
  62
5
  66
1
  10
0
  20
0
  30
0
  0
VERTEX
  5
3d0
  8
Layer_0
  10
143.69238
  20
128.47549
  0
VERTEX
  5
3d1
  8
Layer_0
  10
143.69226
  20
125.8082
  0
SEQEND
  0
POLYLINE
  5
3d3
  8
Layer_0
  62
5
  66
1
  10
0
  20
0
  30
0
  0
VERTEX
  5
3d3
  8
Layer_0
  10
143.69226
  20
125.8082
  0
VERTEX
  5
3d4
  8
Layer_0
  10
144.03519
  20
125.77665
  0
VERTEX
  5
3d5
  8
Layer_0
  10
144.34734
  20
125.74986
  0
VERTEX
  5
3d6
  8
Layer_0
  10
144.63001
  20
125.72746
  0
VERTEX
  5
3d7
  8
Layer_0
  10
144.88451
  20
125.70909
  0
VERTEX
  5
3d8
  8
Layer_0
  10
145.3142
  20
125.68299
  0
VERTEX
  5
3d9
  8
Layer_0
  10
145.64684
  20
125.66866
  0
VERTEX
  5
3da
  8
Layer_0
  10
145.89283
  20
125.66321
  0
VERTEX
  5
3db
  8
Layer_0
  10
146.06261
  20
125.66373
  0
VERTEX
  5
3dc
  8
Layer_0
  10
146.1666
  20
125.66732
  0
VERTEX
  5
3dd
  8
Layer_0
  10
146.21521
  20
125.67108
  0
VERTEX
  5
3de
  8
Layer_0
  10
146.23961
  20
125.67397
  0
VERTEX
  5
3df
  8
Layer_0
  10
146.21521
  20
125.67108
  0
VERTEX
  5
3e0
  8
Layer_0
  10
146.65401
  20
125.74898
  0
VERTEX
  5
3e1
  8
Layer_0
  10
147.08282
  20
125.83901
  0
VERTEX
  5
3e2
  8
Layer_0
  10
147.26437
  20
125.8799
  0
VERTEX
  5
3e3
  8
Layer_0
  10
147.40846
  20
125.9134
  0
VERTEX
  5
3e4
  8
Layer_0
  10
147.50346
  20
125.93605
  0
VERTEX
  5
3e5
  8
Layer_0
  10
147.53772
  20
125.94437
  0
VERTEX
  5
3e6
  8
Layer_0
  10
148.84387
  20
126.48035
  0
VERTEX
  5
3e7
  8
Layer_0
  10
150.03137
  20
127.25647
  0
VERTEX
  5
3e8
  8
Layer_0
  10
151.25867
  20
128.49292
  0
VERTEX
  5
3e9
  8
Layer_0
  10
152.08923
  20
129.81152
  0
VERTEX
  5
3ea
  8
Layer_0
  10
152.58313
  20
131.10461
  0
VERTEX
  5
3eb
  8
Layer_0
  10
152.81201
  20
132.28961
  0
VERTEX
  5
3ec
  8
Layer_0
  10
152.8075
  20
133.99512
  0
SEQEND
  0
POLYLINE
  5
3ee
  8
Layer_0
  62
5
  66
1
  10
0
  20
0
  30
0
  0
VERTEX
  5
3ee
  8
Layer_0
  10
152.8075
  20
133.99396
  0
VERTEX
  5
3ef
  8
Layer_0
  10
152.52905
  20
135.32553
  0
VERTEX
  5
3f0
  8
Layer_0
  10
151.83386
  20
136.90796
  0
VERTEX
  5
3f1
  8
Layer_0
  10
151.1521
  20
137.88458
  0
VERTEX
  5
3f2
  8
Layer_0
  10
149.8894
  20
139.099
  0
VERTEX
  5
3f3
  8
Layer_0
  10
148.7085
  20
139.83441
  0
VERTEX
  5
3f4
  8
Layer_0
  10
147.29993
  20
140.36874
  0
VERTEX
  5
3f5
  8
Layer_0
  10
145.97058
  20
140.59799
  0
VERTEX
  5
3f6
  8
Layer_0
  10
144.8075
  20
140.60275
  0
VERTEX
  5
3f7
  8
Layer_0
  10
143.69226
  20
140.43704
  0
VERTEX
  5
3f8
  8
Layer_0
  10
143.69226
  20
137.91776
  0
VERTEX
  5
3f9
  8
Layer_0
  10
144.90112
  20
137.85468
  0
VERTEX
  5
3fa
  8
Layer_0
  10
146.56165
  20
137.6337
  0
VERTEX
  5
3fb
  8
Layer_0
  10
148.01331
  20
136.9646
  0
VERTEX
  5
3fc
  8
Layer_0
  10
148.94739
  20
136.10974
  0
VERTEX
  5
3fd
  8
Layer_0
  10
149.70715
  20
134.8244
  0
SEQEND
  0
POLYLINE
  5
3ff
  8
Layer_0
  62
5
  66
1
  10
0
  20
0
  30
0
  0
VERTEX
  5
3ff
  8
Layer_0
  10
149.70679
  20
134.82495
  0
VERTEX
  5
400
  8
Layer_0
  10
150.02625
  20
133.24472
  0
VERTEX
  5
401
  8
Layer_0
  10
149.9187
  20
132.12299
  0
VERTEX
  5
402
  8
Layer_0
  10
149.46741
  20
130.90558
  0
VERTEX
  5
403
  8
Layer_0
  10
149.44801
  20
130.87845
  0
VERTEX
  5
404
  8
Layer_0
  10
149.39547
  20
130.8048
  0
VERTEX
  5
405
  8
Layer_0
  10
149.31824
  20
130.69618
  0
VERTEX
  5
406
  8
Layer_0
  10
149.22478
  20
130.56419
  0
VERTEX
  5
407
  8
Layer_0
  10
149.02303
  20
130.27636
  0
VERTEX
  5
408
  8
Layer_0
  10
148.85791
  20
130.03391
  0
VERTEX
  5
409
  8
Layer_0
  10
148.76361
  20
129.92202
  0
VERTEX
  5
40a
  8
Layer_0
  10
148.61614
  20
129.78279
  0
VERTEX
  5
40b
  8
Layer_0
  10
148.43231
  20
129.62751
  0
VERTEX
  5
40c
  8
Layer_0
  10
148.22891
  20
129.46748
  0
VERTEX
  5
40d
  8
Layer_0
  10
148.02276
  20
129.31399
  0
VERTEX
  5
40e
  8
Layer_0
  10
147.83065
  20
129.17834
  0
VERTEX
  5
40f
  8
Layer_0
  10
147.66939
  20
129.07181
  0
VERTEX
  5
410
  8
Layer_0
  10
147.55579
  20
129.00571
  0
VERTEX
  5
411
  8
Layer_0
  10
147.4255
  20
128.95189
  0
VERTEX
  5
412
  8
Layer_0
  10
147.22167
  20
128.8799
  0
VERTEX
  5
413
  8
Layer_0
  10
146.97233
  20
128.79755
  0
VERTEX
  5
414
  8
Layer_0
  10
146.70549
  20
128.71265
  0
VERTEX
  5
415
  8
Layer_0
  10
146.44917
  20
128.63302
  0
VERTEX
  5
416
  8
Layer_0
  10
146.2314
  20
128.56646
  0
VERTEX
  5
417
  8
Layer_0
  10
146.08019
  20
128.5208
  0
VERTEX
  5
418
  8
Layer_0
  10
146.02356
  20
128.50385
  0
VERTEX
  5
419
  8
Layer_0
  10
144.76489
  20
128.49561
  0
VERTEX
  5
41a
  8
Layer_0
  10
144.01392
  20
128.65607
  0
VERTEX
  5
41b
  8
Layer_0
  10
143.69226
  20
128.76511
  0
VERTEX
  5
41c
  8
Layer_0
  10
143.69238
  20
128.47549
  0
SEQEND
  0
CIRCLE
  5
41e
  8
Layer_0
  62
5
  10
104.41455
  20
136.01599
  30
0
  40
1.4999762
  0
CIRCLE
  5
41e
  8
Layer_0
  62
5
  10
133.3446
  20
133.06497
  30
0
  40
1.4999762
  0
ENDSEC
  0
EOF
